<?xml version="1.0" encoding="UTF-8"?>
<svg id="Layer_1" xmlns="http://www.w3.org/2000/svg" version="1.1" viewBox="0 0 264.9 150.3">
  <!-- Generator: Adobe Illustrator 29.8.1, SVG Export Plug-In . SVG Version: 2.1.1 Build 2)  -->
  <defs>
    <style>
      .st0 {
        fill: #176a7b;
      }

      .st1 {
        fill: #4fbed5;
      }
    </style>
  </defs>
  <path class="st1" d="M176.6,96.6l.2-29.1,30.5,49,37.5-29.9v29.1l20,34.5H78.1s42.4-12.9,42.9-14.5-26.6-32.2-26.6-32.2l44.2,5.2-2.7-35.3,40.6,23.2Z"/>
  <g>
    <path class="st0" d="M188,45.2c-2.6-3.9-6.5-4.6-10.7-5.6-1.7-.4-3.5-.8-3.6-2.9-.1-2,1.5-3.3,2.2-4.9.3-.6,1.2-2.6,1.2-3.2.2-1.7-1.1-3-2.6-3.5-3.2-1.1-5.3,1.2-7.4,3.1-1,.9-1.3.9-2,2.3-3,6.1-2.2,12.5,3.9,16.2,3.4,2,5.6.9,8.9,1.7,2.8.7,3.9,1.9,4,4.8.2,5.8-6.1,11.5-10.6,14.3l-12.7,7.5c-.1-.1.3-2.2.4-2.6.4-3.7,1.1-7.3.8-11.1-.2-2.7-1.1-6.3-1.8-8.9-.3-.9-1.6-3.3-1.1-4,.1-.2.6-.3.8-.5,1.8-1.5.9-6.4-1.4-6.8-.8-.1-1.3.2-1.7.2-.2,0-.9-.6-1.4-.7-.9-.2-2.3,0-3.2.4-.3.1-.7.6-.7.6-1.3.3-1.9.2-3.1,1.2-1.1,1-1.7,3.8-1.8,5.3,0,1.3,0,2.7.3,4-2.3-2.2-5.4-3.1-8.3-4.4-.9-.4-1.6-.9-2.5-1.3-4.1-1.9-9-3.1-13.5-2.7.4-1.3,0-2.3-1-3.1l.3-.4c-1.9-.1-.1,1.5.2,2.3,0,.2.3,1.1.2,1.2l-3.6.9c-.4,0-.8-.7-1-1-1.1-1.6-1.8-3.5-3.1-4.9,3.4-.1,6.8-.8,10.1-.6,1.1,0,2.3.3,3.4.4,2,.1,4.1-.1,6.2,0,.6,0,1.3.2,1.9.1v7.4c0,.2.2.5.4.6,1.1.2.6-1.6.6-2.2,0-1.9.2-4.4,0-6.2,0-.2,0-.4-.3-.5l-4.5-.3c-3.9.4-7.6-.6-11.6-.2-1.3.1-5.4.5-6.4.9-.2,0-.2,0-.2.2h-.2c-.6-1.1-2.2-2.2-2.6-3.3-.1-.3.2-.8-.5-.6l-5.4,3c-.5,0-2.3-2-3.2-1.6-4.5,3.6-9.7,6.3-14.4,9.6-1.7,1.2-3.3,2.7-5,3.9-2.1,1.6-6,3.6-7.2,6-.1.2-.1.7-.2.7-.3.4-7.8,1.9-8.8,2.2-5.7-2.4-12.2-1.9-18.2-2.5-1.6-.1-3.1-.6-4.7-.6l9.1-2.6c7.5-2,15.4-2.9,22.9-4.7,1.4-.3,4.5-1.7,5.6-1.7.4,0,.6.4.9.2l.3-.8,2.3-11.9c0-1.2-3.2-.9-3.8-2.1,1.4-.5,3-.6,4.2-1.4.2-.2.2-.5,0-.7-.2-.2-2.7-1.1-3.1-1.2-.3,0-1,0-1.1-.3l5.5-1.2c.4-.1.4-.6.2-.9l-8.3-4c-2.6-2.1-5.6-3.5-8.3-5.3-1.3-.8-4.4-3.5-5.7-3.6-1.5,0-4.8,1.2-6.5,1.6-6.9,1.6-14.4,2.6-21.4,4-4.1.8-8.2,1.8-12.3,2.6-2.2.4-4.4.5-6.6.3-.4.4,1,.7,1.2.8.6,0,1.4,0,2.1,0l-3.2.8c-.8.1-4.8-1.4-4.1.3.1.3,1,1.4,1.2,1.8.1.2.8.7.7.9-1.2.5-3.8,2-2,3.3.6.4,1.1.8,1.7,1.2-.8,0-2.5.2-2.7.9,0,.7-.1,1.5-.2,2.2-.1,3.4.2,7.6.6,10.9,0,.3.2.8.4.9,2.2.7,4.2,2.4,6.3,3.2.6.2,1.3.5,2,.2-.4,1.6-.4,3.6,0,5.2.8,4.1,5.2,8.3,8.2,11,.6.5,1.4,1,2,1.6-.1,2-.7,3.9.2,5.9.2.6.7,1.2,1,1.8-1.2-.2-2.4-.6-3.7-.6-3.6,0-7.6.6-11.2.9-1.1,0-3-.2-3.9.2-.3.1-.3.4-.5.5-.8.4-2.7.8-3.8,1.2-.5.2-3.1,1.2-2.6,1.9h.6c0,.1-.3-.3-.3-.3.2-.3,3-1.4,3.6-1.6.6-.2,2.6-1,3.1-.8.5.2,1,.9,1.1,1.4,0,.4-.9.4-1.2.6-1.7.7-3.5,2.1-4.9,3.3-.4.4-1.4,1.2-.8,1.7,1.2-1.5,2.9-2.8,4.6-3.7.6-.3,1.4-.8,2.1-.9l-1,3.1c-2.2,1.5-4.7,3.3-6.3,5.4-.3.4-.9,1.2-.1,1.3,0-.2,0-.3,0-.4.1-.3,1.3-1.5,1.6-1.8,1.3-1.3,3-2.4,4.5-3.5.1.1-.8,1.9-.9,2.2-.3.7-.4,1.9-.7,2.4-.3.6-1.3,1.6-1.8,2.3-.6.9-2.1,3.8-1.8,4.8.3.9.4-.3.4-.4.3-1,.7-2,1.2-2.9.3-.5,1.6-2.6,2-2.9.2-.2.4,0,.6,0,1.2-.2,1.8-1.8,3.2-2,.2,0,.5-.1.6,0,.5.7-.8,1.5-1.1,1.9-.9,1.1-1.9,2.3-2.5,3.5-.3.6-1,1.9-.8,2.6.2.7.4-.5.4-.6.6-1.5,1.5-2.8,2.5-4.1l1.5-1.7c-.2,1.3-.8,2.5-1.2,3.8-.5,1.6-1,2.3-1.7,3.9-.3.7-1,2.4-1,3.1,0,.2,0,.4.2.6l1.2-3c1.1-4,4.6-5,7.4-7.5,1.6-1.4,3.2-4.3,5.5-4.5,2.8-.3,6.3.2,8.6,1.9.3.2,1.8,1.6,1.8,1.8-.1,0-.4,1.1-.6.8.2-.3-1-1.9-1.1-1.8-.1.6.4,1.4.6,1.9.1.2.5.4.5.8,0,.5-.2,1.2,0,1.7-.2,0-.4.1-.6,0-.6,0-4.2-2-5-2.4-2-1.1-3.7-2.4-5.5-3.7-.2-.1-.4-.2-.5-.3,0,.2,0,.4.1.5.2.4,2.2,1.9,2.7,2.2,2.2,1.4,4.7,2.7,7.1,3.7l1,.6-.7.8-9.2-3.6c-.1.1,2,1.2,2.2,1.2,2.2,1,4.7,1.7,7,2.7v.2c-3.7-.3-7.3-.4-10.8-.9-.7-.1-1.4-.4-2.2-.4.3.7,1.5,1,2.2,1.1,2.8.6,6,.7,8.8.8.2,0,.5,0,.4.1-.9.2-2.1.7-2.4,1.6-.9-.1-2.2-.7-3.1-.3,0,0-.7.8-.8.8-.7,1-1,2.1-1.6,3.1-1.8,0-2-.8-2.8,1.1-.3.7-1.2,3.5-.7,4.1.1.2.3,0,.4,0,.3.2.5.4,1,.6.2,0,.8.1.8.2.3.2-.2.4-.2.5-.6,1.1-1.4,1.7-2,2.9-.2.3-.1.7-.4,1-.2.3-.8.5-1,.7-.8.7-1.6,1.4-2.5,2-.4.3-2.8,2-3,2.3,0,.1,0,.8-.1.9-.2.3-.9,0-1.1.7,0,.3,0,.6-.2.8-.3.2-1.1-.1-1.2,0-.2,0-1.2,1.5-1.1,1.8l-.5.2v.4c0,0,1.3.4,1.5.4,5.6.5,11-1.2,16.6-1.1.3,0,1.4,1.4,1.8,1.7.5.4,1.1.7,1.6,1.1,0,0,.1.2.2.2.4.3,2.7,1.5,2.7,1.8,0,.4-.4,1.2.5,1.2.4,0,.4-.2.6-.4,0,1.1.6,1.1,1.4.5,0,1.3,1.1,1,1.6.3,1.9,1,4.6,1.6,6.7.9,2.2,4,5,7.8,8.1,11,.4.4,2.9,2.9,3.2,3,.9.2.2-2.3.1-2.8-.2-1.8.2-3.1.2-4.9,0-1.3,0-2.6,0-3.9,0-.8.4-1.5.4-2.3,0-.9-.2-1.8,0-2.7,0-.6.5-1.2.6-1.7.4-1.4-.7-2.6,0-3.9.2-.2.9.9,1.5,0,.6-.9.6-1.9.8-2.9-.2-.2-1,0-.9-.3.1-.5,1-1.7,1.2-2.3.2-.4.3-1,.4-1.4,1.3-.4,2.3-1.2,3.2-2.1.2-.2,0-.6.7-.6.3,0,2.6,2.6,2.9,3,1.8,2.3,3.8,5.2,4.9,7.9,1,2.4,1.1,4.5,2.7,6.7.6.8.6.6,1,1.5.4.7,1.9,3,2.5,3.7.2.3.5.5.7.8v-.5s-2.3-3.8-2.3-3.8l1.8-1,4.6,6.6-.3-.9-4-5.9,1.2-.8,3.8,4.9h.6c0,.1-3.7-5.3-3.7-5.3,0-.2,1.1-.9,1.3-1.1.3-.2,1.5-.9,1.8-.6.7,1.4,1.7,2.7,2.8,3.9.2.3,1.9,1.9,2,2,.2,0,.2,0,.2-.2-.1-.5-2-2.4-2.4-3-.7-1-1.4-2-2.1-3,.8-.4,1.8.9,2.3.9.7,0,.3-1.3,1.1-1.5,1.3,1.4,2.3,3,3.7,4.4.1.1.9.9,1.1.8l-4.4-5.7c1-.6,2.2-.8,3.3-1.2.6-.2,1-.6,1.7-.8,2.4-.7,3.1-.2,4.9,1.1l4.8,3.7c0-.3,0-.4-.1-.6-.3-1-.5-1.2-1.3-1.9-1.3-1.1-2.1-1.6-3.2-3-1.5-1.7-2.5-2.8-4.3-4.2-2.7-2-6.6-2.4-9.1-4.6-1.4-1.2-2-2.7-2.9-4.1-1.4-2-3.1-3.8-4.7-5.6,1.2,0,2.4,0,3.6,0,3.7.2,7.3.7,10.9,1.7,1.2.3,2.4.7,3.5,1.2,7.4,8.5,13.8,17.8,21.2,26.4.6.7,1.4,1.4,2,2.1.4.5,2.1,2.9,2.4,3,1.3.4-.4-1.9-.6-2.2-2.3-3.1-5.4-6.1-7.9-9.2-4.4-5.5-8.4-11.4-13.1-16.7-.9-1-2.1-1.9-2.8-3,.1-.1,2.8,1.1,3,1.2,2.1,1.4,5.2,5.7,7,7.7,5.5,6.3,10.8,12.8,15.5,19.7.1.2.4.4.5.5,0,.2-.2.5.1.6,5.3-2.3,11-4.4,16.5-6.1,5.4-1.6,10.9-2.9,16.3-4.5.8-.3,2.6-1.1,3.3-1.2.6,0,1,.7,1.5.7,0,.2-.2.2-.3.3-2.3,1.1-6,2.1-8.5,2.9-7.7,2.5-15.5,4.9-23.3,7.4-2,.6-4.8,1.1-6.6,1.9-.5.2-1.5.7-.8,1.3,1.8-.5,3.6-.9,5.4-1.5,8-2.4,16.1-5.2,24-7.8,3.9-1.3,7.6-2.8,11.5-4.1h.1c0-.8-.4-.4-.6-.5l-1.4-1.1c.6-.2,1.9-.6,2.3-1,.2-.2.2-.3.3-.5.2-.2.6-.2.4-.6-3.6-3.2-6.8-6.8-10.6-9.7-.4-.4.6-.2.9,0,1.4.7,2.7,2.1,3.9,3,4.3,3.4,7.8,5.8,13.1,2.4,1.2-.8,1.4-1.4,1.3-2.8,0-.8,0-1.4-.1-2.3-.1-1.7-.8-2.3-1.4-3.6-.5-1-.3-1.2-1.3-2-.7-.6-2.9-1.3-3-1.4-.1-.1-.5-1.1-.7-1.4-1-1.7-2.9-4.4-4.4-5.6-1.9-1.5-4.4-1.8-6.7-2.4.4-.4,1.2-2.3,1.4-2.5.1,0,.4,0,.6-.2.7-.5,1.4-1.3,2.1-1.8,6.3-4.7,13.6-7.4,19.8-12.3,5.6-4.4,10.1-9.5,12.9-16.1,2.2-5.1,1.7-10.8-1.4-15.5ZM157.6,46c0,.5-.3,1.4-.9,1.5,0-.5.4-.8.5-1.4.2-1.5-1.1-3-2-4.1,2-.3,2.6,2.5,2.4,3.9ZM150.4,41.7c.9-.2,1.9-.4,2.8,0,1.2.5,3,2.5,3.2,3.8.1,1-1.2,1.8-2,1.4-.6-.3-.4-.7-.5-1.1-.5-1.7-1.8-3.7-3.7-3.7,0-.2.2-.2.4-.2ZM146.7,43.5c1.7-1.4,4.2-1.2,5.4.6.3.4.9,1.5.8,2-.1.8-1.6,1.5-2.3.9-.2-.2-.2-.5-.3-.7,0-.1-.2-.2-.3-.2-1-1.2-2.6-2.2-4.1-1.2,0-.5.5-1.1.9-1.4ZM104.1,37.6c1.3-.8,3.1-1.2,4.4-2.1.7,1.4,1.9,2.5,2.7,3.7,1,1.4,1.7,2.8,2.5,4.3.2.3,1.1,1.5,1.1,1.7,0,.2-.4.5-.6.4-1.1-.8-2-1.8-3-2.6-.9-.7-7.3-4.6-7.4-5,0-.2.2-.3.3-.3ZM74,55.5c1.9-2.3,4.8-3.8,7.2-5.5,1.6-1.2,3.2-2.5,4.8-3.7,4.6-3.3,9.6-5.9,14.1-9.4.4,0,3.5,2.5,4.1,2.9,3.1,2.2,6.5,3.9,9.1,6.7-1,.4-2.3,1.6-3.3,1.9-.4.1-2.1.2-2.4,0,0,0-.4-.5-.7-.6-.9-.5-1.9-.8-2.8-1.4-2-1.2-4-2.8-6.1-4.1-.1,0-.2-.3-.2-.3-.2-.1-.6,0-.9,0v.5c2.9,1.4,4.9,3.9,7.7,5.3l2.1.7c-4.4.1-8.8.7-13.1,1.4v-.5c-1.2,1.3-1.6-.3-2.2-1.1-.8-1-2.3-2.2-3.6-1.5,0,.4,1,.5,1.3.6,1.1.4,2,2,2.9,2.7l-7.2,1.8c-.7.1-.9-.8-1.3-1-.7-.3-1.4.3-1.4,1,.5.2.6-.7.9-.6l.7,1-9.9,3.5c0-.2.1-.3.3-.4ZM58.2,16.8c.7-.2,2.8,0,3.4.6.7.7.2,1.2,1.5,1.9,2.1,1.1,4.5,2.5,6.8,3.3,1.1.4,2.4.5,3.4.9.7.2.5.6-.2.5-3.3-.1-6.4-2-9.1-3.6-.7-.4-2-.8-2.5-1.5-.2-.3-.2-.7-.4-1-.5-.8-2.5-.7-3.3-.5,0-.3,0-.5.4-.6ZM55.4,18.8c2.3,1.2,4,2.6,5.9,4.2,1.6,1.3,3.6,2,5.6,2.4v.5c-.3.3-1.7-.1-2.1-.2-3.4-.9-4.3-2.7-7-4.6-1.8-1.2-3.7-2.6-5.9-3v-.4c1.2,0,2.4.5,3.5,1.1ZM39.9,21.3c2.9-2.1,11.6,0,14.5,1.9.4.3.7.4.6.9l-4.7-1.8c-2.5-.7-7-1.5-9.3-.5-1.7.7-1.4,2.2-.4,3.4,2.5,3.3,10.7,5.1,14.3,3.3,2.4-1.2-.8-3.5-2-4.2-.1,0-1.8-.8-1.5-1,2,0,5.8,2.7,5.1,4.9-.3,1-2.3,1.6-3.3,1.7-4,.6-9.3-.4-12.4-3.1-1.6-1.4-3-4-.9-5.5ZM48.1,23.5c.3-1.1,2.2,1.1,2.5,1.3.2.2,2.3,1.5,1.9,1.9-.2.2-2-1.2-2.4-1.3l-2-1.9ZM50.1,26.5c-.2.2-1.5-.5-1.7-.7-.3-.2-.5-.7-.6-.8-.3-.2-1-.1-1.5-.4-.7-.4-.6-1.3-1.5-1.4-.4,0-.6.3-.9-.2.4-.5,1.4-.4,1.9-.1.5.3.4.9.8,1.1.4.3,1.1.1,1.6.4.4.2.4.7.7.9.4.4,1.3.5,1.4,1.1ZM32.3,22.8c1.4.4,7.1,4.4,8.4,5.5.2.2,1.1.9.3,1,0-.4-.6-.7-1-1-1.3-1-2.8-2-4.2-2.8-1.1-.7-2.9-1.5-3.9-2.3-.1-.1-.3-.2-.3-.4.2,0,.4,0,.6,0ZM29.1,23.9c.2-.3.3-.1.5,0,2.1,1.1,4.7,3.1,6.6,4.5.7.5,3,2,3.4,2.6.2.2.2.4.2.6-.2,0-.3,0-.5,0-.7-.3-2-1.3-2.6-1.8-2.1-1.4-4.5-3-6.5-4.6-.4-.3-1.2-.8-1.1-1.3ZM11.8,28.5l2.1-1.9c1.3,1.8,3,3.3,4.9,4.5,3.9,2.7,8.5,4.7,12.5,7.2.7.4,1.2,1.1,2,1.3,3.7-1.1,7.5-1.7,11.2-2.6,3.7-.9,7.4-2,11.1-3,5.6-1.4,11.5-2.6,16.9-4.2,1.4-.4,2.7-1.1,4.1-1.4.2,0,1.1-.3,1.2-.2,0,0,.6.4.8.5,0,0,0,.2.1.2l3.3,1.1c-.5.1-1.1.2-1.6.3-11.8,3.3-23.9,5.9-35.9,8.7-3.9.9-7.7,2.1-11.6,2.9-2.1-1.5-4.5-2.5-6.7-3.8-4.3-2.6-8.3-5.6-12.4-8.5-.6-.5-1.4-1-2.1-1.2ZM19.2,48.6l-7.1-3.9-.2-.7v-1.1c2.8,1.4,5.6,2.8,8.6,3.6l.2-.3-.6-.4-8.4-3.9-.4-3,6,3.3,4.5,2.2.2-.3c0-.3-4.5-2.8-5.2-3.1-1.8-1-3.7-1.9-5.6-2.9v-2.4c3.4,2.2,6.9,4.6,10.6,6.4.2,0,.5.2.6.3,0,0,.3.2.3,0,0,0-.2-.3-.3-.4-1.2-1.1-4-2.7-5.5-3.6-1.9-1.2-3.9-2.4-5.9-3.5v-2.4c.1,0,13.1,9,13.1,9,.7.2,1.4,1.1,2.1.8l-14.9-10.4v-.3c.6-.2,1.7-.1,1.7-.9,3.4,2.4,7,4.8,10.6,7.1,2.5,1.6,5.1,3,7.8,4.4-.4.4-.6.5-.5,1.1.6.1.2-.3.6-.5.4-.2,1.9-.2,2.4-.3,3.7-.7,7.6-1.9,11.3-2.8,10.8-2.5,21.7-4.9,32.4-7.7h.4c.2.8,1.1,1.3,1.8,1.6.3.1,1.6.3,1.6.5l-1.4,7.1c-1.4,0-2.8.6-4.2,1-12.3,3.2-25.9,4.1-37.8,8-.5.2-2,.6-2.2,1,0,.3.1.2.3.2,1.2-.2,2.8-.8,4.1-1.1,13.1-3,26.6-4.2,39.4-8.1,0,.5-.3,2.8-.6,3-2.3.6-4.6,1.4-7,2-9.9,2.2-19.2,3.6-29,6.6-.7.2-3.4,1.1-3.8,1.1-.6,0-1.4-.4-2.1-.5-1.4-.2-4.7-.5-5.7-1.4-.1-.1,0-.3-.2-.4-.2,0-.8-.1-.9-.3-.2-.2-.5-1.9-.8-2.3.7-1.1.5-2.7-.3-3.7-.4-.4-1.3-1.5-1.8-1.7-2.3-1.4-5.6-.2-7,1.9-.5.7-.8,1.7-1.3,2.5l-.2-.4ZM28.6,49.6c.4-1,.4-1.9.4-2.9.7.8.7,2.5-.4,2.9ZM28.1,48.2l-.9-1c-1.2-1-2.9-1.3-4.5-1.4,2.2-1.6,6.3-1.1,5.4,2.5ZM25,61.5c-2.9-3-5.1-5.7-5-10.2,0-1.9,1.2-4.1,2.6-5.3.1.7.7.5,1.2.7,1.7.5,4,1.3,3.5,3.6-1-.8-2-1.2-3.3-1.1-.8,0-2.2.2-2.3,1.2.1.2.2.1.4.1,1.4,0,3.4-.4,4.3.8.4.5.4.7,0,1.3-.3.6-1.7,1.1-1.1,1.8.5.6,1.7-.3,2-.8.7-.9.4-1.6.7-2.3.2-.5.8-.9,1.3-.8.6,1.6.7,3.4.2,5,0,.2-.7,1.1-.3,1.2.9.2,1.6-2.8,1.6-3.4.6.6,2.7,1,2.7,1.8,0,.3-.4,1.9,0,2,1.1.2.7-2.4.9-2.4.9.3,1.9.3,2.9.5,4.6,1,8.5,1.6,13.2,2,3.3.3,9.1,0,12,1.4.1,0,.2,0,.2.3-3.7.5-7.5,1.8-10.9,3.3-3.6,1.6-7.5,3.6-10.1,6.6-1-1.3-2-3-4-2.1-.3-.7-1.1-1.6-1.7-2.1-1.3-1.1-3.8-1-5,.1l-1.2,1.6c-1.6-1.5-3.3-3.1-4.8-4.7ZM31.1,84.1c-1.6-.6-6-.9-7.5-.3-1.6.6-2.3,1.8-3.4,2.9-1.7,1.7-3.7,3-5.6,4.5-.2,0-.2,0-.2-.2.2-.7.6-1.5.8-2.2.4-1.3,1.1-3.2-.7-3.6-1.3-.3-2,.6-3,1.1.6-2.3,2.1-4.7,2.5-7.1.2-1.2,0-2.7-1.1-3.3,0-.2.5-.2.7-.2,1.1,0,2.2,0,3.3,0,4-.2,9.8-1.4,13.5-.2.4.1,1,.3,1.3.6.8.7,1.8,2.5,2.6,3.5,1.1,1.3,2.5,2.4,3.7,3.6l-.5.4-.7-.2.2.9c-.7.8-1.4,1.7-1.7,2.8-1.2-1.2-2.6-2.2-4.2-2.8ZM43.8,89.2c.1.2.6,0,.7,0,.2,0,.2.4.4.4.2,0,.3-.1.5-.1.4,0,1.3,1.3,1.6,1.6l.5,1c-1.2-.5-2.9-.8-4.2-.4-.1,0,0,.2-.2.2-.7.1-1.8-1.7-2.4-2.1l2.5-.7c.2-.1.6-.2.6-.5.3,0,0,.5.1.6ZM56.4,98.5l-1.5-1.9,6.2-1.8c.2,1.3.5,2.5.5,3.8h-5.2ZM61.7,99.3v3.1c0,.1-.1.1-.3.1-.3,0-1.9-.4-2.1-.5,0,0-1.3-1.4-1.5-1.6,0,0,0-.7-.6-.8,0-.3.6-.3.8-.3,1.2,0,2.4.2,3.6,0ZM50,94.7l1.8-1.1h.2c.2.3.3.5.4.7.4.5.8,1,1.1,1.6l-3,.3c.2-.3-.5-1.3-.5-1.4ZM50.8,96.9c.5.1,3.1-.5,3.3-.3.1.1.2.5.4.7.2.4.4.7.7,1.1-1.5,0-2.9-.2-4.3-.5-.3-.1,0-.8,0-1ZM60.6,94.4l-6.3,1.3c0-.1,0-.2,0-.3-.5-.8-1.2-1.5-1.7-2.3,0-.3,1.8-1.6,1.7-2.2l-2.3,1.8c0-.5-.4-.6-.6-.9-.4-.6-.5-1.4-.9-2l9.2,2.2c0,.1.1.3.2.4.4.6.6,1.3.9,1.9l-.2.2ZM51.5,93.1l-1.7,1.2c0-.3-1.3-1.2-1.3-1.3-.4-1.1-.9-2.7-1.8-3.6-.3-.3-1-.8-1.5-.5.2-.8-.5-.6-.7-.8,0,0,0-.2,0-.3,0,0-.3,0-.2-.2,1.8,0,3.2,1.4,4.9,1.7.2.1,1.1,1.9,1.3,2.3.3.5.8,1,1.1,1.5ZM43,88.4c-.8.3-1.7.4-2.5.7-.1.3-.2.6-.6.4,0-.3.4-.3.6-.4.2-.5.2-.2.6-.4.2-.1.2-.3.3-.3.7-.4,1.5-.7,2.3-.8l-.8.8ZM42.8,86.8c-1.2.5-2.6,1.8-3.7,2.3-.2,0-.9,0-1.2,0-.9.1-1.6.5-2.5.8-.3-.2.4-1.5.5-1.8,1.1-1.9,3.8-1.5,5.4-2.5l2,1c0,.2-.4,0-.6.2ZM36.4,86.4l.4-.7,2.1-1.9,1.8,1.3c-1.4.4-3,.5-4.3,1.3ZM33.7,93.9c.5,0,.7-.2,1.1-.3l-.6-.6.5-.9h1.2s0,.6,0,.6c.4,0,.8-.2.8-.6l-1.3-.4.7-.8.4.6h.5c0,0,0-.6,0-.6h-.5c0-.2,0-.3.1-.4.2-.1,1.6-.6,1.8-.6.4,0,1.3.4,1.7.7.2.2,1.7,1.5,1.9,1.7,0,0,.2.1.1.3-.2.4-.6.7-.8,1.1-.1.2,0,.5,0,.5,0,0-.6.2-.9.3-.3.2-.6.8-.9,1.1,0-.3-.5-.8-.8-.7,0,0,0,.1,0,.2-.5.3-1.1.6-1,1.2,0,0,.5.5.5.5.3.1,1.1.6,1.4.7.8.4,1.8.5,2.6.9-.7,1.1,0,3.1-.4,4.1,0,.1-1.4,2-1.6,2.1-.7.6-2.7,0-3.3-.6,0-1.5,1-3.2.9-4.7,0-.3-.3-.5-.3-.8,0-.4.5-1.3-.3-1.3l-.3,1.1c-.5-.3-1.1-.6-1.6-.8-1-.4-2.6-.5-3.5-.9,0,0-.3-.2-.3-.3.9-.4,2-1.4,2.2-2.4ZM43,97.1l-.3.6c-1.5-.5-3-.9-4.3-1.8l.5-.3c.9,1.7,1.4-.3,2.4-.5-.4,1.5.1,2.5,1.8,2ZM30.5,95.4l1.9-1-1.3,1.8-1-.2c0-.4.2-.4.4-.7ZM26.3,96.6c.2-.3,0-.5.7-.5,1.6,0,3.5,1.1,5.1,1.5,0,.2-.3.1-.4,0-.7-.2-1.5-.5-2.3-.7-1.1-.2-2.7-.8-3.4.2-.2-.3.2-.5.3-.6ZM26.1,98.4c.5-.9.9-1.2,1.9-.8l-.9.7-1.9,2.1c.2-.7.5-1.4.9-2ZM25.8,101c0-.1.2-.2.3-.3.7-1.1,1.6-2.1,2.6-3l6.2,1.9c.2.5.5,2.6,0,2.7-.1,0-1.5-.6-2-.6-.6,0-1.5,0-2.1,0-.5,0-1.4.3-1.8.3-.3,0-2.3-1.5-2.4-.8,0,.4.8.9,1.1,1.1,2,1.3,4.6,2.1,6.9,1.1,0,.9-.6,1.4-.7,2.3-.3.3-2-.4-2.5-.5-1.5-.3-3.2-.5-4.6-1.1-.7-.3-1.3-.9-2.1-1.1.7-.5.8-1.4,1.2-2.1ZM32.9,102.8v-.4s.8.1.8.1c.1.4-.5.2-.8.3ZM31.3,102.6c0,.4-.8.1-.9-.1h.9ZM21.2,104.2c-.2-.2,0-1.8.2-2.1.2-.7.8-1.4.8-2.1.5,0,.9.3,1.4.3.4,0,.5-.2.8-.3-.1.9-.7,1.7-.8,2.5-.2,1.3.8,1.2,1.6,1.7,1.4.7,2.8,1.3,4.3,1.7.6.2,4,.9,4.4.7,0,0,.8-.6.8-.6.1-.2.5-2,.7-2.4.2-.5.5-1,.7-1.5.2-.8,0-2.9-.8-3.3l-1.9-.7c1.2,0,2.3.7,3.4,1.2.4,1.1-1.1,4.4-.5,5.1.6.8,2.6,1.5,3.6,1.2.1,0,.5-.3.7-.4.9-.7,1.6-2.3,2.5-2.8.4-.6.6-.9,1.5-.9,1.6,0,3.2.6,4.6,1.4,1.6.8,3.2,1.7,4.8,2.5.3.2.5-.1.7.7,0,.6-.8,2.9-1,3.7,0,.2-.3.4-.3.4,0,0,.1.7.2.7.2.3,1,.5,1.2.7.5.5-1,3.3-.9,4.1h-.3c-4.6-1.7-9.4-3.1-13.7-5.5-.3-.2.4-2-.6-2.7-.5-.4-2.9-1-3.5-.9-1,.3-.7.9-1.4,1.3-1.6-.4-3.2-1.1-4.8-1.6-1-.3-2-.4-3-.6-1.7-.5-3.5-1-5.2-1.4ZM55.6,119.1c0,.5.5,1.8.4,2.2-.1.4-.5.8-.6,1.2-.4,1.1,0,2.2,0,3.3-.1,1-.4,1.9-.5,2.9-.1,1.1.1,2.4,0,3.6,0,1.9-.6,3.9.1,5.8-.4,0-.2-.1-.3-.3-.8-1.3-1.5-2.7-2.2-4.1-.4-.8-1.9-3.8-2-4.4,0,0,0-.2,0-.2l2.3,2.2h.4c-1-1.3-2-2.5-3.3-3.2,0-.2,0-.3.2-.2.7.2,2,1.5,2.9,1.6.2,0,.2,0,.2-.2,0-.4-1.1-.7-1.5-.9-.1,0-.2-.2-.3-.3-.3-.2-1.7-.8-1.8-.9,0,0-.5-1.1,0-1,.5.2,1.4.9,1.9,1.2h.5c-.7-1.2-1.8-1.7-3-2.1l-.6-1.5c.1-.2.5,0,.6.2.6.4,1.6,1.4,2.3,1.1-.4-.5-.9-.9-1.4-1.2-.5-.3-1.7-.9-2-1.3-.3-.4-.2-1-.9-.9.3,1.7.9,3.3,1.5,5,.9,2.9,2,5.7,3.5,8.2l.5,1.3c-.8-.7-1.4-1.7-2.1-2.6-1.6-2-3.2-3.9-4.5-6.1-.3-.5-2-3.9-2.3-4-.1,0-.3,0-.4,0-.2.5.7,1.4,0,1.5-1.5.3-3.8-.8-5.3-1l.3-.8c-.2-.2-1.1.5-1.3.6-.1,0,0,.4-.5.2v-1.1c-.7-.2-.7.3-1,.5,0-.2,0-.5-.3-.5-.7-.3-1.2.5-1.1-.8h-.4c0,0-.3.4-.3.4-.2-.2-.5-.2-.7-.4-1.1-.7-2.7-1.7-3.7-2.5-.4-.3-.7-1-1.3-1.1.2-.3.8-.3,1.1-.4.1,0,.3-.4.4-.5,0-.3-1.7.3-1.8.3-3.3.5-7.2,0-10.6,1-.7-.2-4,.5-4.5.2,0,0-.2-.2-.1-.2,2.7-.5,5.5-1.4,8.1-2.3,1.3-.5,5.6-2,6.3-3,.3-.4.5-1.1.1-1.5-.3,0-.4.4-.5.5-.5.3-4.1-.7-4.4-.4,0,.3.3.3.6.4,1,.3,2.3.5,3.3.6-1.6,1.9-3.9-.1-5.9.3-.2.3,1.9.6,2,.7l1.4.5c-.6,0-1.1.4-1.6.5-.7.1-3.6-.6-3.9-.5-.2,0-.2.2-.2.3l2.9.8c-1,0-2,.2-3,.1-.6,0-1.5-.5-1.8.1.2.2,1.7.3,2,.4.2,0,.3.1.2.3l-7.8,2.1.7-.9c1,.1,1.8,0,1.8-1.3l1.1-.3c.3-.3.1-.8.2-1,.2-.4.8-.6,1.1-.8.9-.8,1.9-1.5,2.8-2.2.5-.4,2.5-1.8,2.8-2.2.3-.4.3-1.2.8-1.5-.4-.6.8-1,1.1-1.4.2-.2.7-1.6.9-1.6l6.7,1.7c.7.3,4.2,1.5,4.7,1.4.7-.3.9-1.2,1.1-1.3.3-.1,2.7.6,2.9,1,.2.7-.2,1.8.4,2.3.4.3,3,1.7,3.6,1.9,2.6,1.2,6.4,2.6,9.1,3.4.4.1,1.4.5,1.8.5.3,0,.6-.2.8-.2.2,0,1.3.6,1.5.8,0,0,.2.2.3.3,0,.4-.7,1.4-.7,1.8ZM57.7,116.9h-.2c-.7-.2-1.2-.8-1.8-1.1-.3-.1-.7-.1-.9-.3,0,0,0-.2,0-.3,0,0-.2,0-.3-.1-.1-.2.6-2,.8-2.1.2.5.5,1,.9,1.5.4.6,1.1,1.5,2,1.3l-.5,1.1ZM57.7,114.5c-.3-.4-1-1-1.3-1.4-.5-.7-.6-1-.8-1.7-.2-.8-.9-.6-1.4-1.2.3-1.3,2-4.3.8-5.5-1.6-.8-3.3-1.7-5.1-2.2-1.5-.9-4.9-2.4-6.7-1.7-.3.1-.5.4-.8.5.3-.8,0-2.3.3-2.9.2-.6,1-.9.8-1.7-.2-1.1-1.6-.4-1.7-.5,0-.5.2-1.3,0-1.8,0-.2-.3-.2-.3-.2,0,0,1.1-1.3,1.2-1.3,1.7-.9,3.9-.1,5.3,1.1.1.1.8.7.7.8l-1,.2-.5-.5-.2.6c.4.4.7.3,1,.4.2,0,.7.9.6-.3l.5-.3.5.9v.2c-.4,0-.5,0-.5.3l.8.3v.8c-1-.1-.7.3,0,.5,0,.2-.2.7,0,.9.5.2.3-.5.6-.6.7.1,1.4.3,2.1.4.8.1,2.2.1,2.9.3,0,0,1,.9,1.2,1,.2.1.5.1.6.3,0,0,.9,1.4.6,1.3-2.7-.9-5.5-1.5-8.2-2.5-.5-.2-.9-.7-1.5-.5-.1.7.7.9,1.2,1.2,2.8,1.2,6,1.8,8.9,2.5.3.1.6.7.8,1,.1.3.5,2.9.5,3.2.1,2.7-1.6,5.2-2.1,7.8ZM59.8,102.8l1.9.4c-.2,1.1-.3,2.4-1,3.3l-.4-2.7-.5-1ZM60.3,110c.2-.7.2-1.7.4-2.3.3-.7.9-1.5,1.2-2.3.2-.5.4-1.5.4-2.1h2c-.4,2.8-1.5,5.5-4,6.7ZM64.5,106.7c-.3,0,0-.3,0-.3,0-.7.6-1.6.7-2.4,0-.4-.3-2-.6-2h-.3c0,0,.1.8.1.8h-1.9v-3.5c.8-.2,2.1-.3,2.8-.7.8-.4.2-.6-.3-.5-.8,0-1.8.2-2.6.4,0-2.3-.6-4.7-2-6.5.7.1,3.5,0,3.8.2.3.2.9,1.4,1.1,1.8,1.5,2.7,1.1,3.7,1.2,6.7,0,1.8.5,3.1-.6,4.8-.1.2-1.1,1.2-1.2,1.2ZM78.6,104.9c2.1,2.7,3.1,5.7,6.2,7.5,1.7,1,3.4,1.5,5.3,2.3,2,.8,3.7,2.4,5.3,3.9-1.2.2-2.5.2-3.7.4-2.2.4-4.6,1.8-6,3.5-.3,0-.6-.3-.9-.4-1.4-.3-4.4,1.1-5.6,1.9-.5.4-2.7,2.7-3,2.5-.4-.6-.9-.9-1.3-1.5-1-1.5-1.1-3.2-1.6-4.9-1.5-5-4.4-9.2-7.9-13.1.8-.4,1.3-1.1,1.8-1.9.1-.2,0-.5.2-.8.1-.2.5-.3.5-.6,0-.3-.2-.8-.2-1.1-.1-2.1-.2-4.1-.5-6.1-.1-.7-.4-1.4-.6-2.1.9.8,2.1,1.1,3.1,1.7,2.2,1.2,7.2,6.7,8.9,8.8ZM114,112.7c-.6,0-3.6.7-3.8.4-.3-.4,1.1-1.1,1.4-.9l-.3.4c2.2-.4,4.4-.8,6.6-.3,1.1.2,2.1.9,3.1,1.2,2,.5,4.8-1.2,6.9-1.6.7-.1,1.6-.3,2.2.2,0,.3-1.2.2-1.4.2-2.5.4-5.2,2.6-7.7,2-.9-.2-1.8-.8-2.6-1.1-1.4-.4-2.8-.5-4.3-.4ZM119.8,118.1c-.5.2-3.4,1.7-3.6,1.5,0,0,0-.4,0-.5.3-.3,2.8-1.5,3.3-1.7,3.3-1.3,6-.2,9.4-1.7,3.7-1.6,6.5-4.1,10.8-3.6.4,0,.9.3.8.8-4.7-.8-8.6,3-12.7,4.3-2.7.8-5.1,0-8.1,1ZM137.8,123.2c-.6,0-1.1.4-1.6.6-3.3,1.4-6.8,2.4-10.2,3.2-.3.1-.2.3,0,.6-.1,0-.9-.4-.9-.4-.1-.5.7-.7,1-.8,1.7-.7,3.5-.9,5.3-1.5,1.9-.6,3.9-1.9,5.8-2.4.3,0,.6-.2,1-.1v.8ZM148,115.1c-.6.7-3.2,1.7-4.2,2-4.2,1.6-8.8,2.9-13.2,3.4-1.6.2-3.2.8-4.7,1.5-.8.3-2.4,1.4-3.1,1.5,0,0-.4,0-.4,0-.1-.2,0-.4.2-.5.6-.4,2.5-1.3,3.3-1.6,2.5-1.1,3.5-1.2,6.1-1.5,2.2-.3,5.5-1.5,7.7-2.2,2.7-.9,5.4-1.9,8-3,.5,0,.5.3.2.6ZM185.1,66.5c-3.1,4.9-10.6,11-15.6,13.9-5.8,3.3-10.1,5.3-15.1,9.8-.2.1-.6.2-.8.5-.4.4-1.6,2.7-2.1,2.7l-9.5-4.7c-3.2-1.4-6.8-2.7-10.4-3.1-.4,0-1.7-.1-1.3.6,0,.2,1.3.5,1.6.6,2.6.6,5,1,7.6,2,3.9,1.5,8.1,4.6,11.9,5.9,2,.7,4.2.8,6.2,1.8,2.6,1.3,4.1,4.5,6,6.5,0,.2,0,.2-.2.2-.6-.1-1.4-.2-1.9.1-.5.4-.4,1.4.2,1.3,0,0,0-.2.2-.3,1.7-.2,3.5.2,4.8,1.2,1.7,1.4-1,1.9-2.1,2.2v.6c.6.5,2.9-.5,3.4-1,1.3,2.2,1.7,4.4-1.3,5.1-.5.1-2.4,0-1.7,1,.5.8,3.7-.4,4.3-1,.6,1.5-1.1,2.3-2.2,2.8-3.9,1.8-6.1.4-9.3-1.9-2.6-1.9-4-4.1-7.5-4.6-2.5-.4-3.2.7-5.3.9-2.2.2-4.9-.9-7.2-1-3.1-.2-5.8.8-8.9.5-1.9-.2-4-1-6-1.3-3.8-.7-7.7-.9-11.5-1.2-4.4-.3-8.9,0-13-2.1-.4-.2-1.1-.9-1.1-.9-.2,0-.3.2-.6.2-.5,0-1.9-.8-2.5-1-3.3-1.1-6.9-2.1-10.4-2.4-1.9-.2-4.9-.4-6.8-.3-.5,0-1,.1-1.3.6-.9-1-1.8-2-2.8-2.9-.5-.5-1.4-1.4-2-1.8-.3-.2-6.3-2.9-5.9-3.2.5,0,.9.3,1.4.3.4,0,1.1,0,1-.5,0,0-.2-.2-.2-.3-.4-.2-2.2-.5-2.7-.6-12.2-1.5-23.3-4.1-31.2-14.3-2.4-3.1-4.1-5.5-3.2-9.7.2-1.1.8-1.8,1.8-2.4,1-.6,2.2-1,3.1-.1-2.5.3-3.8,1.9-3.5,4.5,0,.3.5,2.3.7,2.3.2,0,.3-.1.3-.3.2-1.3-.6-2.8.1-4.1.4-.7,1.2-1.4,2-1.5.7-.1,2.4.2,2.5,1.1,0,.1-.5.6-.6.9-.4.9-.6,2.8-.2,3.7.1.4.5.7.4,0,0-.5-.2-.9-.1-1.5.2-2.5,2.1-4.1,3.7-1.5.3.5.4.9.6,1.3.3.5.9,1,1.1,1.4.2.3.1.8.4,1.1.4.4,1.5.7,2,1,1,.6,2,1.8,3.1,2.2.5.2,3.7,1.1,4.1,1.1.7,0,1.1-.4,1.7-.5,4.9-1.4,9.5-2.1,14.5-2.6,2.4-.2,3.8-1.1,6.5-.7,4.8.6,6.4,2.9,6.9,7.6,0,.7-.6,3.3-.9,4-.4,1.1-1.1,2.2-1.6,3.3,0,.6.2.4.3.6.1.2,0,.7.6.7.6-.2.5-.8.7-1.3,1.3-3.5,3.3-7.4,1.9-11.3-.4-1.1-2.7-3.1-3.8-3.5-4.4-1.9-6.9-1-11.3-.4-4.7.6-9,1.1-13.6,2.4-.4.1-1,.4-1.4.5-.7.1-2.8-.4-3.5-.7-1.5-.5-2.5-1.7-3.8-2.5-.3-.2-.9-.3-1.1-.5-.1,0-1.7-2.3-1.7-2.4,0,0,0-.2,0-.2.6-.2,1-.9,1.4-1.3,4.3-3.7,12.1-6.6,17.7-7.9,2.8-.6,5.7-.7,8.3-1.4,8.3-2.1,15.8-6.4,24.3-7.5,1.3-.2,2.6-.3,3.9-.4,3.5-.2,7.1-.4,10.6-.6,2.4-.2,5-2.4,6.9-3.6,2.6-1.7,7.1-1.9,10-1.4,2.4.4,4,1.5,6.2,2.4,6.2,2.6,13.2,4.2,15.7,11.3.6,1.8,1,4,1.4,5.8l.6.2c.3-1.3.1-2.3-.2-3.5-.8-3.1-2.5-5.3-3.3-8.2-.6-2.2-.5-5.1.5-7.1.2-.4-.2-.6.7-.7,1.7-.2,3.5,1.8,2.7,3.5,0,.1-.5.7-.7.7-.5.2-2.3-.8-2,.4,1.6.8,3.5,0,3.6-1.9,1,.7,1.9,0,2.8-.6.8.8,1.7.6,2.7.2-.5,2.1.5,3.5,1,5.4,1.7,6.1,2.1,10.8,1.4,17.1-.2,1.6-.4,4.2-1,5.6,0,.2-.1.4-.3.5-.5.4-2.9,1.6-3.1,2-.4.7.9.3,1.2.2,2.1-.7,4.9-3,6.9-4.2,7.2-4.4,21-10.8,20.5-21-.2-3.3-1.6-4.8-4.8-5.5-2-.5-4.1,0-6.1-.5-3.2-.8-6.7-4.4-7.5-7.6-.6-2.7.4-6.9,1.9-9.2.4-.6,3.3-3.2,4-3.6,1.6-.9,3.6-1.2,5.1.2,1.6,1.5-.4,3.1-.7,4.7-2.9,3.7-3.5,7.8,2,9.1,1.7.4,3,.7,4.8,1.2.6.2,1,0,1.6.3,2.1.8,4.3,3.7,5.2,5.7,3.1,7.1.7,12.6-3.1,18.7Z"/>
    <path class="st0" d="M41.4,109.5c2,1.5,6.7,3.4,9.2,3.9.2,0,.8.1.9,0,0-.4.3-.4.4-.6.6-.9,1-1.8,1.4-2.8v-.7c0-1.1.7-2.7.1-3.7-.6-.9-2.4-1.4-3.4-1.8-1.4-.6-2.8-1.6-4.3-1.9-.2,0-1.9-.1-2-.1,0,0-.7.4-.8.4-.7,1.1-2.2,4.6-2.2,5.9,0,.6.3,1,.7,1.3ZM42.3,105.5c.2,1.7,1.6,3,2.9,4,.9.7,1.4.9,2.4,1.3.5.2,2.8,1.2,3.1,1.2.5,0,0-.9-.3-1.1-.5-.3-1.8-.6-2.1-.9-.1-.1-.8-1.3-1.1-1.6-.7-.7-1.8-1.6-2.7-2.1-.3-.2-1.2-.5-1.3-.6,0,0-.4-1.1-.4-1.3,0-.2.8-1.3,1-1.4.1,0,1.4-.3,1.5-.3,1,0,2.2.9,3,1.3,1,.4,3.5,1.2,4,2.1,0,0,.2,0,.2.1,0,.5-.2,2.9-.3,3.5-.2,1.1-.6,2-1.4,2.9-1.2-.6-2.7-.7-3.9-1.1-.3,0-1-.7-1.4-.9-1.5-.6-3.4-.7-4.3-2.3l1-2.9ZM44.1,107l.9.6c-.4,0-.8-.2-.9-.6Z"/>
    <path class="st0" d="M131.1,44.1c.2-1.1,0-2.4-.7-3.4l.5-.5c0-.2-1.2-.5-1.2.4,0,.9,1.4,2.5,1,3.6h.4Z"/>
    <path class="st0" d="M123.8,40.4c-.2,0-.2.2-.2.4,0,.5.4,1.9.5,2.4,0,.2,0,.4.3.5.4,0,0-2.2,0-2.5,0-.3-.3-.8-.7-.7Z"/>
    <path class="st0" d="M1.6,50.3c0,.2.6.8.8.6,0,0-.6-.8-.8-.6Z"/>
    <path class="st0" d="M69.5,38c2.9-.6,6.7-1.3,9.4-2.4.5-.2,1.9-.8.6-.9-15.6,4.3-32.1,5.3-47.2,11.3l-.2.5c3.2-.7,6.3-1.9,9.4-2.7,9.2-2.5,18.7-3.8,28-5.8Z"/>
    <path class="st0" d="M76.7,38.8c-1.7.1-4.4,1-6.3,1.4-10.8,2.1-23,3.3-33.3,7.1-.6.2-2.8,1-3.1,1.2-.2.1,0,.3,0,.5,2.7-.8,5.4-1.8,8.2-2.5,10.2-2.7,21.1-3.6,31.4-6.1.6-.2,3.3-.8,3.6-1.1.1-.1.1-.2.1-.4-.2,0-.3,0-.5,0Z"/>
    <path class="st0" d="M97.8,47.7l2.1,1.4c0-.9-1.1-1.7-1.8-2.1-1-.5-2.3-.8-3.2-1.5-.3-.3-.9-1.3-1-1.3-.1,0-.5-.1-.5.1.4,2,2.8,2.6,4.3,3.3Z"/>
    <path class="st0" d="M109.2,46.1c.4.2.7.7,1.1.8.2,0,.3,0,.3,0-.2-.9-4.5-3.1-4.9-2.7v.4c1.1.4,2.4,1,3.5,1.6Z"/>
    <path class="st0" d="M47.1,95.8c-.4,1.1.9,1.1.7,0h-.7Z"/>
    <path class="st0" d="M45.8,96.2c.1.2.7,0,.8-.2-.3-.6-1-.2-.8.2Z"/>
    <path class="st0" d="M46.8,97.7c0,.1.4,0,.4,0,.3-.5-.9-.8-.4,0Z"/>
    <path class="st0" d="M48.6,97.6h-.4c-.2.1-.1.5,0,.5.2.3.8,0,.5-.5Z"/>
    <path class="st0" d="M38.1,92.5c-.5,1.3,1.1.7.7.1,0,0-.6-.2-.7-.1Z"/>
    <path class="st0" d="M36.4,93.4c-.1,0-.5,0-.6.3v.5c.7.2.9-.5.6-.8Z"/>
    <polygon class="st0" points="38.3 91.3 37.7 91.1 37.5 91.8 37.9 91.8 38.3 91.3"/>
    <polygon class="st0" points="37.4 94.2 37.4 93.7 36.8 93.8 36.9 94.4 37.4 94.2"/>
    <path class="st0" d="M37.4,93c.4-.3-.3-.8-.5-.3-.1.4.3.4.5.3Z"/>
    <path class="st0" d="M52.8,114.9c.5.4,1-.1,1-.6-.1-.9-1.9,0-1,.6Z"/>
    <path class="st0" d="M22,102.9v.8c.7.4,1.4-.4.8-1-.2-.2-.6,0-.8.1Z"/>
    <path class="st0" d="M22.8,101.1c-.5.2-.5.4-.3.8h.7c.3-.4,0-.7-.4-.8Z"/>
    <path class="st0" d="M53.7,113.3c.4,0,.6-.6.3-.8-.5-.5-1.3.9-.3.8Z"/>
  </g>
  <g>
    <path class="st0" d="M134.1,27.8c-6.3,0-10.5-4.3-10.5-10.6S129.1.9,137.9.9s10.5,4.4,10.5,10.6-5.5,16.3-14.3,16.3ZM137.9,1.9c-8.2,0-13.3,7.9-13.3,15.3s3.8,9.6,9.5,9.6c8.2,0,13.3-7.9,13.3-15.3s-3.8-9.6-9.5-9.6ZM134.7,21.7c-2.5,0-4.1-1.9-4.1-4.9s2.4-9.8,6.7-9.8,4.1,1.8,4.1,4.9-2.4,9.8-6.7,9.8ZM137.3,8c-3.5,0-5.7,5.1-5.7,8.8s1.1,3.9,3.1,3.9c3.5,0,5.7-5.1,5.7-8.8s-1.1-3.9-3.1-3.9Z"/>
    <path class="st0" d="M157.6,27.3h-7.8l4.9-18.2-3.9.9-.2-6.6,8.4-2.2h5.7l-7,26.1ZM151.1,26.3h5.8l6.5-24.1h-4.3l-7.4,2v4.6c.1,0,4.5-1,4.5-1l-5,18.6Z"/>
  </g>
</svg>