<?xml version="1.0" encoding="UTF-8"?>
<svg id="Layer_1" xmlns="http://www.w3.org/2000/svg" version="1.1" viewBox="0 0 201.9 167.2">
  <!-- Generator: Adobe Illustrator 29.8.1, SVG Export Plug-In . SVG Version: 2.1.1 Build 2)  -->
  <defs>
    <style>
      .st0 {
        fill: #176a7b;
      }

      .st1 {
        fill: #f7da4d;
      }
    </style>
  </defs>
  <g>
    <path class="st0" d="M137.8,44.3c-6.3,0-10.5-4.3-10.5-10.6s5.5-16.3,14.3-16.3,10.5,4.4,10.5,10.6-5.5,16.3-14.3,16.3ZM141.6,18.5c-8.2,0-13.3,7.9-13.3,15.3s3.8,9.6,9.5,9.6c8.2,0,13.3-7.9,13.3-15.3s-3.8-9.6-9.5-9.6ZM138.4,38.3c-2.5,0-4.1-1.9-4.1-4.9s2.4-9.8,6.7-9.8,4.1,1.8,4.1,4.9-2.4,9.8-6.7,9.8ZM141,24.6c-3.5,0-5.7,5.1-5.7,8.8s1.1,3.9,3.1,3.9c3.5,0,5.7-5.1,5.7-8.8s-1.1-3.9-3.1-3.9Z"/>
    <path class="st0" d="M170.5,43.8h-20.8l1.7-6.1,12.8-8.4c2.3-1.6,2.7-2.5,2.7-3.3,0-1.3-1-1.5-1.9-1.5-1.5,0-3.3,1-5.3,3l-.4.4-4.7-4.9.3-.3c3.1-3.4,6.6-5,10.7-5s9.2,3.1,9.2,7.6-2,6.2-6.8,9.1l-4.6,2.9h8.9l-1.8,6.6ZM151,42.8h18.7l1.3-4.6h-11l7.5-4.8c5.2-3.2,6.3-5.6,6.3-8.3,0-4-3.2-6.6-8.2-6.6s-6.8,1.4-9.6,4.3l3.3,3.5c2-1.9,3.9-2.9,5.6-2.9s2.9,1,2.9,2.5-.9,2.6-3.1,4.1l-12.5,8.1-1.2,4.5Z"/>
  </g>
  <polygon class="st1" points="5.9 53.6 14.1 44 19.9 94.1 45.7 4.5 102.4 129.6 128.8 70.6 161.8 138.2 184.3 120.2 201.9 166.8 124.8 166.8 95.6 131 78.5 166.8 21.5 166.8 1.1 133.5 5.9 53.6"/>
  <g>
    <path class="st0" d="M168.3,58.3c-.2-.4-1.2-.5-1.6-.5-.2,0-.4.2-.6.2-12.1,2.2-23.9,6.6-35.9,9.4-1.7.6-2.8,3.8-3.5,5.4-3.5,8.7-7.7,16.7-11.5,25.2-2.9,6.6-5.6,13.2-8.6,19.8-1.7,3.6-3.5,7.3-4.9,11-1.3-.2-2.7,0-4.1-.1-.2,0-.5-.1-.7-.1-.6,0-1.9.3-2.4.2-.3,0-.8-.6-1.3-.5,0-.7,0-1.4-.1-2.1-.2-1.9-.6-3.8-.6-5.7-.2-2.8.6-7.2,1-10.1.7-5,2.1-9.9,2.9-14.9,1.1-7,4.6-13.8,5.1-21v-5.2c.1,0,1.4.8,1.4.8l.7,4.9c.3,0,.3-.2.3-.4.2-1.4-.3-3-.3-4.4.7-.2.9-.7,1.4-1.1l.7,4c.8-.2.3-1.9.2-2.5,0-.5-.6-3.8-.8-4-.1-.1-.3,0-.4-.2-.4-.8-1-3.8-1.1-4.8-.3-1.5-.8-5.5-.4-6.9,0-.3,1-1.2,1.2-1.7.5-.9.5-2.4,0-3.3-.1-.3-.6-.5-.6-.6,0-.1.3-1.5.3-1.8,0-.6,0-1.3,0-1.9h-.4s-.1-1.3-.1-1.3c.6.2,1.2.8,1.8,1,.2,0,.2,0,.2-.2-.1-.7-1.8-1.2-2.2-1.6,0,0-.8-1.5-.8-1.6.2-.2.7-.3,1-.3,2.6-.2,6.1,0,8.7.2,1.1.1,2.1.3,3.2.4,0-.2,0-.3-.2-.4-1-.6-5.8-.9-7.1-.9-1.8,0-3.6,0-5.4.2,0-.3,0-1.1.3-1.2l9.5-.9v-.2c-.7,0-1.6,0-2.4,0-2.1.1-4.3.6-6.4.8-.2,0-.6,0-.8,0l6.4-2.8,5.4-2c-.7-.4-1.7,0-2.5.1-2.9.8-5.6,2.1-8.3,3.3.8-.7,1.2-1.5,1.4-2.6.8-.3,2.1-.2,2.7-1,.7-1.1.2-3.2.4-4.5.1-.4,1.7-.3,1.9-1,.2-.6-.1-2.5-.3-3.2,0-.2-.5-1.6-.6-1.7-.3-.5-2.1-.3-2.6,0-.3,0,.5-2.3.5-2.6,0-.8,0-1.7,0-2.5.8-2.3,2.7-4.8,3.3-7,.2-.8-.4-.9,0-1.5.1-.1.3-.1.4-.4,0-.4-.3-.7-.2-1.1.2-.5.9-.3.9-.4.1-.1.4-1.3.4-1.5,0-.3-.2-.5,0-.7,0-.2.3-.2.3-.5,0-.4-1.5.1-1.8.3-3.9,1.6-6.8,4.2-10.3,6.4-1.1.7-2.3,1.2-3.3,1.9-.4.1-1.3-.4-1.8-.5-1.5-.3-3.6-.6-5-.7-.3,0-.6,0-.9.1,0-.9-.9-1.9-1.3-.5-.8-1-1.2,0-1.3.9-.3-.1-.3-.7-.7-.7l-.7,1.1c-2.3,0-4.7.4-6.7,1.7-3.6-2.4-7.5-4.6-11.6-6-1-.3-3.3-1.1-4.2-1.2-.4,0-.7.1-.6.6.1.3,1,1.3,1.3,1.7,1,1.5,1.4,2.9,2.1,4.5.5,1,1.1,1.9,1.5,2.9.4.9.6,1.9.9,2.8.3.8,1.1,1.6,1.3,2.4.2.6,0,1.3.2,1.9.3,1,1.9,1.8,1.7,3.2h-1c-.7,1.1,0,2.4.4,3.5.3,0,.6-.1.9-.3,0,1.4,0,2.9.2,4.3-.9.9-1.4,1.9-1.8,3-.3.9-.2.6-.6,1.3-1,1.8-1.2,2.6-1.2,4.6,0,.8-1,1.9-1.5,2.5-5.5,6.8-13.4,10.2-19.3,16.5-4.7,5-7.1,8.4-9.4,15-3,8.7-2.4,17.5-1.7,26.5.2,2.9.6,5.9.9,8.8l.2,4.6.9,8.4c-2.2.1-4.5-.3-6.7-.1-1,0-1.1.3-1.7,1.1-.8,1.1-1.8,3-2.3,4.2-.1.3-.3,1.1-.4,1.2,0,0-.9.3-1.1.4-.8.4-2.3,1.5-2.8,2.2-.3.4-.4.7-.8,1.1-.3.4,0,.4,0,.6,0,.7-.1.8.5,1.4-.3,0-.4.2-.5.4-1.1,1.5-1.8,3.8-2.7,5.4-.6,1.1-1.3,2.3-2,3.3-.1.2-.4.2-.5.4-.6,1-.4,3.1.2,4.1.1.2.4.4.5.5,0,.2-.3.4.5.4,1.3,0,2.7-.1,4-.1,8.5-.1,16.9,0,25.3.2,4.7.1,9.4,0,14,0,6.2,0,12.4.5,18.6.5,12.9,0,25.9-.1,38.8-.3,1.5,0,3.1-.1,4.7-.1.6,0,1.6.4,1.6-.6.8.4,1.7,1,2.5.2.7-.7,2-3.6,2.5-4.5,1.1-2.4,2.1-4.9,3.2-7.4,3.8-8.7,7.3-17.6,10.9-26.4,4.7-11.2,9.7-22.3,14.4-33.5,1.2-2.9,2.2-6,3.5-8.9,1.7-4,4.2-8.2,5.4-12.3.2-.6.6-1.8.3-2.3ZM95.6,130.6l-1.8-.6v-1.2c.2-.3,1.7,1.4,1.8,1.7ZM103.5,66.2c.2.7.8,2,.7,2.6,0,.2-.3.7-.6.5,0,0,0-.2-.1-.2,0,0-.3,0-.4,0-.9-.5-2.1-1.6-3.2-.7-.3.3-.3,1-.7,1.1-.2,0-1,0-1.2-.2-.2,0-.2-.5-.5-.4,0,0-.6.9-.9,1,0-3.6.8-7.1.2-10.7,2.1-.6,3.8-1.8,5.5-3.2-.2,3.5.3,7,1.3,10.3ZM102.7,37.1c-.2.6-.3,1.4-.2,2l-.8.7c-.1.3.7,0,.8.2v1.2c-.1,0-1.1.5-1.1.5-.4-1-1,.1-.7.3.4,0,.8,0,1.2-.1.1,0,.2-.2.2,0,0,.1-.2.8-.3.9-.4.3-.4-.3-.9-.2v.7c0,0,1.3-.4.1.8-1.6,1.6-3.3.7-5.2.2-.2-.3.2-.9.2-1.3,0-.2-.2-.4-.2-.6,0-.3,1.1-1.4.8-2,0,0,.7.5,1.1.3.2-.1.8-1.7,0-1.8-.6,0-1.4-.2-1.9-.1-.5,0-2.4.3-2.8.4-.3.1-.5.6-.2.8.4-.3.7-.2,1.2-.2,1.2-.2,2-.3,3.2-.3.1,0,.4,0,.5,0l-.2.5c-1.7-.9-1.2.9-2,1.6-.4-.8-.3-1.8-1.5-1.6-1,.2-1.1,1.2-.3.9.2,0,.4-.3.6-.3.2.7.4,1.6,1.2,1.9-.5,1-.4,1.8-1.4,2.4-1.6,1.1-3.3,1-5.1.5l.8-1,.5.3v-.6c-.3,0-.5-.2-.8,0-.4.1-.2.4-.8,0l-.2.3c.2.2.2.6,0,.7-.1.1-.9-.5-1.1-.7l.4-.5c-.8,0-1,0-1.3-.7,0,0,.7-.2.5-.5-1,.2-.6-.2-1.1-.8-.4.2-.1.7-.3.8l-4.7,1.6c-1.1-.2-2.3,0-3.2-.8-.1,0-.2-.1-.2-.3,2.4-.5,4.7-1.1,7.1-1.4.5,0,2.2,0,2.5-.3.3-.3,0-.5-.3-.6-1.1-.3-5.5.7-6.9,1-.9.2-2.3.8-3.1.8-.4,0-1.2-.6-1.4-.9-.3-.4-.9-1.2-1.2-1.6-1.6-2.5-1.6-5.4-2-8.3.2,0,.3,0,.4,0,.3.1,2.3,1,2.4,1.1,0,0,.1.3.2.5.5.6,1.1.3,1.7.4.1,1.2.3,4.9,1.7,5.2,1.3,0,2.5,0,3.8,0,1.5,0,3.7-.1,5.1-.4,1.6-.3,3.2-.8,3.7-2.4.3-.9.3-3.1.8-3.8.3-.5,2.8-1,3-.7.3.9.9,4.5,1.7,4.8.3.1,2,0,2.4,0,.5,0,3.7-.9,3.9-.8-.1.4-.5.7-.6,1.2ZM76.5,43.6c.3,0,1.6.6,2,.8,0,0,0,.2.2.2l1.1.4-4.1,2-1.5-2.7c0-.2,2.1-.7,2.3-.7ZM73.8,43.6c-.4-1-.6-2.1-.7-3.3,1,.9,1.4,2.1,2.5,2.8l-1.8.4ZM80.6,45.3c.3,0,2.3,1,2.3,1.1l-4.6,4.2c-.2,0-2.2-2.7-2.1-3l4.4-2.3ZM81.8,44.9c0-.1.8-.5,1-.5,1-.4,2-.7,3-1,.3,0,.4.6.6.9l-2.8,1.7-1.8-1.1ZM84.5,46.3l2.4-1.4,1,.9-1,1.9-2.5-1.2v-.2ZM88.3,46.1c.4.3,1.4.4,1.7.6,0,0,.2.4.4.5.9.7,2.7,2,3.9,1.8.1,0,.3-.2.3-.2.1,0,.4.3.6.4.3,0,.7-.1,1,.2-.2.4-2.2,1.3-2.7,1.3-1.8.3-2.4-.7-3.7-1.5-.8-.5-1.7-.9-2.5-1.4l1-1.8ZM96.1,48.2c-.6-1-1-.1-1-.1,0,0-.2-.2-.4-.2-.2,0-.3.3-.5.3-.5,0-1.7-.6-2.2-.9l-.8-.6c1.1,0,2.8-.5,3.6-1.2.2-.2.6-.9.8-.8l2.6,1c-.5.4-.9,1-1.4,1.5-.2.3-.7.4-.7,1ZM98.7,45.9h.4c-.9,1.1-1.4,2.6-2.7,3.4.2-1.6,2-1.9,2.3-3.4ZM104.5,36.7l-1.3,2c.2-.9.5-1.9.5-2.8h1.2c0-.1-.4.8-.4.8ZM107.3,34.3c-.6.3-2.3.6-3,.7-.8.1-1.6.2-2.4.2l5-1.3.6-.4.4-.8c0,.5,0,1.3-.5,1.6ZM97.2,28.7c.4-.4,3.3-.9,4-1l-1.6.7-.7.5-1.4,1.8c.2-.5-.6-1.7-.3-2ZM101,28.8l1.4-.5c.5,1.7.2,3.6-1.6,4.2.8-1.1.8-2.5.2-3.7ZM99.8,30.4c0,0-.2-.3-.2-.4,0,0,.1,0,.2,0,0,0-.1-.4.2-.5.3,0,.3,1.2-.2.9ZM100,32.6c-1.5,0-2.2,0-1.3-1.6,0-.1,0-.2.2-.1,0,.5.4,1.1.7,1.4.1.2.4.1.4.3ZM98.3,33.1c1.2.5,2.6.6,3.7-.3,1.5-1.3,1.7-3.1,1-4.8.3-.1,1.5-.3,1.6-.4.1,0,.1-.2.1-.3h-.2c0,0,.1-.2.2-.2h1.7c-.1,1.3,0,2.5-.4,3.8-.2.9-.6,1.8-.8,2.7-.5.3-1.1.3-1.7.4-1.1.2-3.4.8-4.4.8-.2,0-.3,0-.4-.1-.2-.2-1.1-1.6-.5-1.5ZM107.1,29.8c0,1.2.6,3.5-1.2,3.6.7-1.1.8-2.2,1-3.4,0-.2,0-.2.2-.2ZM108.8,24.6c.4,0,.7,1.2.7,1.6.2.9.1,1.7.3,2.6-.5.1-1.4.2-1.7.7-.1.2,0,.5-.2.6-.2-.9-.1-2.1-.4-3-.2-.5-.3-.7-.8-.8-2.7,0-5.5.3-8.1,1.2-1,.3-2,.5-2.3,1.6l.6,4.2c.2.6.9,1.8,1.4,2.2.7.4,1.3,0,2.1,0,.1,0,.4-.1.4,0-1.1.3-2.2.5-3.4.3-.7-.9-.8-3.8-1.5-4.5-.6-.7-3.2-.3-3.9.4-.9,1-.9,3.6-1.4,4.9-.1.3-.6.7-.9.8-2.4,1.1-3.8.7-6.2.7-1.1,0-2.3,0-3.5.1-.4,0-.7.3-1-.2-.7-.9-.7-3.3-1-4.5-.2-.6-1.7-.3-1.9-.6-.5-1.1-.3-2.5-.8-3.6,0-.2-.1-.2-.3-.3,0,0,1.6-.3,1.8-.4,2.9-.4,6.3-.9,9.2-1.1,1,0,2.8-.1,3.7,0,.5,0,.6.9.9,1.3.3.4.6.6,1,.7.6,0,2.9-.4,3.3-.7.6-.4.6-1.1.6-1.8,1.8-.4,3.7-.5,5.6-.9,1.1-.2,2.1-.6,3.2-.9,1.5-.3,3-.6,4.5-.9ZM70.7,25.2c-.1-.5,0-1.1-.1-1.6-.2-.9-1-1.6-1.3-2.5-.4-.9-.5-2-1-3-.5-1.1-1.2-2.2-1.7-3.4-.8-1.7-1.2-3.5-2.6-4.8l2.6,1.6,5.4,4.2c-.9,0-2.3-.8-3.1-.8-.1,0-.4,0-.4.2,0,.5,3.9,1.2,4.5,1.5-1,.1-2.3-.2-3.3,0-.2,0-.3.1-.3.3.7.1,1.5.2,2.2.2,1,0,2-.3,2.6.8-.7.2-1.9-.2-2.6-.1-.7.1.1.5.4.6.9.3,1.8.2,2.7,0l1.3,1.1c-.9.2-1.9-.3-2.8-.2-.2,0-.4,0-.4.3.6.2,1.2.3,1.8.4,1.2.2,2.2,0,3.1.9l.2-.2c-.2-.2-.3-.7-.5-.8-1.6-1.8-4.2-4.3-6.1-5.8-1.7-1.4-3.5-2.6-5.3-3.9,2.9,1.1,5.9,2.3,8.6,3.9,1.5.8,2.9,1.9,4.4,2.8.3.2,1.6,1.1,1.6.4l-1.1-1.1c1.8-.7,3.7-1.2,5.6-1.5,0,0-.3.6.2.7l.9-1.7c.2.1.2.5.4.7.4.4.6,0,.8-.4.1.4.6.4.9.2.3-.2.2-.5.5-.6,0,.3.3.9.6.9.4,0,.2-.4.3-.7,1.2.2,2.5.3,3.8.4,1,.2,2,.5,3,.6-.3.5-1,.7-.9,1.4.2.2,1.2-.9,1.5-1.1,1.2-.9,2.7-1.5,4-2.2,2.9-1.8,5.5-4.2,8.7-5.6-1.9,1.8-3.9,3.6-5.8,5.6-.9,1-3.9,4.2-4.2,5.3-.2.6-.2,1.5.5,1.7l.3-.9c.6-.4,3.6-1.1,3.8-1.4,0,0,0-.1,0-.2-1.3.1-2.6.5-3.8,1,.5-1.8,2.3-1.8,3.8-2.3.1,0,1.5-.4,1.2-.7l-3.3.6c.4-.3.7-.8,1-1.1.6-.4,3.5-1.1,3.7-1.4,0,0,0-.1,0-.2l-2.9.6c.2-.5.4-.3.7-.5,1.1-.6,2.1-1.1,3.2-1.6v-.3c-.7,0-1.5.4-2.2.7-.1,0,0-.3.1-.3.6-.8,2.2-2.2,3-3,.9-.8,1.9-1.6,2.8-2.3,0,0-.2,1-.3,1.1-.2.2-1,.3-1.1.8-.1.5.2,1,.2,1.2,0,.2-.7.4-.7.8,0,.5.3.7.2,1.2-.5,1.3-1.3,2.4-1.8,3.6-.3.7-1.4,3-1.6,3.5,0,.1,0,1.7,0,1.8,0,0,.3,0,.2.2-.5,1.1-.7,2-.5,3.2-1.9.2-3.7.9-5.5,1.3-1,.2-5.4.7-5.9,1.2-.7.7.2,1.5-.8,1.9-.4.1-2,.3-2.3.2-.6-.2-.7-1.7-1.7-1.9-.8-.2-3,0-3.9,0-3,.1-7.4.6-10.3,1.2-.7.1-1.3.4-1.8.9l-1.9-.2c-.1,0-.1-1.5-.2-1.8-.1-.5-1.2-1.3-1.3-1.8ZM71.8,30.7c-.2,0-.4.2-.6.2v-1.2c.6-.1,1.3.1,1.9.1.3,0,1-.2,1.2,0,0,0,0,.2,0,.2h.4c0-.1.2,2.2.2,2.2-.7-.4-2.4-1.5-3.2-1.4ZM72,37l.7,2.2c-.2,1.6,0,3.1.5,4.7l-1.7.7c-.9-2.5-1.1-5.2.5-7.5ZM68.8,46.3c.3.9,1.6,3.7,2.5,4,.2,0,.4.1.5-.1-.5-1.6-1.7-3-2.3-4.5-.7-1.7-.3-2.9.3-4.5l.2,1.9c0,.6,1,2.7,1.6,2.9.7.2,0-.8,0-.9l1.7-.7,1.4,2.8c0,0,0,.2,0,.2,0,.1-1.2.9-1.4,1.1-.3.3-.9.7-.8,1.2.3.3,2.4-1.6,2.8-1.7,1.3,2.7,3.9,4.5,6.5,5.9.4.2,3.1,1.5,3.3,1.4,0-.2-.1-.3-.2-.3-.5-.3-1.3-.6-1.9-.9-1.5-.9-3.1-1.8-4.4-3l4.8-4,3,1.4c-.3.7-.6,1.5-.7,2.3,0,.2-.2.2,0,.4l1.1-2.5c1.8.5,3.2,2.8,5.1,3,2.2.3,4.9-1.4,6.2-3.1.5-.6,1.1-2.3,1.5-2.7.1-.1.4-.1.6-.3.6-.4,1.1-.8,1.6-1.3.1-.2.2-.4.3-.5.6-.6.7.8.7,1.2,0,2.6-2.9,3.7-4.3,5.5-.1.1-.3.5,0,.5.3,0,4.7-3.2,4.7-4,.2,0,0,.2,0,.3-.3,2.1-1,3.2-2.6,4.6-1.8,1.6-4,2.9-6.5,3.2-.2.4.2.5.5.4,2.1,0,4.4-1,6.1-2.3,1-.8,2.2-1.9,2.6-3.1l.2.8c.3,1.8-1.5,3.5-2.7,4.6-3.6,3.1-6,3-10.5,3.2-1.6,0-3,.4-4.6,0-2.6-.5-4.7-1.9-7.1-2.9-2.6-1.1-5.6-1.4-7.6-3.6-1.2-1.3-2.6-3.2-2.7-5v-.9ZM72.7,58.9c-.5-1.9-1.3-3.8-1.7-5.7,2.6,2.6,6.5,2.6,9.5,4.5.3,1.2.9,2.3,1.3,3.5.6,2.2,1,4.6,1.4,6.8.2,1.2.6,2.5.8,3.7-.8-.4-1.7-.2-2.5-.4-.7-.1-1.4-.6-2.2-.5-1.3.1-1.4,1.4-2.1,2.2h-.1c-1.4-1.3-2.9-.8-4.3.1-.2-1.8-.3-3.7-.2-5.5.2-3.3,1-5.3.2-8.7ZM37,89.4c.6-11,5.4-20.3,13.7-27.3,2.6-2.2,5.8-3.8,8.4-6,1.4-1.2,3-3.2,4.3-4.2.5-.4,1.1-.7,1.7-1.1,1-.9,2-2.3,2.8-3.4.4.2.2.7.2,1.1.2.9.7,1.8,1.2,2.5.2.4,1.1,1.4,1.2,1.7,0,.2-.1.6,0,.8.1,2.1,1.4,4.6,1.7,6.7.4,2.6-.5,5.3-.6,7.9,0,1.7.1,3.2.2,4.9.1,2.7.1,5.3.5,8h.3s-.3-5.9-.3-5.9c.5,0,.3-.4.5-.7.3-.6,1.1-1,1.6-1.4,0,1.7-.3,3.7.2,5.4,0,.3.2.8.6.6l-.2-6.1c.8-.2,1.4.5,1.9.9,0,1.3,0,2.7.1,4,0,.3.2,1.6.6,1.7.4,0,.1-.5,0-.8-.1-1-.4-4.1-.2-4.9,0,0,.3-.2.4-.3.4-.6.6-1.7,1.5-1.7,0,.4,0,.7.2,1.1.1.6.9,3.7,1.3,3.9.3.1.2-.4.1-.5-.2-1.4-.7-3-1-4.4l1.7.5c0,.1,0,.2,0,.3.2,1.1.6,2.3.9,3.4.1.4.7,2.5,1,2.6.4,0,.3-.6.2-.9-.2-1.7-1-3.7-1.4-5.4l2.2.4c.1.8.3,1.7.5,2.5,0,.1.3,1.1.6.9,0-.2.1-.3.1-.5,0-.8-.6-2.2-.7-3.1-.7-3.6-1.3-7.4-2.2-11-.3-1.3-.9-2.3-1.5-3.5,2.2,1,4.4,1.9,6.9,1.7,1.1,0,2.3-.3,3.5-.3,1.5,0,3,.2,4.4-.3,0,.8.1,1.6.1,2.4,0,2.9-.8,5.9-.9,8.9,0,2.6.2,6.1.7,8.7,0,.2,0,.9.4.8.2,0,0-.3,0-.4,0-.7,0-1.5-.1-2.3,0-.5-.4-2.4-.3-2.7,0-.1.2-.1.3-.2.3-.4.2-1.3.2-1.8,0-.6.3-1.2.4-1.8l.5,3.4c.1.4.6.5.5,0,0-.2-.2-.5-.2-.6v-3.5l1.6.2c.3,1,0,2.5.6,3.4,0,.1,0,.3.3.2l-.3-3.7c.3-.5.5-1.2,1.2-1,0,1.3-.2,2.6-.3,3.9-.4,4.4-1.5,8.7-2.6,13-.9,3.3-2.1,6.4-2.7,9.8-1.2,7.2-3,14.1-3.7,21.5-.4,3.6.6,8.4,1,12.1,0,.6-.3.9.5,1.3,1.4.7,3.3.7,4,2.5.5,1.4,0,3.5-1.2,4.4h-.2c0-.1,0-.3-.2-.3-.5-.2-1.7.5-2.3.4-.1-.1.3-1.7.3-2,0-1.1-1.1-2.5-1.9-3.2,0,0,0-.2-.3-.1-.6.2.6,1.4.8,1.7.2.4.6.9.6,1.4,0,.3-.5,2.4-.6,2.6-.1.2-.5.3-.7.5.2-.3.2-1.1-.3-1.2-.2,0-.5.3-.8.4-.5.1-2,0-2.5-.2-2.1-.6-2.4-2.2-3.3-3.9-.4-.7-1.2-1-1.3-2-.2-1.5.4-3.8.4-5.4,0-1.3-.3-2.9-.2-4,0-.6.5-1.3.6-1.9.4-2.2-.7-5.5-.9-7.9,0-1,0-2.1-.1-3.1-.1-1.7-.9-3.5-.7-5.2.2-1.7,2.1-4.6,3.3-5.8,2.1-2.2,5.2-4.4,6.6-7.1.4-.7.5-1.6.8-2.3.2-.5.9-1.5.8-1.9h-.2c-.4.5-.8,1-1.1,1.6-.4.7-.6,1.5-1,2.2-1.6,3-5.4,5.4-7.6,8-.5.5-1,1.2-1.1,2l-.4-.2c-.6.4-.3,1-.6,1.6-.2.4-.7.9-1,1.3-1,1.6-1,2.4-1.5,4.1-.4,1.5-1.1,2.7-2,3.9,0-2.4-.1-4.8,0-7.2,0-.7,0-1.7,0-2.4,0-1,1.4-2.4,1-3.9,0-.3-.3-.5-.4-.7-.1-.7,1.2-3.8,1.5-4.7.1-.5.8-2.5,0-2.4-.3,0-.4.4-.5.6-.8,1.7-1,4-1.8,5.8-.2,1.2.5,1.4.5,1.9,0,1.1-1,2.4-1.1,3.3,0,.5.1,1.3.1,2-.1,3.5-.2,7-.3,10.5-.1,2.4.4,2.9,1,5,.9,3.5-.1,7.6.7,11,.2.7.7,1.4,1.3,1.9.4.3.7.3,1.1.7.6.6,1.1,1.9,1.1,2.7l-.5,1.7c0-.5,0-1.1,0-1.6-.1-1-.5-2.1-1.1-2.9-.3-.3-2.1-1.7-2.2-.9.2.5.9.7,1.3,1,1.6,1.3,1.1,3.8,1.1,5.6-.2.5-2.8,1-1.2,1.7l2,5c-.5-.1-1.7.2-2,0-.1,0-.7-1.1-.6-1.2h1.3c0-.1,0-.4,0-.4-.1-.1-2.8-.1-3.2-.1-.3,0-1.9.3-2,.2l-.6-1.9c1.7-.2,3.6,0,5.3-.4.3-.4-.6-.5-1-.5-1,0-2.8,0-3.8.2-.3,0-.5.1-.8.2l-.4-.8c0-.2,0-.1.2-.1.6-.2.7.2,1.2.2,1.1.1,2.9-.3,3.8-1,.3-.2.4-.6.5-.9.3-1.5,0-5.1-1.4-6-.6-.4-1.4-.5-2-.2-1.1.5.9.6,1.1.6,1.6.4,1.8,4.4,1.3,5.6-.3.8-2.8,1.5-3.6,1.1,1.1-1.9.9-4.3-.5-6-.3.2,0,.2,0,.4,0,1.6.9,2.6.2,4.4-.2.4-.3.9-.8.8-3.8-.1-4-3.6-4.1-6.6,0-.6.2-1.1.1-1.7-.1-1.1-.7-2.3-.9-3.5-.2-2.5,0-4.9-.5-7.5-.6-4.1-1.8-8.1-2.7-12.1-.7-3.2-.9-6.8-2.4-9.7-1.4-2.9-4.4-4.9-4.2-8.4-.8.2-.5,1.7-.4,2.3.5,1.9,1.6,3,2.6,4.5,2.2,3.5,2.4,7.1,3.3,11,1.1,4.9,2.9,10.6,3.1,15.6.1,2.1-.2,4.2.4,6.3-1-.5-2.3-.4-3.4-.6-2-.3-4-.7-6-1-1.5-.2-3.7-.9-5.1-1-.6,0-.7.3,0,.6,2.4.9,5.8,1.2,8.3,1.6.9.2,1.8.5,2.8.6.8.1,3.3.2,3.8.6.3.3.2,1.3.2,1.7,0,1.5,0,3.1.3,4.4-.1,0-.2,0-.3.1-.1,0-.4,0-.6-.2,0-.6-.4-1.5-.6-2-.3-.6-1.5-3.2-1.9-3.6-.3-.3-2.2-1-1.9-.1.7.5,1.3.4,1.7,1.2.5.9,1.6,3.6,1.7,4.5,0,0,0,.2,0,.2h-.3c0,0-.1.3-.1.3l.4,1.3c-.3-.2-.7-.3-1.1-.4,0,0,0-.2-.1-.2-.3,0-.8.1-1.2.1-.2,0-1-.1-1-.3.4-.5,0-1.8,0-2.4-.4-1.6-1.8-3.1-3.5-3v.3c1.2.7,2,.9,2.4,2.5.1.4.4,1.8.4,2.1,0,0,0,.2-.1.2-.6.2-1.1.5-1.8.4-.2,0-1.2-.4-1.2-.6,0-.3.4-.4-.4-.7-3.2-.7-6.4-2.2-9.7-2.6-.6,0-3.4,0-3.6-.3v-.3c-.2,0-.5-.1-.8-.2-.8,0-1.2-.2-2-.3-.8-.2-1.2,0-1.9-.6-1.3-1.3-1.4-2.9-1.5-4.6-.3-3.4-.5-6.8-.8-10.1-.8-9.1-1.9-18.4-1.4-27.5ZM87.7,144c-.6,0-1.8,0-2.5,0-1.2,0-2.4.3-3.6.3l-.9-2c0-.2.3,0,.3,0h5.4c.2,0,.3-.4,0-.6-.2,0-1.2-.2-1.4-.2-1.1,0-2.6,0-3.8.1-.2,0-.4,0-.6.1l-.9-1.9c0-.2.3,0,.3,0h4.9c0,0,.3-.3.3-.4-.1-.2-.3-.2-.5-.3-1.2-.2-2.7.2-4,.1.1-.2.2-.4.4-.5,0-.1.3,0,.3-.1,0,0,.8-1.1.8-1.2.5-1.2.5-2.4.1-3.5.2,0,.4-.1.6-.4.2-.2.3-.4.4-.6.2.3.5.5.7.7.5.8.8,1.9,1.4,2.8,1.3,1.8,3.5,2.3,5.6,2.1-.3,2.5,1.6.3,2,.5l3.9,5.4-7.1.3-.5-.9h5.9c0-.1.5-.4.5-.4-.2-.3-.3-.3-.6-.3-1.2-.1-3.3,0-4.6,0-.5,0-1,.2-1.5.2l-1.1-1.7,6.1-.2c.7-.3,0-.5-.4-.5-1.2-.1-2.4,0-3.6.1-.9,0-1.7-.1-2.6.2l-.8-1.4,4.1-.2v-.4c-1.4-.6-3,0-4.5-.1l-1.5-2.5c0,0-.2.2-.2.3,0,.3,2,4.3,2.3,4.9.5.8,2.2,3.9,2.7,4.4.8.7.9-.2.5-.8l6.4-.2.7-.3,1.6,2.3h-15.8c0-.1-1-2.4-1-2.4,1.2,0,2.4-.2,3.5-.2.7,0,1.9.1,2.5-.1.5-.2.2-.5-.2-.5ZM71.9,142.2c-1.9-.2-3.8.1-5.7.1-.1-1.5-.7-2.8-1.2-4.1.4-.3,2.2,1.8,2.2.2,0-.7-.5-1-.1-1.7l.8.6c.3.2.6.2.8.1.3.7.8,1.4,1.5,1.9.2.1.4.1.5.3l-4.6-.2c-.3,0-.5.2-.3.4.1.2,2.3.4,2.7.4,1,0,2-.1,2.9.1v-.5c0,0,.9.2.9.2.7,1.7,1.1,3.6,1.8,5.3.1.2,1,2.6,1.5,1.9.4-.6-1-2.4-1-3h2.9c.2.4.7,1.8,1.2,1.9.5.1,2.1-.4,2.5-.2l.6,1.3-14.2.5-1.3-4.9c.7.2,1.4,0,2.1.1.3,0,.5.1.8.1.6,0,3.3,0,3.6-.2.6-.4-.5-.6-.8-.6ZM77.5,112.5c.2,0,.3,0,.5,0,.6-.2,2.2-3.7,2.4-4.5.4-1.2.4-2.4,1.2-3.5.1,1.5.6,3,.8,4.5.2,1.5,0,3,.2,4.5.3,2.1,1.4,4.7.9,6.7-.1.7-.6,1.3-.6,2,0,.9.1,2,.2,3.1,0,.3,0,.6,0,.8,0,0-.2.6-1.6.2-.3,0-2.4-.7-2.7-.8,0,0-.1,0-.2,0,0-1.7.1-3.5,0-5.1-.2-1.5-1.1-3.2-1.2-4.5-.1-1.2.1-2.4.1-3.5ZM78.7,126.3l4.4,1.4c-.2,1.5-.4,3.3-.3,4.4-.2.7-.5,1.4-.8,1.4h0c-.2-.4-.5-.8-.8-1.1-.7-.8-1.7-.7-2.1-2.1-.3-1.2-.4-2.5-.4-3.9ZM95.4,139.8c.4.2.7,0,1.1,0,.2,0,.4.1.6.1.7,0,1.4,0,2.2,0l1.1,1.4h-4.9c0,0-1.3-1.5-1.3-1.5l.9-.2v-.3c-.6-.2-1.2.3-1.6-.4l1.6-.4c0,.4,0,1,.4,1.3ZM100.8,141.8l1.2,1.5c-1.6,0-3.2,0-4.8.2l-1.2-1.6h4.8ZM98.4,145.3l-.9-1.4h4.9l1,1.3c-1.6,0-3.2,0-4.7.2l-.4-.2ZM99.3,146c1.2,0,2.6.1,3.7,0,.1,0,.5,0,.6-.1.1,0,0-.3.2-.2l1.3,1.6h-5.5c0-.5-.2-.9-.6-1.1,0,0,.3-.2.3-.2ZM98,137.2l.5-2.4c1.4,1.6,2.7,3.4,4.1,5.1,1.3,1.5,2.7,3.1,4,4.6.8.9,1.9,1.7,2.6,2.8h-3.2l-7.9-10.1ZM98.9,139.3h-2.2c.2-.3.2-.8.3-1,0-.1.3-.2.4-.3.2-.2.1-.6.4-.5l1.1,1.7ZM31.1,128.1h7.4c0,1.4.4,2.6,1.3,3.7-.3,0-.6,0-.9-.1-2.2,0-4.8.3-6.9.7-1.4.2-2.7.5-4,1.1l3.1-5.3ZM26.8,135.3c2.8-1.3,6.6-1.9,9.6-2.2,3.7-.4,8.4,1.1,11.9,2.4,2.2.8,5.9,3,7.3,4.8.9,1.2.7,3.1-.5,4.1-3.2,2.6-11.5,2.4-15.2,1-3.3-1.2-6.3-4.8-9.2-6.9-1.5-1.1-3.5-2.2-5.4-2.1.4-.4,1-.8,1.5-1ZM24.5,137.5c1.8-.4,3.7.6,5.1,1.6,4.1,2.8,7.4,7.3,12.7,7.8,0,.2-.2.1-.4,0-.8,0-1.6,0-2.4-.3-3.9-.9-10.3-4.3-13.8-6.4-.4-.3-2.3-1.4-2.5-1.6-.6-.8.6-1.1,1.2-1.2ZM110.7,152.4c0-.2.1-.1.3-.2.5,0,1,0,1.6-.1v.4s-1.6.2-1.6.2l-.3-.3ZM111.8,153.4c0-.2.7,0,.9-.1,0,.2-.7,0-.9.1ZM124.8,153.4h-11.6c.5-.6.2-.8,0-1.3,0-.2.2-.5-.2-.5-.7.3-2.4-.1-2.9.2-.5.3.4,1.6.3,1.7-1.5,0-3,0-4.5,0-6.3.1-12.7.3-19,.3-7.5,0-14.9-.3-22.3-.4-5.5-.1-11,0-16.5,0-8.1,0-16.1-.5-24.2-.3-1.5,0-3.3.4-4.8.2-1.2-.2-.9-2.6-1-3.5,1.5.5,3.1.5,4.6.7,6.6.6,13.4.4,20.1.3,12.1,0,24.3.4,36.5.6,11,.2,22,.1,33,0,2.6,0,5.2,0,7.8-.1,1.5,0,3,0,4.5-.5,0-.1,0-.3-.2-.3-.5-.2-2.2.2-2.8.2-5.3.2-10.8,0-16.2,0-20.2.3-40.5-.3-60.7-.9-7,.2-14.1.3-21.1,0l-5.3-.5,5.4-9.5c4.3,2.8,8.9,5.2,13.7,6.9,2.5.9,3.5.9,6.1.8,3.1,0,10.9-.2,13-2.8,1.7-2.2.9-4.6-1-6.3-1.8-1.7-4.7-3.6-7-4.4-.3,0-.3-.1,0-.1,2.6.2,5.5,1.4,7.9,2.2.4.1,1.3.3,1.6.4.2.1.5.7.8,1,.7.6,1.5.8,2.4.6.4,0,.9-.4,1.2-.4.5,0,1.4.7,2,.5.2,1,.6,1.9.8,2.8.2.9.2,1.8.4,2.7.3,1.2.9,2.6,1.2,3.9,0,.2,0,.3,0,.5,0,.2.5.2.7.2.9,0,1.9,0,2.8,0,4.9,0,9.8-.4,14.7-.4,7.5,0,15.1.3,22.6.2.5,0,2.6.1,2.8-.2.2-.4-.7-1.6-1-1.9-1-1.3-2.4-2.6-3.6-3.9-1.6-1.8-3.1-3.7-4.7-5.5-1.5-1.7-2.9-3.1-4.2-5-.5-.8-.9-1.6-1.7-2.2,1.5,0,3.1.2,4.6.3.8,0,1.3-.2,2.1.3.1,0,.6.5.6.6,0,.2-.3.3-.1.8.2.5,2.8,2.8,3.4,3.3.9.8,2,1.4,2.9,2.2,3.4,2.8,6.4,6.1,9.7,9,.5.4,2.2,1.9,2.6,2.1.8.3,1.1,0,1.8-.1.8.9,1.8,1.5,2.4,2.5-.5,1-.9,2.1-.5,3.2ZM167.4,59.1c-.8,4.2-4.1,9.6-5.8,13.6-1,2.3-1.8,4.7-2.8,7-4.9,11.9-10.2,23.5-15.1,35.4-3,7.2-5.6,14.6-8.6,21.9-1,2.4-2.3,4.6-3.3,7-.8,1.7-1.4,3.5-2.2,5.2-.4.8-1.1,2.5-1.6,3.1-.4.6-.8.7-1.6.6-1-.1-1-.7-.7-1.5.1-.4.5-.5.4-1.1,0-.4-.9-1.3-1.2-1.7-.2-.2-1.7-1.6-1.8-1.6-.7-.2-1,.6-1.9,0-.5-.3-2.1-1.7-2.7-2.2-2.7-2.4-5.1-5.1-7.8-7.5-2.4-2.1-5-3.9-7.3-6.1l.4-.3v-.4s-1.5-1.3-1.5-1.3l2.5-5.6c4.7-8.6,8-17.9,12-26.8,2.3-5.1,4.8-10.2,7.2-15.4.2,0,0,.2,0,.3-.3.9-.7,1.8-1,2.7-.3.8-.5,1.7-.8,2.5-2.4,6.8-6.1,13.3-8.8,20.1-2,5.1-4,10.1-6.1,15.1-.9,2.3-2.1,4.5-2.9,6.8,0,.3.7.9,1,1.1,2.8,2.7,6,5.4,9,7.7,3.2,2.4,6.7,4.3,9.9,6.7.5.4,2.9,2.7,3.3,2.3,0-.4.4-.7.6-1.1,1.3-2.5,2.6-5.5,3.7-8.1,3.6-8.2,6.9-16.6,10.6-24.7,1.4-3.1,3.1-6.2,4.6-9.3,4.5-9.5,9-19.7,12.6-29.6.8-2.1,1.3-4.3,2.1-6.4.2-.4,1.4-2.7,1.2-2.9,0,0-.2,0-.3,0-.1-.1,0-.5-.6-.5-4.7.8-9.4,1.6-14.1,2.4-5.9,1-11.9,2.1-17.5,4.3-.2,0-1,.3-1,.4-.1.1,0,.4-.2.5-.3.3-.6.3-1,.9-1.4,1.8-2.1,4.4-3.2,6.4-.2,0,0-.2,0-.3.4-1.1,1-2.3,1.4-3.4.7-1.7,1.2-3.6,2-5.2,1.1-2.3,2.3-1.9,4.5-2.6,5.5-1.6,11-3.1,16.5-4.5,5.1-1.3,10.4-2.8,15.5-3.8.3,0,.9-.2,1.2-.2.3,0,.5.5.8-.2.2.1.1.1,0,.3ZM122.8,118.9l4.1-10.5c.1-.1.3-.1.5,0s2,.7,2.1.8c.1,0,.4.5.4.7,0,.3,0,.4,0,.6s.1.2,0,.4c0,.6-1.2,2.8-1.7,3.2s-.5,0-.6.3.2.2.2.4c.4,1.4-.6,3.6-1.4,4.7s-.6,1.1-1.3,1c-1.1-.1-1-2-2.4-1.5ZM127.2,111.4c0,.5-1.1,1.8,0,1.8s.9-1.2.7-1.5-.5-.5-.7-.3ZM126.7,114.8c0,0-.7-.3-.8-.3s-.6,1.4-.6,1.4c0,.3.4.8.7.7s.8-1,.8-1.2,0-.2-.1-.3,0-.3,0-.3ZM130.9,113.8l-.4,1.2c0,0,1.5.6,1.6.7s.1.1.1.3-.6,1.5-.7,1.6c-.3.1-1.5-1-1.8-.6s-.5,1.2-.4,1.3c.2.3,1.7.6,1.8,1.1l-1.3,3.2h-.3c-.7-.5-2.1-.9-2.7-1.5s-.2-.1-.2-.3l4.4-10.9c.1-.2.4-.1.5,0s2.4.9,2.5.9.1,0,.2.2l-1.3,3.2c-.4.4-1.5-.7-1.8-.4ZM128.1,105.9l4.1-10.3c.2-.3.9,0,1.1,0,.6,0,2,0,2.1.9s-.8,3.1-1.5,3.8-.9.6-.9.7.3.2.4.5c.3,1.2-1.2,4.7-2.4,5.3s-1.3-.8-1.9-1-.6,0-1,0ZM131.9,99.9c.1.2.7.1.9,0s.6-1.2.4-1.3-.6-.2-.7,0-.7,1.4-.6,1.5ZM131.4,101.4c-.2,0-.7,1.3-.7,1.5s.3.4.4.5c1,.2,1.6-2.4.3-2ZM136.6,99.8c-.1.1-.5,1.1-.5,1.2s1.8.3,1.8.4-.5,1.7-.8,1.8l-1.8-.4c-.2.2-.7,1.2-.4,1.4s1.7.2,1.8.6,0,.2,0,.3c0,.2-1.1,2.9-1.2,3s0,0-.1.1c-.3.1-2.7-.9-3.2-1l4.2-11c.3-.4,1.4,0,1.9.1s1.4,0,1.5.4l-1.3,3.2c-.3.4-1.6-.3-1.8-.1ZM139.9,82.9c.3,0,.7.1.7.5s0,.2,0,.3c0,1-.8,2.7-1.5,3.4s-.7.4-.7.5c0,.3.2.3.3.5.2.4,0,.6,0,1-.1,1.2-1.1,3.4-2.1,4.2-1.4,1.1-1.5-.6-2.8-.4s-.7.4-.6,0c1.2-3.3,2.9-6.5,4-9.9,0-.1.2-.1.3-.2.4,0,1.9-.1,2.4-.1ZM137.9,85.4c-.3,0-.7,1.1-.8,1.4s.5.2.7.2c.3-.1,1.3-1.7.1-1.6ZM136.7,90.2c.2-.1.7-.9.7-1.2,0-.7-.7-.9-1-.4s-.5,1.2-.5,1.2c0,.4.5.5.8.3ZM141.6,87.4h1.9c0,0,0,.2,0,.3,0,.1-.6,1.5-.7,1.6-.2.1-1.8-.3-2.1,0s-.5,1.1-.5,1.2c0,.3,2,0,2.1.3l-1.3,3.3c-.2.2-.7,0-1,0-.8,0-1.8,0-2.5-.3s-.1,0-.2-.1l4.2-10.5c0-.1.2-.3.3-.3h3.1c.1,0,0,.2,0,.3,0,.3-.9,2.3-1,2.6s-.2.5-.4.5h-1.6c-.3.3-.5.8-.5,1.2ZM122.2,114.6c-.1,0-.2,1.5.5,1.5s.4-.3.7-.3c-.3.8-.5,3-1.8,2.6s-.8-.8-.8-1.2.2-.9.2-1.2c.3-1.6,1.5-4.9,2.8-5.9s1.3-.2,1.4.7-.5,3.1-1,4-.3.4-.4.4c-.2,0-1.1-.9-1.5-.7ZM123.5,112.4c-.3,0-.9.9-.6,1.2s.5.2.5.2c.3,0,.4-1.5,0-1.4ZM129.1,102.3c-.4.3-1.8-.8-1.8,0s0,1,.5,1,.9-.7.8-.3-.7,2-.8,2.2c-.4.6-1.6.6-1.9-.3s.2-1.3,0-1.9c.7-1.4,1.7-5.1,3.2-5.6s1,.1,1.1.8-.3,1.4-.2,2c-.3.4-.6,1.9-1,2.1ZM128.3,100.1c-1.1.9.4,1.3.5.7s0-.9,0-.9c-.3-.2-.4.1-.5.2ZM134.2,89.7c-.4.3-2.1-.6-2,.5s1.4,0,1.5.2-.7,1.9-.8,2c-.5.9-1.8,1.2-2.1,0s0-1.4.2-1.8c.4-1.3,1.3-3.5,2.1-4.5s2.3-1.6,2.1.6-.2.4,0,.7c-.3.4-.7,2.1-1,2.3ZM133.8,87.5c-.3-.2-1.2.9-.9,1.1.6,0,.9.2,1-.5s0-.6,0-.7ZM120.1,113.2c-.3.2-1.1-.6-1.5-.5s-.2,1.4.3,1.3.6-.6.6-.3-.8,2-.9,2.2c-.5.8-1.4.2-1.5-.5s.2-1.3.4-2c.3-1.5,1.1-3.6,2.2-4.7s1.3-.5,1.4.4c.1,1.2-.5,2.6-1,3.7s0,.4,0,.5ZM119.7,110.6c-.3,0-.7.7-.5,1,.5.8,1.2-1.2.5-1ZM124.1,101.9c0,0,.4-.3.4,0s-.8,2.1-.9,2.2c-.5.7-1.5.4-1.6-.5s.3-1.3.4-1.7-.1-.2,0-.4.9-2.2,1-2.4c.2-.3.6-1,.8-1.2s.9-1,1-1.1c.5-.2,1,0,1.1.5.2.9-.5,3.1-1,3.9s-.4.1-.5,0-.4,0-.5,0-.3-.3-.5-.2c-.4,0-.4,1.5.4,1.2s.1-.2.2-.2ZM124.5,98.9c-.2,0-1,1-.3,1.1s.8-1.3.3-1.1ZM129.1,90c0,0,.2,0,.2,0-.5.6-.6,1.9-1.2,2.3s-.9.4-1.2,0-.3-.6-.3-.6c0-.1.1-.2.1-.3,0-1.1.6-3,1.2-4s1.2-1.9,1.8-2.3c1-.7,1.2.2,1.1,1.1s-.3,1.1-.5,1.5-.5,1.5-.7,1.6c-.5,0-2-.7-1.6.7s.6.3.9,0,.1-.2.1-.2ZM128.7,88.4c.5.4,1.1-.8.8-1s-1.1.7-.8,1ZM119,116.8c0-.1,0-.2,0-.4.3-1.1,1.2-2.8,1.7-3.9.6-1.5,1.3-3.8,2-5.2.3-.5,1.1,0,1.1.3l-3.8,9.3c0,.4-.9,0-.9-.1ZM128.8,95.2c-1.1,3.1-2.6,6.2-3.7,9.3-.2.5-1.2.2-1.1-.3.2-.9,1-2.4,1.4-3.3.7-1.8,1.5-3.8,2.3-5.8.2-.3.8,0,1.1,0ZM132.6,83.3c.1,0,.9,0,1,0-.8,2.3-1.9,4.5-2.8,6.8s-.5,1.8-.9,2.3-1.1.3-1.2,0,1.5-3.7,1.8-4.2c.5-1.3,1-2.7,1.6-4s.4-.9.5-1Z"/>
    <path class="st0" d="M91.8,37.6c.1.1.3,1,.5.9.2,0,.1-.3,0-.4,0-.3-.4-1.8-.6-1.9-.1,0-.3,0-.3,0-.1.3.3,1,.3,1.4Z"/>
    <path class="st0" d="M80.1,98.9c.6.3.6-.5.9-.9,1.8-3.1,4.2-6,5.9-9.2.9-1.8,1.2-3.2,1.9-5,.7-1.8,1.9-3.4,2.7-5.1.1-.3,0-.6-.3-.8,0,.1,0,.3,0,.4-.8,1.6-2.1,3.1-2.9,4.9-.6,1.3-.8,2.5-1.4,3.8-1.3,2.6-3.3,4.9-4.9,7.3-.4.6-2.7,4-1.9,4.6Z"/>
    <path class="st0" d="M54.4,123.8c.6,0,1.7-1.4,2.1-2,.9-1.3,2.3-5.3,2.1-6.9,0-.4-.3-.8-.3-1.2-.1-1.6,2.1-3.5,2.9-4.8.6-1,.8-2.1,1-3.3-.3-.3-.8,1.4-.9,1.6-1,2-4.1,4.2-4,6.4,0,.5.3.9.3,1.3.2,1.6-1.4,5.5-2.4,6.8-.3.4-2.1,2.1-.8,2Z"/>
    <path class="st0" d="M103.2,152.2c-.6,1.2,1.7,1,2.4,1,.6,0,2.5-.1,2.1-1-.4-.7-3.8-.4-4.5,0Z"/>
    <path class="st0" d="M117.4,151.6c-.9.1-1,1.3,0,1.5,1.8.4,1.6-1.7,0-1.5Z"/>
    <path class="st0" d="M89.3,42.9c-.3,0-.4.6,0,.8.8.4.8-1,0-.8Z"/>
    <path class="st0" d="M98.7,41.7c-.5.2,0,1.1.5.7.3-.2.1-.9-.5-.7Z"/>
    <path class="st0" d="M100.3,40c-.5.1-.3.8.2.7.5-.1.3-.8-.2-.7Z"/>
    <path class="st0" d="M99.4,40.2c-.2,0-.3.5-.2.6.2.3,1.2-.4.2-.6Z"/>
    <path class="st0" d="M99.9,42.8c-.2,0-.2.5-.2.6,0,0,.5,0,.5,0,.1-.2,0-.8-.4-.6Z"/>
    <path class="st0" d="M90.5,42.7c0,0-.2.5,0,.5.8.2.5-.9,0-.5Z"/>
    <path class="st0" d="M100.2,41.9c.1-.2,0-.6-.4-.5-.2,0-.2.4-.2.5,0,0,.5,0,.5,0Z"/>
    <path class="st0" d="M89.2,42.3c.4.1.4-.5.3-.5-.3-.2-.7.4-.3.5Z"/>
    <polygon class="st0" points="87.8 42.6 88.2 42 87.6 42.2 87.8 42.6"/>
    <path class="st0" d="M89.6,29.3c-.6-.5-2-.4-2.8-.4-2,0-4.6.2-6.6.5-.4,0-1.8.3-2,.5,0,.8-.3,1.5-.3,2.3,0,1.4.8,3.3,1.4,4.6.3.6.6.8,1.2.9,1,.3,4.2,0,5.5-.1.7,0,3.7-.7,4.1-1.1.9-.9.3-2.9.2-4-.1-.9,0-2.8-.7-3.3ZM84.4,29.8c1.6,0,3.4-.4,4.9.1.5.4.4,2.6.4,3.3-.6-.8-1-1.7-1.8-2.3-.4-.3-1.5-.9-1.9-.9h-1.9c0-.2.2-.1.4-.1ZM86.3,31.1c.8.3,1.4.9,1.9,1.6,0,.3-1.7,1.5-1.8,1.3.7-.9.2-2-.1-2.9ZM84.5,31.2c.3,0,.5.3.4.5-.2.2-.5-.5-.4-.5ZM84.8,34.2c-1.3.3-2.6-1.2-3-2.3,0-.2-.3-.7,0-.9h1.6c0,1.4.6,2.3,1.5,3.2ZM89.8,36.3c-.2.1-3.1.6-3.5.7-.9.1-2.2.2-3.1.2-.7,0-2.3.2-2.8-.4l-1.2-2.8c0-.6-.4-1.4-.4-1.9,0-.2.1-1.5.2-1.6.1-.2.7-.3,1-.3,1.2-.2,2.5-.2,3.7-.3l-2.3.4c-.2,0-.5.2-.7.3-.3,0-1.8,0-1.4.6.4.3.8.2,1.3.5.8.4,1,1.5,1.7,2.3,1.6,1.7,5,1.6,6.3-.4h.2c.2.4.5.8.8,1.2.1.1.4.2.4.3,0,.2,0,1.2-.2,1.3Z"/>
    <path class="st0" d="M76.8,29.8c-.2-.3-.6-.4-.9-.3-.1.2-.3.8,0,1,.4.4,1.3-.2,1-.7Z"/>
    <path class="st0" d="M108.4,26.5c.7-.3,0-1.7-.6-.9-.4.4.2,1.1.6.9Z"/>
    <path class="st0" d="M108.7,27.9c.5,0,.4-.8-.1-.8-.7,0-.6.9.1.8Z"/>
    <path class="st0" d="M76.4,31.2c-.3,0-.4.6,0,.8.7.4.8-1,0-.8Z"/>
    <path class="st0" d="M67.4,143.9c-.3,0-.5.1-.6.4.1.2.3.2.5.2.9,0,1.8-.2,2.8-.1l.2,1.1h-2c-.2,0-.8.2-.9.3v.3c.4.4,1.2,0,1.6,0,.7,0,4.8.1,5.1,0,.1,0,.1-.1,0-.3-.3-.5-2.7-.3-3.3-.3v-1.1c.6,0,1.5,0,2.1-.1.2,0,.3-.1.4-.3-.1-.2-.3-.2-.5-.3-.7-.2-4.6,0-5.4.3Z"/>
  </g>
</svg>