<?xml version="1.0" encoding="UTF-8"?>
<svg id="Layer_1" xmlns="http://www.w3.org/2000/svg" version="1.1" viewBox="0 0 256.4 167.2">
  <!-- Generator: Adobe Illustrator 29.8.1, SVG Export Plug-In . SVG Version: 2.1.1 Build 2)  -->
  <defs>
    <style>
      .st0 {
        fill: #176a7b;
      }

      .st1 {
        fill: #efb4b3;
      }
    </style>
  </defs>
  <polygon class="st1" points="256.4 167.2 256.4 121.4 228.5 130.5 181.7 80.6 130.8 106.2 80.1 76.2 51 65.9 121.1 135.7 78.2 123.5 39.3 64.5 0 167.2 256.4 167.2"/>
  <g>
    <path class="st0" d="M100.3,11.6c1.9,1.9,1.5,6.3,2.1,8.9.7,3.6,2.3,7,4.5,9.9l5.4,4.5c.5.1,2.9-1.2,3.5-1.4,1.3-.4,1.3.6,1.9,1.4,2.5,3.7,6.4,7.2,9.5,10.5,1.1,1.2,2.1,2.4,3.1,3.6.8-1.2,1.3-2.5,2-3.8,1.6-2.9,3.9-6.7,6.1-9.1s3.9-3.4,4.6-4.6,0-.4.1-.5,1-.3,1.1-.3.4.4.6.5c5.3,2.8,10.8,5.3,16.1,8.1s12,6.5,18,9.8c5.8,3.1,11.6,5.7,17.1,9.3.6.4,3.8,2.3,3.8,2.8l-.2.3c-.2,0-.6-.2-.8,0s-1.1,1.5-1.3,1.8c-2.9,3.6-5.8,7.2-8.8,10.7s-3.6,3.8-5.1,5.7-.2.2-.2.4c7.2-1.8,14.9-.7,22,1.3.7.2,4.3,1.3,4.6,1.6s.2.9-.2,1.1-.8,0-1.3.2c-3.5,1.3-7.6,3.9-11.1,5.6s-7.6,3.6-11.4,5.4c-.7,4.8-1.4,9.7-1.9,14.5l-2.8,16.9c0,.1.8.4.3,1-1.4.7-2.9,1.4-4.2,2.2-8.3,4.9-16.6,9.9-24.8,15-7.7,4.8-15.4,9.4-23.2,14.2-.4.2-.3.7-1.1.3-13.4-9.9-27.5-18.5-41.1-28.2-2.6-1.8-5.6-3.8-8-5.7s-2.2-1.6-2-2.3.3-.3.3-.5-.1-.4-.1-.6c-.1-9.7.5-19.3.6-28.9,0-5.3-.3-10.5-.1-15.8,0-.4.2-.8.2-1.1s-1.5-3-1.8-3.5c-2.8-5.5-5.7-11-8.5-16.5s-3.6-6.1-5-9.4c.2-.6,2.5.2,3,.4,1.3.5,2.5,1.5,3.7,2.1s2.7,1.3,4.1,2,1.4,1,1.8.9c1.1-.7,2.3-1.3,3.5-1.9,4.5-2.1,9.3-3.5,13.9-5.5s4-2.2,6-3.1,5.2-2.1,7.8-3.2l-2.3-1.3c-2-1.3-4.7-5.4-6-7.4-2.4-3.8-6.1-13-3.3-17.1s3.6-2.3,5.1-.8ZM199,61c-1.7-.9-4-2.8-5.7-3.8s-4.1-2.4-6.1-3.4c-11.9-6.3-23.4-12.3-35.4-18.5-2.3-1.2-5.8-2.8-8.2-4-.4.9-1.6,1.7-2.2,2.3-3.7,3.7-5.9,6.9-8.5,11.4-.8,1.4-1.5,3.2-2.4,4.5.8.9.2,1.2-.6,1.8,0,.2,3.8,1.2,4.2,1.3,3.2,1.4,6.1,3.9,9,5.8,4.4,2.7,9,4.2,13.4,6.6,3,1.6,6.2,3.5,9.1,5.2,5.3,3.2,10.5,7.6,16.1,10.4l17.3-19.6ZM116.4,34.1l-3.6,1.3c2,1.5,5.1,3.1,6.8,5,3.3,3.6,5.2,8.3,7,12.7.3-.4,3.4-2.7,3.3-3-1-1.2-1.9-2.8-2.9-3.9s-3.1-3.1-4.5-4.6c-2.1-2.3-4.7-4.6-6.2-7.4ZM119.6,55.2c-.9-3.6-2.6-6.9-4.8-9.9s-2.3-2.3-3.6-3.5c-1.1-1-2.4-2.4-3.7-3.1-2.3.7-3.7,1.4-5.1,2-5.1,2.1-8.6,4.6-13.8,6.6-1.4.5-4.7,1.4-6,1.9-2.7,1.1-3.9,2-6.5,3.2l5.4,2.8c1.9.6,3.5,1.8,5.3,2.7,4.8,2.5,9.7,4.8,14.5,7.3.3-.2.5-.4.8-.6,4.3-2.4,8.9-4.2,13.2-6.7s2.8-2.1,4.4-2.9ZM115.9,72.1c-9.4-3.1-18.1-7.9-26.9-12.4-6.4-3.2-12.8-6.4-19.1-9.8-1.7-.9-4.3-2.4-6.1-2.9,1.6,2.6,3.6,6.4,5.1,9,3.6,6.6,6.3,12.7,10,19.2,11.5,6.9,19.6,12.1,31.2,18.8l20.7,12.2c.2,0,0-.4,0-.6-.1-.4-.6-1-.8-1.5-2-4.5-3.9-8-6.2-12.3-1.7-3.1-2.8-6.2-4.2-9.3-1.5-3.2-3-6.8-3.7-10.4ZM131.3,107c-1.8-.8-4-2.1-5.7-3.1-10.5-6.3-21.1-12.4-31.7-18.6-4.8-2.8-9.4-5.8-14-8.8h-1.1c0,4.1,0,8.2,0,12.3,0,10.4-.2,19.4-.6,29.9,0,1,0,3.9,0,4.8,2.3,1.8,3.4,2.7,5.8,4.4.9.6,3.6,2.3,4.4,2.9,13,9.2,27.1,18,40,27.4l.3-10.6c1-11.3,1.8-22.6,2.1-33.9,0-2,0-4.8.4-6.7ZM209.4,83.2c0-.2-1.6-.7-1.8-.8-1.8-.8-6.5-1.8-8.6-2.2-4.4-.9-12.1-1-16.3.5s-.9.4-1.6.9c-13.3,7.1-26.9,13.4-40.1,20.6l-9.4,4.4c1,0,3.4.2,4.4.4,3.1.5,6.9,2.3,9.6,3.8,1.2.6,2.9,1.5,4.1,2.1,4.7-2.4,10.4-5.7,15.1-8.3,8-4.4,15.6-7.7,23.9-11.5,6.4-3,14.1-7,20.6-9.8ZM152,82.8c-1.8-1.9-4.4-2.3-6.7-1.1s-3.1,2.1-2.9,3.2,1.8,1.2,2.3,1.3c3.2.9,5.3.2,7.5-2.3.6-.7.2-.6-.1-1ZM133.7,82.2c-1.7.2-3.3,1.4-4.4,2.6,0,.4,2.4,1.8,2.8,2,1.6.7,2.5.6,4.1,0s2.9-1.3,4.1-2.5c-1.8-1.5-4.2-2.6-6.6-2.2ZM129.2,158.2c1.2-1,3.3-1.7,4.6-2.5,14.2-9.2,28.9-17.8,43.5-26.4,1.3-.7,2.6-1.4,3.8-2.1.9-6.1,1.4-12.7,2.2-18.8.3-2,.4-4.1.7-6.1s.9-4.6,1.2-6.9c-6.4,2.9-12.7,5.8-18.9,9.1-5.4,2.9-10.5,6.1-15.9,8.9-1.8.3-3.8-1.5-5.5-2.3-3.6-1.7-7.9-3.7-12-3.8s-.6,0-.9.1c0,3.2,0,6.4-.1,9.6-.4,11.4-1.5,22.8-2.2,34.2-.1,2.2-.4,4.9-.5,7.1ZM146.9,127.8c0,0,0,.3,0,.4,5.4-2.7,5.2,2.9,3.7,6.4-3.3,7.3-9.4,6.2-14.7,10.1-.8.6-1.6,1.4-2.5,2,.8-7.3.9-14.7,1.7-22l12.7-6.6c3.7-1.4,4.1,1.9,3.2,4.7s-1.7,3.2-3,4.3-1.2.7-1.2.8ZM140.9,129.9c.1.1,2.9-1.4,3.1-1.6,1.3-1,2.2-4-.1-3.1s-2.6,1.4-2.7,1.5l-.3,3.2ZM145.3,131.2c-.7-.9-3.7,1.3-4.5,1.7l-.2,3.4c2.3-.7,5.5-2.1,4.8-5.1ZM109.7,107.7c1.6,1.3,3.1,3.5,2.3,5.6-1.1,3-5.4-1.8-6.7-2.6s-1.2-.6-1.8-.7l.5-11c.2,0,.2,0,.3.1,1.3.6,4.7,2.7,5.9,3.6s2.3,3.1,1.6,4.6c-.4,1-1.3.6-2.1.4ZM107,103.6c0,.4-.3,1.3,0,1.7s1.1.8,1.3.8c.6.2.8,0,.7-.6,0-1-1.2-1.4-1.9-1.9ZM106.7,108.6c.5.1,1.7,1.6,2.2,1,.6-1.4-1.1-2.3-2.2-2.8v1.8ZM119.9,112.1l-3.6-2.1c0,.4-.1,1,0,1.3.3.4,3.2,1.8,3.8,2.3.4.4,0,1.3,0,1.8l-3.9-2.5-.2,1.2,4.4,2.8v3.5c-.1,0-7.6-4.7-7.6-4.7l.5-11.1,6.7,4v3.4ZM102.9,105.9l-4.4-2.6c.4,1.5,1.8,2.8,3.5,2.6v2.7c-1.2.2-3.6-1.7-4.4-2.7-1.1-1.3-1.7-3.6-1.6-5.3.2-2.7,2.2-3,4.1-1.5,1.9,1.5,3.1,4.4,2.7,6.8ZM100.6,103.3c.2-1.2-1.8-3.2-2.1-1.2l2.1,1.2ZM92.3,99.2l-4.3-2.5c.3,1.5,1.8,2.8,3.4,2.6v2.5c.1,0-.1.2-.1.2-3.7-.8-6.1-4.6-5.5-8.3s1.9-2.4,3.6-1.3,3.2,4.4,3,6.8ZM90,96.7c.3-1.1-1.4-2.9-2-1.4v.2c0,0,2,1.2,2,1.2ZM95.7,94.2l-.4,10.6-2.4-1.5.3-10.5,2.6,1.4Z"/>
    <path class="st0" d="M91.2,112.8s0,.3,0,.5c.2.4,1.4,1.4,1.8,2,.8,1.2,1.3,2.5,1.5,3.9s.3,1.9.3,2c0,.3-.5.4-.8.3s-.4-.8-.6-1c-.7-1-1.8.5-2.4.3s-.2-1.9-1.3-2.5-1.3,1.1-2,.5,0-.5-.3-.5c-.4,1.7-1.2,3.5-.9,5.3.3,0,.2,0,.3-.2.3-.4.6-1.8,1.2-1,.9,1.1-1.6,3.8-2.5,1.9-1-2.1.5-5.1,1.1-7.1-.3,0-.6-.3-.9-.3s-.7.9-1.2.4.2-1.4-.1-2-2.4-.5-2-1.6c.6-.6.9-1,1.8-1.2,2.1-.6,4.2-.1,6.2.4s.7,0,.8,0ZM88.2,113.2c-1.1-.1-3.2-.3-4.2.2s-.2,0-.2.3c.6.1,1.1.5,1.5,1l1-.8,1.7-.7ZM90.1,113.8c-1.3.3-2.8.5-3.9,1.4s-.6.5-.4.6c.9,0,1.8.6,2.4,1.1h.2s1.7-3.1,1.7-3.1ZM91.1,117.9l-.6-3.2-1.4,2.3c.8-.1,1.4.4,2,.9ZM93.7,119.2c0-1.7-1.1-3.5-2.3-4.6.2,1.5.7,3,.6,4.6.6,0,1.2-.3,1.7,0Z"/>
    <path class="st0" d="M101.6,120c-.2.3-1,3.5-1.3,4.2-.4,1.3-.7,3-2.3,1.9l-.6,2.9c.3.6,1.8,1.9,1.3,2.5s-1.1-.4-1.5-.7c-.7-.5-3.3-.9-3.4-1.4-.4-1.2,2-1,2.7-1l.9-2.8c-1.8-.5-1.4-2.8-1.1-4.3.2-.9.9-2.5.9-3.3,0-.4-.3-.7,0-1.1.8-1.1,4.7.7,5,1.8s-.2.8-.5,1.2ZM100.4,120.1c-.6,0-1.3-.2-1.8-.5s-.9-.8-1-.6c0,1.1-1.3,4.9-.5,5.6s.7,0,.9,0,.3.8.8.7l1.6-5.3Z"/>
    <path class="st0" d="M114.1,74.7c.5,1.7,1.5,3.3,2.3,5s1,2.7,1.6,4c1.1,2.3,3.1,5.3,3.8,7.6.1.4.7,1.3.2,1.5-.4.1-.5-.3-.7-.7-2.7-5.5-5.3-11.1-7.4-16.9,0-.5-.3-.5.3-.4Z"/>
    <path class="st0" d="M112,73.2c.2.1,1.2.2.8.5-.7.5-2.4-.8-3.1-1.1s-2-.8-2.9-1.3c-3.4-1.7-6.7-3.6-10.1-5.4v-.6c.1-.2,2.1,1.2,2.5,1.4,2.2,1,4.4,2.2,6.5,3.2,1.7.8,4.5,1.9,6.3,3.1Z"/>
    <path class="st0" d="M138.8,105.8v-.6c.7-.4,5.1,1,5.9,1.4s2.4,1.1,3.4,1.7,2.7,1.7,2.6,2.2l-.4.3c-3.6-2.1-7.5-3.8-11.6-5Z"/>
    <path class="st0" d="M146.8,81.6c2.9-.7,2.3,5.6-.5,3.9s-.7-3.5.5-3.9ZM147.5,82.3c-.5,0-.7.3-.6.7h.6c0-.1,0-.7,0-.7Z"/>
    <path class="st0" d="M134,82.5c2.7-.6,2.7,4,.7,4.3s-2.4-3.9-.7-4.3ZM134.4,83.2c-.5,1.3,1,1,.6.2l-.6-.2Z"/>
  </g>
  <g>
    <path class="st0" d="M188.9,44.7c-6.3,0-10.5-4.3-10.5-10.6s5.5-16.3,14.3-16.3,10.5,4.4,10.5,10.6-5.5,16.3-14.3,16.3ZM192.7,18.8c-8.2,0-13.3,7.9-13.3,15.3s3.8,9.6,9.5,9.6c8.2,0,13.3-7.9,13.3-15.3s-3.8-9.6-9.5-9.6ZM189.5,38.6c-2.5,0-4.1-1.9-4.1-4.9s2.4-9.8,6.7-9.8,4.1,1.8,4.1,4.9-2.4,9.8-6.7,9.8ZM192.1,25c-3.5,0-5.7,5.1-5.7,8.8s1.1,3.9,3.1,3.9c3.5,0,5.7-5.1,5.7-8.8s-1.1-3.9-3.1-3.9Z"/>
    <path class="st0" d="M211.8,44.7c-4.6,0-8.2-1.7-10.4-5l-.3-.4,5.4-4.5.3.4c1.4,1.8,2.9,2.6,4.9,2.6s3.7-1.3,3.7-2.5-1.1-1.8-3.4-1.8h-2.9l-.2-4.3,6-4.4h-8.4l1.8-6.6h19l-1.6,5.7-6.9,4.8c2.9,1.1,4.4,3.3,4.4,6.2,0,5.7-4.7,9.6-11.5,9.6ZM202.5,39.5c2,2.8,5.2,4.2,9.3,4.2,6.3,0,10.5-3.5,10.5-8.6s-2.5-5-4.7-5.6l-1-.3,8.3-5.8,1.1-4.1h-17l-1.2,4.6h10.2l-8,5.9v2.8h2c3.6,0,4.4,1.5,4.4,2.8s-1.7,3.5-4.7,3.5-3.9-.8-5.3-2.6l-3.9,3.3Z"/>
  </g>
</svg>