<svg width="272" height="209" viewBox="0 0 272 209" fill="none" xmlns="http://www.w3.org/2000/svg">
<path d="M140.708 120.637C147.057 120.043 151.801 118.19 154.939 115.074C158.08 111.96 159.444 108.211 159.034 103.825C158.652 99.7449 156.643 96.6156 153.008 94.4404C149.373 92.2641 144.609 91.4524 138.715 92.0043L112.186 94.4881L114.564 119.883C114.711 119.869 118.127 120.085 124.801 120.525C131.475 120.969 136.776 121.005 140.708 120.637ZM110.169 72.9479L133.75 70.7401C138.737 70.2731 142.636 68.7657 145.448 66.2143C148.257 63.6642 149.495 60.5747 149.155 56.9464C148.802 53.1696 147.048 50.3225 143.896 48.4039C140.743 46.4907 136.593 45.7724 131.457 46.2533L107.877 48.4611L110.169 72.9479ZM170.667 167.008C160.84 167.928 147.629 167.679 131.028 166.259C114.426 164.84 102.725 164.45 95.9224 165.086C83.2255 166.275 71.9877 169.235 62.216 173.96L59.2682 174.236L44.4078 15.5186L156.643 5.01017C169.942 3.76496 181.059 6.04147 189.991 11.8379C198.917 17.6358 203.901 26.0533 204.934 37.0856C205.897 47.3669 203.048 56.0177 196.385 63.0456C189.726 70.0744 180.088 74.6357 167.475 76.7306L167.687 78.9989C183.479 78.2855 196.026 81.188 205.329 87.7106C214.631 94.2374 219.849 103.545 220.981 115.637C222.269 129.394 218.171 141.024 208.694 150.525C199.213 160.028 186.539 165.522 170.667 167.008Z" fill="#EFB4B3"/>
<path d="M76.9603 70.0008L76.2075 61.96C76.156 61.4097 73.9448 62.2085 73.5651 62.2968L73.2589 59.0264C73.25 58.9313 72.9486 58.6599 73.0236 58.4244L70.0192 58.7057L70.3667 62.4174L68.2461 62.617L67.4986 58.3058L64.5843 58.8471C64.208 59.5128 65.5048 62.7044 64.7722 62.9487L63.2972 63.0804L62.5675 59.3387C62.3081 58.7207 59.6841 59.6454 59.0837 59.749L59.6194 63.7782L57.4998 63.9777C57.5104 63.2051 57.7303 59.9468 57.0953 59.6463L54.4357 59.891C54.3274 59.9777 54.0485 61.3963 54.0617 61.5373L54.3017 64.1004L52.1809 64.299L51.9078 61.3822C51.8938 61.2327 51.5392 60.1504 51.3304 60.1193C50.8663 60.3653 48.4482 60.6111 48.5002 61.1667L48.798 64.3474L48.5421 64.6192L46.6855 64.6346L46.3132 60.658C45.9002 60.299 43.4306 60.5485 43.1137 60.7776C42.612 61.1403 42.9637 64.2523 42.9761 64.983L41.5769 65.2918L41.3205 62.5524C41.3128 62.4712 40.976 61.2676 40.9157 61.2334C40.4884 60.9986 37.7945 61.5795 37.7055 61.7571L38.2364 65.7813L36.4174 66.1413C35.9756 66.062 35.7213 62.1713 35.2765 61.7722C35.0954 61.6102 33.1528 62.0885 32.8639 62.2265C31.8879 62.6919 33.1614 65.2887 32.9352 66.2798L30.6282 66.3083L29.8081 62.2809C29.5501 61.9774 27.3973 62.2943 27.0662 62.6368C26.6228 63.0933 27.7107 65.8022 27.6161 66.599L24.9653 66.8471L24.2264 63.018C24.1177 62.8708 21.5366 63.1481 21.3519 63.6159C21.29 63.7489 21.4735 63.833 21.4774 63.8746L21.767 66.9677L19.469 67.1839L18.913 63.134L16.1027 63.5771L16.3059 67.6579L14.184 67.8566C13.8297 66.8691 14.3281 64.0892 13.6837 63.4447C13.3811 63.2176 10.7771 63.9421 10.697 64.0767L11.0034 68.1544L8.52894 68.3861C8.48638 66.9415 8.51683 65.5516 8.13181 64.1445L5.39242 64.401L5.18147 64.7149C5.3523 65.1236 5.08551 65.8771 5.10831 66.1207L5.34829 68.6839L3.40476 68.8647L3.18498 64.6066L0.0443056 65.1011L0.905247 72.7654L3.55735 72.4168C3.46134 73.0951 3.86651 73.831 3.9049 74.4137C3.93633 74.899 3.5114 76.3464 3.93853 76.5801L6.58966 76.2328L6.19253 71.9912L8.65046 71.5832L9.03929 75.7361C9.34944 76.1134 11.5017 75.8591 11.7194 75.6749L11.554 71.8707L14.1271 71.0704L14.6864 75.2138L17.1779 74.9806L17.3081 74.7701C16.9176 73.7429 17.2005 72.5858 17.0983 71.4939L19.2863 70.9431L19.8443 74.9917L22.4074 74.7518C22.9683 74.1345 22.0625 71.2867 22.5127 70.8458L24.4872 70.2815C24.9677 71.3046 24.9432 73.0453 25.3127 73.9991C25.6056 74.7563 27.4862 74.2601 28.1547 74.1361L28.1764 70.7649L29.6345 70.3492C29.934 70.4171 30.2738 72.0893 30.3226 72.4953C30.3761 72.9398 30.1424 73.3798 30.2668 73.8219L33.5145 73.6881C33.7415 73.6022 33.8754 72.5237 33.8585 72.3432L33.5854 69.4264L35.7062 69.2279L36.0786 73.2045C36.0832 73.2536 36.2988 73.5999 36.4186 73.6242L39.1077 73.1881L38.752 69.3889C39.3135 68.7899 40.4267 69.0758 41.2016 68.8922L41.5822 72.9565L44.3216 72.7C44.4886 72.5507 44.4984 72.5282 44.4801 72.3208C44.426 71.7321 43.9106 69.3586 44.0886 69.0035L46.5031 68.3959L46.8836 72.4601C47.378 72.5841 49.2459 72.6075 49.4585 72.2309L49.4313 68.1185L51.6273 67.9172C51.4522 69.2247 51.5604 70.9326 52.45 71.9389L55.3668 71.6658L55.2058 67.7826L57.1061 67.4042C57.0161 68.2619 57.0224 69.1235 57.1725 69.9793C57.2495 70.4215 57.4343 71.6242 57.9448 71.6087C58.5907 71.5892 59.8915 71.0934 60.6692 71.0885L60.3477 67.6428L62.4416 67.2603L62.7477 70.5296C62.7521 70.5767 62.968 70.9261 63.0867 70.9506L66.3443 70.7382C66.7539 70.3927 66.0804 67.5857 65.9759 66.9294L67.7264 66.5866L67.9994 69.5023C68.0132 69.6497 68.3332 70.1209 68.2976 70.4196C68.3124 70.4397 68.7032 70.5961 68.7256 70.594L71.3774 70.3457L71.6175 70.0548L71.2618 66.2556L72.8525 66.1056L73.7442 70.0465L76.9603 70.0008Z" fill="#F7DA4D"/>
<path d="M81.4829 58.9151C83.1103 58.351 84.8283 58.1783 86.5397 58.0504L87.703 66.6768L82.2739 67.7208L81.4829 58.9151ZM108.456 69.3681C107.998 68.1263 108.515 66.7717 107.754 65.5938C103.908 65.3321 98.9376 65.9504 99.2607 60.5259C99.3639 58.808 101.862 57.658 103.322 57.3704C104.321 57.1745 105.483 57.2436 106.503 57.0725C106.883 57.037 106.574 54.5461 106.501 54.125C106.449 53.8293 106.231 52.7439 105.926 52.7153C105.162 52.8612 104.226 53.1676 103.479 53.2634C96.5667 54.1531 89.648 54.4129 82.727 54.4875C81.8549 54.4969 80.7473 54.5123 79.8911 54.5644C79.3231 54.5993 77.4605 54.5969 77.4052 55.2725C78.3385 59.0823 79.1472 62.9081 79.5249 66.8271C79.6744 68.3888 79.2474 70.2858 80.1455 71.7634C80.7866 72.1291 84.6973 71.0872 85.6897 70.9587C91.8182 70.1672 98.8199 69.5623 104.976 69.3405C105.515 69.3213 108.256 69.61 108.456 69.3681Z" fill="#F7DA4D"/>
<path d="M100.579 60.966C100.273 63.7226 102.461 64.2322 104.675 64.1941C109.552 64.1115 114.349 63.6731 119.174 63.0102C120.478 62.8309 121.874 62.9568 123.096 62.4306L123.015 57.3102L102.073 59.2709C101.423 59.3318 100.653 60.3038 100.579 60.966Z" fill="#F7DA4D"/>
<path d="M119.459 55.5044C119.439 49.5117 112.036 47.2205 107.671 50.5435C107.586 52.6908 108.329 54.7628 108.534 56.8841L119.459 55.5044Z" fill="#F7DA4D"/>
<path d="M115.18 71.5997C118.582 71.0688 120.559 67.3906 120.269 64.1629L109.931 65.1308C108.345 65.2793 109.335 67.1697 109.425 68.1194C109.502 68.9303 109.201 69.8336 109.499 70.669C111.447 71.2971 113.074 71.9283 115.18 71.5997Z" fill="#F7DA4D"/>
<path d="M261.006 38.5095C261.725 38.9628 258.217 46.6895 258.515 47.6735C258.703 48.2935 261.75 49.5655 262.533 50.0815C263.481 50.7068 265.155 51.9788 265.327 53.1561C265.421 53.7935 264.742 54.3135 265.277 54.9428C265.594 55.3175 267.691 56.2922 268.323 56.7482C268.823 57.1095 270.153 58.1935 270.437 58.6668C270.694 59.0948 271.507 62.0561 271.587 62.6455C271.815 64.3375 271.695 67.0175 270.161 68.0855C269.814 68.3268 269.342 68.3295 269.062 68.6348C268.475 69.2735 267.861 71.0508 266.965 72.0335C265.446 73.6988 263.85 73.3868 262.971 75.5521C261.546 79.0615 261.914 82.6788 262.109 86.4108C262.309 90.2428 262.895 94.1055 263.031 97.9441C263.419 108.832 262.229 121.816 258.995 132.213C257.266 137.775 253.995 141.881 252.266 147.467C249.235 157.248 248.991 167.025 247.997 177.088C247.61 181.004 245.41 190.74 247.374 193.835C248.23 195.181 248.546 194.187 249.549 194.208C250.338 194.225 251.499 195.012 252.117 195.504C252.347 195.688 253.925 197.093 253.994 197.2C254.109 197.376 254.417 199.295 254.402 199.597C254.278 202.052 252.481 203.189 250.27 203.541C248.618 203.804 248.541 203.828 246.998 204.3C243.641 205.328 235.549 205.889 232.749 203.564C232.33 203.216 231.799 202.073 231.081 202.135C230.494 202.185 230.122 203.415 229.593 203.935C227.023 206.461 221.65 205.465 218.417 205.385C209.261 205.159 199.723 205.652 190.741 205.211C185.553 204.957 180.518 203.868 175.354 203.559C167.517 203.089 159.526 203.563 151.715 203.196C132.338 202.285 110.759 203.576 91.6701 207.091C89.8955 207.417 88.1915 208.051 86.3061 208.137C83.7768 208.255 80.5208 207.459 82.7355 204.385C86.2421 199.519 101.71 196.236 107.618 195.192C110.693 194.648 112.35 194.349 115.441 194.58C118.997 194.847 124.078 192.66 127.765 192.071C140.475 190.04 154.495 192.173 167.299 192.76C176.931 191.619 172.695 181.36 171.986 175.235C168.897 148.6 180.379 107.603 208.511 98.0415C212.035 96.8441 215.598 97.1495 218.026 93.9988C223.163 87.3335 227.731 74.0881 228.219 65.7201C228.434 62.0201 227.118 58.4375 228.618 54.9455C228.938 54.2028 229.542 53.7135 229.661 52.8735C230.314 48.2721 227.925 41.3988 232.239 37.8655C235.541 35.1628 238.286 39.4282 239.905 41.9295C240.945 43.5348 241.877 46.6228 244.053 46.7641C245.783 46.8761 248.194 46.5188 250.114 46.5602C250.87 46.5775 251.681 46.9601 252.393 46.6561L260.357 38.6828L261.006 38.5095Z" fill="#4FBED5"/>
</svg>
