<svg width="200" height="195" viewBox="0 0 200 195" fill="none" xmlns="http://www.w3.org/2000/svg">
<path d="M85.8678 47.5238L107.714 0L128.531 47.5238L165.864 28.8339V57.0153L200 72.6243L176.002 88.1096L196.799 123.892L163.035 131.367L174.933 176.756L126.398 159.136C126.398 159.136 106.133 197.049 104.532 194.913C102.932 192.777 85.8678 165.009 85.8678 165.009L49.5988 178.359L53.3331 147.922L12.7978 143.114L41.0674 113.21L0 89.18C0 89.18 42.1314 77.9657 42.6685 76.3628C43.2005 74.7598 20.2651 41.651 20.2651 41.651L60.2481 50.1971L57.5981 16.018L85.8678 47.5238Z" fill="#4FBED5"/>
</svg>
