<svg width="210" height="205" viewBox="0 0 210 205" fill="none" xmlns="http://www.w3.org/2000/svg">
<path d="M89.9507 49.724L112.836 -1.52588e-05L134.647 49.724L173.756 30.1693V59.6547L209.513 75.9827L184.372 92.1853L206.161 129.619L170.789 137.44L183.255 184.931L132.412 166.493C132.412 166.493 111.181 206.161 109.505 203.925C107.829 201.691 89.9507 172.639 89.9507 172.639L51.9587 186.607L55.8693 154.76L13.408 149.732L43.02 118.444L0 93.3027C0 93.3027 44.1373 81.5707 44.696 79.8933C45.2547 78.2173 21.2307 43.5787 21.2307 43.5787L63.1133 52.5173L60.34 16.76L89.9507 49.724Z" fill="#4FBED5"/>
</svg>
