<svg width="195" height="253" viewBox="0 0 195 253" fill="none" xmlns="http://www.w3.org/2000/svg">
<path d="M16.2201 217.667C15.3556 216.849 14.1751 213.136 14.0544 211.964C13.5838 207.371 16.2169 202.901 19.991 199.92C21.0124 199.113 24.1173 196.472 23.9966 199.22C22.5791 200.418 20.9301 201.414 19.6476 202.741C16.3748 206.127 15.1537 210.333 16.84 214.636C17.0518 215.176 18.0512 216.717 18.0425 217.091C18.0216 217.975 16.8949 218.307 16.2201 217.667Z" fill="#EFB4B3"/>
<path d="M30.5469 141.489C30.1901 144.216 29.115 146.992 28.253 149.56C27.4632 151.91 26.8885 154.342 26.1438 156.707L25.872 157L6.04084 151.007C5.88446 150.532 6.22068 150.161 6.31939 149.776C7.23227 146.196 8.35823 142.366 9.45779 138.817C10.3003 136.094 11.0021 133.149 13.1201 131.111C20.7095 123.809 32.5388 130.311 30.8342 140.779C30.7864 141.077 30.5655 141.351 30.5469 141.489Z" fill="#EFB4B3"/>
<path d="M8.34901 178.109C8.95703 178.316 9.48489 177.748 9.1887 177.165C9.06358 176.918 7.95605 176.225 7.64716 175.938C5.1848 173.658 4.41745 170.533 5.10758 167.305C5.37835 166.041 5.97365 164.877 6.36564 163.653C5.47708 161.824 4.62371 164.514 4.32165 165.359C3.20436 168.479 3.25616 172.216 5.12517 175.064C5.6022 175.791 7.56994 177.844 8.34901 178.109ZM1.04112 166.216C2.12518 162.286 3.30113 158.351 4.54453 154.488C4.66476 154.115 4.70093 153.164 5.10464 153L25 159.159L19.9179 176.088C13.6726 187.415 -2.69201 181.184 0.380315 168.219C0.54356 167.533 0.863208 166.861 1.04112 166.216Z" fill="#176A7B"/>
<path d="M71 22.276L138.549 -1.03585e-06L171.679 53.9L132.633 76.644L194.267 153.288L71 76.644L105.42 43.3587L71 22.276Z" fill="#176A7B"/>
<path d="M66.7754 188.453C64.523 191.491 61.346 194.118 58.5705 196.633C56.0303 198.935 53.7034 201.477 51.2096 203.827L50.6764 204L30 183.814C30.1207 183.14 30.7857 182.917 31.1629 182.519C34.6729 178.822 38.6124 174.966 42.3316 171.427C45.1866 168.712 48.0115 165.639 51.9963 164.581C66.2724 160.793 76.6655 176.345 67.6034 187.79C67.3458 188.115 66.8901 188.299 66.7754 188.453Z" fill="#EFB4B3"/>
<path d="M16.5581 218.025C17.1613 218.687 18.1686 218.344 18.1873 217.429C18.1951 217.041 17.3016 215.447 17.1123 214.888C15.6047 210.436 16.6964 206.083 19.6222 202.58C20.7688 201.207 22.243 200.176 23.5102 198.936C23.6181 196.092 20.8424 198.825 19.9292 199.661C16.5552 202.745 14.2012 207.371 14.622 212.123C14.7298 213.336 15.7852 217.178 16.5581 218.025ZM15.3998 198.515C19.2564 194.414 23.2268 190.368 27.2344 186.455C27.6219 186.077 28.281 184.934 28.8754 185.003L49 205.906L31.8855 223.298C16.9867 233.026 1.18853 214.401 13.3018 200.534C13.9432 199.799 14.7661 199.188 15.3998 198.515Z" fill="#176A7B"/>
<path d="M35.4712 112.489C35.8422 115.216 36.9604 117.992 37.8579 120.56C38.6782 122.91 39.2759 125.342 40.0505 127.707L40.3331 128L60.9575 122.007C61.1202 121.532 60.7705 121.161 60.6678 120.776C59.7184 117.196 58.5474 113.366 57.4039 109.817C56.5277 107.094 55.7979 104.149 53.5951 102.111C45.7021 94.809 33.3996 101.311 35.1724 111.779C35.2222 112.077 35.4519 112.351 35.4712 112.489Z" fill="#F7DA4D"/>
<path d="M60.8748 146.064C62.7438 143.215 62.7956 139.479 61.6783 136.359C61.3763 135.514 60.5229 132.823 59.6343 134.653C60.0263 135.877 60.6216 137.041 60.8924 138.305C61.5825 141.533 60.8152 144.658 58.3528 146.938C58.0439 147.225 56.9364 147.918 56.8113 148.165C56.5151 148.748 57.043 149.316 57.651 149.109C58.4301 148.844 60.3978 146.791 60.8748 146.064ZM65.6197 139.219C68.692 152.184 52.3284 158.415 46.0821 147.088L41 130.159L60.8953 124C61.2991 124.164 61.3352 125.115 61.4555 125.488C62.6989 129.351 63.8748 133.286 64.9589 137.216C65.1368 137.861 65.4564 138.533 65.6197 139.219Z" fill="#176A7B"/>
<path d="M57.8119 148.957C58.4961 148.694 60.2243 146.658 60.6433 145.937C62.2847 143.112 62.3302 139.406 61.3489 136.311C61.0837 135.473 60.3342 132.805 59.5538 134.62C59.8981 135.833 60.4209 136.987 60.6587 138.242C61.2648 141.443 60.5909 144.542 58.4283 146.804C58.157 147.088 57.1844 147.776 57.0745 148.021C56.8143 148.599 57.2779 149.162 57.8119 148.957Z" fill="#F7DA4D"/>
<path d="M164 51.7581L137.569 130.957L154.177 144.873L121.401 168.429L108.933 208.122L84.4899 207.016L102.617 224.466L54 252.758H163.353L164 51.7581Z" fill="#F7DA4D"/>
</svg>
