<svg width="148" height="149" viewBox="0 0 148 149" fill="none" xmlns="http://www.w3.org/2000/svg">
<path d="M32.5 83.3431L32.074 93.9331L29.676 92.4181L29.937 81.8941L32.5 83.3431ZM26.828 85.9061C27.082 84.8471 25.394 82.9881 24.875 84.5431L24.949 84.7421L26.828 85.9061ZM29.16 88.3631L24.887 85.9061C25.195 87.4061 26.707 88.6601 28.254 88.4961L28.363 91.0041L28.117 91.1641C24.43 90.3671 22.055 86.6011 22.59 82.8981C22.898 80.7651 24.523 80.5231 26.168 81.5821C28.281 82.9371 29.359 85.9291 29.16 88.3631ZM37.445 92.5071C37.672 91.3391 35.609 89.2691 35.391 91.3281L37.445 92.5071ZM39.777 95.0971L35.375 92.5071C35.801 94.0471 37.219 95.3081 38.871 95.0971L38.926 97.8201C37.633 98.0271 35.246 96.1521 34.473 95.1601C33.418 93.8081 32.769 91.5541 32.918 89.8551C33.144 87.1951 35.094 86.8321 37.047 88.3121C38.976 89.7771 40.144 92.7111 39.777 95.0971ZM56.738 101.312L53.113 99.2421C53.168 99.5971 53.004 100.238 53.18 100.535C53.433 100.961 56.379 102.371 56.941 102.859C57.359 103.265 56.933 104.132 56.933 104.679L53.051 102.218L52.84 103.449L57.234 106.254L57.129 109.726L49.605 105.004L50.137 93.9331L56.805 97.9451L56.738 101.312ZM43.531 97.8161C44.043 97.9531 45.254 99.4531 45.746 98.7971C46.316 97.3551 44.641 96.4531 43.531 96.0041V97.8161ZM43.793 92.7691C43.738 93.1991 43.5 94.0741 43.726 94.4491C43.777 94.5351 44.836 95.2031 44.992 95.2571C45.637 95.4841 45.793 95.3161 45.738 94.6441C45.664 93.6361 44.519 93.2611 43.793 92.7691ZM46.512 96.9101C48.137 98.1641 49.582 100.379 48.808 102.507C47.711 105.523 43.441 100.699 42.148 99.9101C41.613 99.5821 40.933 99.2611 40.301 99.2341L40.812 88.2381C40.984 88.1911 41.043 88.2851 41.16 88.3391C42.457 88.9491 45.891 91.0541 47.019 91.9331C48.23 92.8791 49.34 95.0271 48.648 96.5231C48.199 97.4921 47.324 97.1681 46.512 96.9101ZM82.09 120.375C81.351 119.519 78.371 121.687 77.578 122.078L77.328 125.519C79.668 124.781 82.836 123.371 82.09 120.375ZM77.719 119.047C77.84 119.175 80.582 117.601 80.816 117.421C82.109 116.414 83.008 113.386 80.695 114.324C80.402 114.441 78.117 115.679 78.039 115.808L77.719 119.047ZM83.699 117C83.656 117.074 83.613 117.347 83.738 117.363C89.152 114.691 88.969 120.254 87.41 123.754C84.148 131.074 77.988 129.992 72.68 133.882C71.828 134.504 71.109 135.324 70.207 135.879C71.043 128.582 71.137 121.199 71.914 113.894L84.621 107.242C88.332 105.812 88.695 109.129 87.851 111.898C87.348 113.554 86.18 115.062 84.898 116.195C84.68 116.39 83.734 116.937 83.699 117ZM66.019 147.398C67.25 146.402 69.312 145.703 70.625 144.855C84.848 135.656 99.5 127.031 114.125 118.488C115.379 117.754 116.715 117.136 117.973 116.41C118.926 110.297 119.332 103.73 120.203 97.6051C120.496 95.5701 120.57 93.5041 120.859 91.4681C121.183 89.1681 121.773 86.9021 122.07 84.5971C115.715 87.4801 109.351 90.3901 103.183 93.6681C97.816 96.5191 92.68 99.7771 87.293 102.601C85.461 102.937 83.457 101.109 81.754 100.293C78.117 98.5471 73.891 96.6321 69.793 96.4491C69.476 96.4331 69.176 96.4491 68.891 96.5891C68.879 99.7811 68.859 102.964 68.754 106.144C68.379 117.558 67.219 128.949 66.527 140.336C66.391 142.535 66.098 145.191 66.019 147.398ZM70.574 71.4211C68.894 71.6361 67.246 72.7971 66.168 74.0581C66.101 74.4211 68.539 75.8711 68.961 76.0501C70.535 76.7221 71.476 76.6171 73.066 76.1401C74.687 75.6521 75.937 74.8431 77.141 73.6711C75.359 72.1401 72.973 71.1131 70.574 71.4211ZM88.789 71.9611C87.012 70.0891 84.414 69.6601 82.078 70.8281C81.211 71.2611 78.957 72.9101 79.172 73.9881C79.254 74.4181 80.992 75.1521 81.461 75.2771C84.707 76.1291 86.765 75.4801 88.933 73.0001C89.535 72.3121 89.16 72.3551 88.789 71.9611ZM146.246 72.3901C146.23 72.2221 144.601 71.6711 144.48 71.6131C142.676 70.7891 137.953 69.8041 135.902 69.3981C131.473 68.5151 123.812 68.3751 119.562 69.8861C118.965 70.0971 118.68 70.2381 117.992 70.8241C104.742 77.9291 91.062 84.2221 77.887 91.4531L68.527 95.8321C69.566 95.8361 71.945 96.0231 72.973 96.1831C76.055 96.6601 79.84 98.4801 82.609 99.9761C83.781 100.613 85.523 101.453 86.703 102.078C91.441 99.6481 97.109 96.3431 101.773 93.7811C109.777 89.3861 117.348 86.0541 125.633 82.2381C132.055 79.2851 139.758 75.1951 146.246 72.3901ZM68.176 96.2261C66.379 95.4761 64.152 94.1291 62.492 93.1401C51.976 86.8751 41.363 80.7771 30.816 74.5741C26.055 71.7691 21.43 68.7381 16.773 65.7611H15.648C15.676 69.8511 15.719 73.9371 15.738 78.0231C15.793 88.4641 15.543 97.4761 15.176 107.914C15.141 108.914 15.234 111.765 15.176 112.761C17.496 114.605 18.586 115.496 21.012 117.187C21.875 117.789 24.594 119.453 25.453 120.058C38.473 129.222 52.535 138.066 65.414 147.425L65.723 136.871C66.711 125.574 67.492 114.25 67.824 102.925C67.883 100.972 67.734 98.1361 68.176 96.2261ZM52.773 61.2971C43.363 58.2221 34.723 53.3511 25.914 48.8821C19.519 45.6401 13.133 42.5041 6.84399 39.0501C5.16799 38.1321 2.58601 36.6991 0.726013 36.1051C2.30501 38.6601 4.37101 42.5001 5.80801 45.1361C9.41401 51.7541 12.062 57.8081 15.765 64.3791C27.285 71.3241 35.344 76.4291 46.976 83.1791L67.652 95.3511C67.824 95.3901 67.687 94.9571 67.637 94.7851C67.527 94.4211 67.062 93.7421 66.875 93.3241C64.883 88.8511 62.953 85.2891 60.66 81.0191C58.996 77.9181 57.851 74.8431 56.426 71.6751C54.969 68.4251 53.473 64.8431 52.773 61.2971ZM56.394 44.3361C55.461 40.7111 53.82 37.4101 51.566 34.4331C50.492 33.0111 49.297 32.1321 48.012 30.9571C46.937 29.9761 45.59 28.5581 44.316 27.8041C42.019 28.5111 40.609 29.2421 39.199 29.8201C34.082 31.9021 30.629 34.3981 25.433 36.3861C24.078 36.9021 20.758 37.8041 19.398 38.3281C16.66 39.3791 15.543 40.3751 12.867 41.5741L18.258 44.4181C20.16 45.0661 21.801 46.2221 23.57 47.1291C28.387 49.6051 33.301 51.8901 38.078 54.4371C38.328 54.2461 38.562 54.0351 38.84 53.8821C43.148 51.4571 47.762 49.6751 52.043 47.2111C53.562 46.3361 54.84 45.1361 56.394 44.3361ZM53.246 23.2541L49.644 24.5581C51.68 26.0781 54.719 27.6361 56.469 29.5351C59.746 33.0861 61.621 37.8631 63.504 42.2501C63.848 41.8941 66.859 39.5891 66.797 39.2421C65.844 38.0191 64.937 36.4841 63.902 35.3241C62.5 33.7501 60.848 32.2691 59.422 30.6991C57.293 28.3631 54.738 26.0891 53.246 23.2541ZM135.832 50.1871C134.098 49.3081 131.801 47.3671 130.113 46.3751C128.219 45.2571 125.992 44.0191 124.047 42.9841C112.117 36.6521 100.66 30.6871 88.68 24.4531C86.34 23.2341 82.906 21.6171 80.527 20.4641C80.133 21.3821 78.953 22.1321 78.305 22.7931C74.633 26.5311 72.398 29.6711 69.797 34.1951C69 35.5861 68.332 37.3791 67.433 38.7141C68.219 39.6481 67.594 39.9211 66.797 40.4801C66.793 40.7071 70.582 41.6561 70.969 41.8201C74.199 43.2071 77.051 45.7691 79.992 47.6091C84.351 50.3391 88.945 51.7891 93.394 54.2031C96.379 55.8241 99.574 57.6791 102.484 59.4331C107.797 62.6441 113.015 67.0071 118.574 69.8121L135.832 50.1871ZM37.105 0.8121C39.035 2.7181 38.648 7.12109 39.16 9.68309C39.891 13.3241 41.433 16.6681 43.695 19.5931L49.121 24.0541C49.59 24.1831 51.988 22.8081 52.648 22.6291C53.984 22.2651 53.933 23.2071 54.527 24.0701C57.051 27.7501 60.945 31.2731 64 34.5931C65.062 35.7541 66.051 36.9881 67.082 38.1751C67.883 36.9841 68.394 35.6291 69.098 34.3901C70.738 31.5111 72.976 27.6991 75.164 25.2731C76.246 24.0741 79.047 21.8391 79.742 20.7141C79.867 20.5111 79.824 20.2651 79.883 20.1791C79.933 20.1011 80.879 19.8941 81.008 19.9251C81.168 19.9641 81.383 20.3001 81.625 20.4251C86.945 23.1831 92.43 25.7111 97.758 28.4841C103.816 31.6361 109.75 35.0311 115.773 38.2421C121.551 41.3201 127.379 43.9761 132.926 47.5071C133.527 47.8941 136.762 49.8471 136.765 50.3361L136.562 50.6361C136.351 50.6911 136.008 50.4211 135.797 50.5431C135.703 50.5971 134.746 52.0431 134.535 52.3081C131.668 55.9211 128.726 59.5001 125.715 62.9921C124.113 64.8511 122.133 66.7461 120.652 68.6711C120.558 68.7931 120.414 68.8281 120.469 69.0391C127.691 67.2571 135.383 68.3121 142.441 70.3361C143.144 70.5391 146.723 71.5931 147.012 71.9371C147.285 72.2611 147.262 72.8321 146.855 73.0271C146.515 73.1911 146.101 73.0191 145.566 73.2141C142.019 74.5311 137.945 77.0741 134.461 78.7771C130.68 80.6251 126.824 82.3281 123.051 84.1831C122.355 89.0191 121.695 93.8511 121.187 98.7111L118.41 115.656C118.433 115.793 119.25 116.007 118.703 116.66C117.281 117.379 115.836 118.089 114.461 118.894C106.117 123.797 97.844 128.82 89.621 133.929C81.926 138.707 74.18 143.379 66.445 148.097C66.086 148.32 66.183 148.785 65.375 148.406C52.012 138.539 37.828 129.863 24.32 120.203C21.758 118.367 18.703 116.433 16.301 114.523C15.797 114.121 14.144 112.882 14.328 112.214C14.379 112.039 14.66 111.961 14.676 111.707C14.683 111.55 14.558 111.308 14.555 111.082C14.445 101.425 15.015 91.8001 15.183 82.1951C15.273 76.9291 14.836 71.6521 15.051 66.3821C15.066 66.0111 15.293 65.5541 15.265 65.2931C15.234 64.9641 13.793 62.2971 13.515 61.7541C10.691 56.2421 7.851 50.7111 4.996 45.2111C3.359 42.0541 1.355 39.0701 0 35.7811C0.176 35.1871 2.492 35.9611 2.957 36.1401C4.297 36.6681 5.418 37.5931 6.66 38.2421C7.996 38.9371 9.39801 39.5111 10.738 40.2111C11.141 40.4251 12.117 41.1831 12.496 41.1211C13.621 40.4491 14.769 39.8121 15.961 39.2651C20.484 37.1911 25.301 35.8121 29.828 33.7541C31.883 32.8201 33.797 31.5891 35.832 30.6251C38.363 29.4251 41.051 28.5191 43.633 27.4371L41.332 26.1561C39.375 24.8861 36.641 20.7571 35.32 18.7071C32.902 14.9571 29.18 5.6601 32.035 1.6401C33.168 0.0470957 35.594 -0.6759 37.105 0.8121Z" fill="#176A7B"/>
<path d="M30.4839 108.425C30.3909 106.738 29.4259 104.929 28.1409 103.855C28.3869 105.371 28.7969 106.871 28.7579 108.421C29.3239 108.339 29.9299 108.156 30.4839 108.425ZM27.8909 107.066L27.2769 103.855L25.9179 106.199C26.7069 106.093 27.3359 106.586 27.8909 107.066ZM26.9059 102.992C25.6129 103.332 24.07 103.449 23.019 104.351C22.918 104.441 22.4529 104.839 22.5859 104.964C23.4369 105.035 24.3669 105.519 24.9919 106.078H25.1759L26.9059 102.992ZM25.0509 102.375C23.9689 102.254 21.8549 102.05 20.8909 102.593C20.7499 102.671 20.6799 102.586 20.734 102.867C21.3549 103.015 21.8669 103.379 22.2769 103.855L23.3239 103.05L25.0509 102.375ZM28.0119 102.011C28.0349 102.035 27.9999 102.336 28.0779 102.492C28.2969 102.921 29.4839 103.855 29.9179 104.484C30.7579 105.703 31.187 106.941 31.437 108.394C31.484 108.679 31.7339 110.312 31.6989 110.433C31.6129 110.777 31.152 110.855 30.855 110.711C30.539 110.554 30.4999 109.933 30.2969 109.66C29.5509 108.652 28.5189 110.179 27.8909 109.98C27.0899 109.73 27.6759 108.066 26.5739 107.453C25.9059 107.078 25.312 108.543 24.605 107.941C24.406 107.773 24.543 107.445 24.312 107.437C23.879 109.168 23.0899 110.929 23.4489 112.746C23.7339 112.816 23.652 112.691 23.73 112.589C24.019 112.222 24.328 110.812 24.937 111.562C25.863 112.703 23.344 115.336 22.433 113.449C21.437 111.379 22.98 108.359 23.566 106.332C23.273 106.3 22.937 106.047 22.648 106.078C22.289 106.113 21.996 106.933 21.398 106.461C20.949 106.101 21.5779 105.07 21.2889 104.472C20.9569 103.789 18.8709 103.933 19.2499 102.832C19.8549 102.269 20.1599 101.851 21.0039 101.597C23.1009 100.964 25.2419 101.492 27.2379 101.976C27.4409 102.027 27.9759 101.972 28.0119 102.011Z" fill="#176A7B"/>
<path d="M37.2727 109.289C36.6867 109.332 35.9727 109.086 35.4567 108.82C35.2847 108.726 34.5547 108.05 34.4327 108.179C34.3547 109.23 33.1247 113.093 33.9447 113.789C34.2767 114.074 34.6717 113.812 34.8507 113.867C35.0507 113.929 35.1327 114.703 35.6677 114.597L37.2727 109.289ZM38.4177 109.199C38.1757 109.5 37.3907 112.73 37.1517 113.425C36.7147 114.699 36.4607 116.414 34.8047 115.339L34.2067 118.214C34.4877 118.839 35.9877 120.117 35.4757 120.761C34.9367 121.445 34.3507 120.394 33.9327 120.097C33.1947 119.578 30.6517 119.207 30.5037 118.707C30.1517 117.515 32.4837 117.683 33.1827 117.668L34.0617 114.902C32.2337 114.41 32.7067 112.054 32.9877 110.621C33.1717 109.695 33.8507 108.148 33.9137 107.347C33.9447 106.968 33.6477 106.652 33.9297 106.254C34.7027 105.179 38.6087 106.98 38.9487 108.047C39.2027 108.851 38.6987 108.851 38.4177 109.199Z" fill="#176A7B"/>
<path d="M50.8979 63.914C51.4259 65.664 52.4179 67.218 53.1559 68.875C53.7379 70.171 54.1759 71.535 54.7579 72.828C55.8079 75.168 57.8399 78.117 58.5389 80.406C58.6639 80.812 59.2729 81.726 58.7069 81.894C58.2579 82.027 58.1829 81.589 57.9879 81.226C55.2499 75.726 52.6949 70.093 50.6329 64.316C50.7029 63.8 50.3749 63.789 50.8979 63.914Z" fill="#176A7B"/>
<path d="M48.7972 62.3671C48.9882 62.5001 49.9572 62.5892 49.5662 62.8792C48.9062 63.3552 47.1722 62.1091 46.4492 61.7731C45.4882 61.3321 44.4762 60.9642 43.5232 60.5042C40.0942 58.8472 36.8242 56.9021 33.4452 55.1521L33.3242 54.5972C33.5622 54.3552 35.5272 55.8241 35.9492 56.0111C38.1332 56.9761 40.3242 58.1912 42.4882 59.2262C44.1762 60.0312 47.0312 61.1091 48.7972 62.3671Z" fill="#176A7B"/>
<path d="M75.6758 94.9571L75.7768 94.4061C76.3548 94.0001 80.7378 95.4371 81.5858 95.7731C82.7298 96.2221 83.9798 96.8671 85.0348 97.5071C85.4878 97.7851 87.7228 99.1751 87.6128 99.7031L87.2578 99.9761C83.6168 97.8591 79.7108 96.1831 75.6758 94.9571Z" fill="#176A7B"/>
<path d="M84.3008 71.5112C83.8278 71.4452 83.6168 71.8282 83.6828 72.2502L84.2458 72.1362L84.3008 71.5112ZM83.6518 70.8002C86.5038 70.0622 85.9098 76.4452 83.1948 74.6562C82.1208 73.9452 82.4798 71.1052 83.6518 70.8002Z" fill="#176A7B"/>
<path d="M71.2194 72.3752C70.7114 73.6712 72.2154 73.3362 71.7734 72.6212L71.2194 72.3752ZM70.8124 71.6602C73.4844 71.0472 73.5474 75.6682 71.5154 75.9492C69.3634 76.2502 69.1524 72.0432 70.8124 71.6602Z" fill="#176A7B"/>
</svg>
