<svg width="205" height="183" viewBox="0 0 205 183" fill="none" xmlns="http://www.w3.org/2000/svg">
<path d="M127.568 109.883C133.281 109.269 137.532 107.537 140.321 104.683C143.111 101.83 144.293 98.4251 143.868 94.4655C143.472 90.7818 141.623 87.9771 138.32 86.0545C135.018 84.1308 130.715 83.4543 125.411 84.0239L101.54 86.5874L104.003 109.515C104.135 109.5 107.216 109.654 113.235 109.972C119.254 110.294 124.03 110.263 127.568 109.883ZM99.452 67.1404L120.671 64.8617C125.158 64.3798 128.652 62.9704 131.153 60.6303C133.652 58.2915 134.729 55.4839 134.377 52.2081C134.011 48.7983 132.395 46.2458 129.531 44.5492C126.666 42.8577 122.918 42.2581 118.296 42.7544L97.0779 45.0331L99.452 67.1404ZM155.145 151.44C146.303 152.389 134.396 152.323 119.421 151.239C104.445 150.155 93.8971 149.942 87.776 150.6C76.351 151.827 66.263 154.637 57.5182 159.025L54.8657 159.31L39.4774 16.0162L140.469 5.17068C152.436 3.88552 162.482 5.81001 170.601 10.9425C178.718 16.0764 183.314 23.6256 184.384 33.5859C185.381 42.8681 182.922 50.7221 177.008 57.1549C171.096 63.5884 162.471 67.8272 151.132 69.8722L151.352 71.9201C165.572 71.0858 176.913 73.559 185.377 79.3434C193.84 85.1318 198.659 93.4825 199.831 104.4C201.165 116.82 197.619 127.382 189.2 136.084C180.777 144.788 169.428 149.906 155.145 151.44Z" fill="#EFB4B3"/>
<path d="M69.8868 65.0495L69.0607 57.3569C69.0042 56.8305 67.0133 57.6119 66.6705 57.6994L66.3345 54.5706C66.3247 54.4796 66.0466 54.2221 66.1104 53.996L63.3909 54.2881L63.7723 57.839L61.8527 58.0462L61.098 53.9243L58.4649 54.4645C58.1355 55.1047 59.3684 58.1506 58.7084 58.39L57.3731 58.5272L56.6447 54.9505C56.3984 54.3607 54.0353 55.2659 53.4928 55.3696L54.0504 59.2232L52.1318 59.4302C52.1277 58.6904 52.2689 55.5693 51.6878 55.2864L49.2803 55.5408C49.1836 55.6246 48.956 56.9849 48.9705 57.1198L49.2338 59.5719L47.3141 59.778L47.0145 56.9876C46.9991 56.8445 46.6582 55.811 46.4684 55.7828C46.0519 56.0219 43.8634 56.2755 43.9205 56.807L44.2472 59.8499L44.0201 60.1121L42.3367 60.1409L41.9281 56.3365C41.5472 55.9959 39.3122 56.2535 39.0288 56.4752C38.5803 56.8263 38.9548 59.8031 38.979 60.5025L37.7157 60.8088L37.4343 58.1881C37.426 58.1104 37.099 56.9606 37.0437 56.9283C36.6521 56.7067 34.2195 57.2833 34.1419 57.4539L34.6951 61.3028L33.052 61.6612C32.65 61.5886 32.35 57.8656 31.9395 57.4868C31.7724 57.3331 30.0192 57.8057 29.7598 57.94C28.883 58.393 30.0841 60.8695 29.8967 61.8201L27.8051 61.8648L26.9896 58.0152C26.7503 57.7266 24.8036 58.0463 24.5094 58.3767C24.1155 58.8171 25.1503 61.4024 25.0788 62.1659L22.6794 62.4236L21.941 58.7632C21.8399 58.6231 19.5041 58.908 19.3449 59.3573C19.2912 59.4851 19.4591 59.5642 19.4634 59.6041L19.7812 62.5632L17.7011 62.7876L17.1247 58.9144L14.5841 59.3599L14.8411 63.2653L12.9205 63.4716C12.5815 62.5288 12.984 59.8636 12.388 59.2514C12.1096 59.0363 9.76114 59.7496 9.69092 59.8791L10.0414 63.7807L7.80165 64.0213C7.73729 62.6386 7.74012 61.3076 7.36587 59.9634L4.88625 60.2297L4.70055 60.5319C4.86275 60.9218 4.63425 61.6453 4.65928 61.8784L4.92261 64.3305L3.16336 64.5183L2.88812 60.4432L0.048848 60.9404L0.96626 68.2717L3.36508 67.9179C3.29011 68.5681 3.67066 69.2695 3.71587 69.8271C3.75302 70.2915 3.39349 71.6804 3.785 71.901L6.18295 71.5484L5.74718 67.4905L7.96885 67.0813L8.39552 71.0544C8.68351 71.4132 10.6307 71.1535 10.8248 70.9754L10.607 67.3346L12.9262 66.5489L13.5073 70.5116L15.7625 70.2694L15.8767 70.0669C15.5044 69.0864 15.7403 67.9765 15.6281 66.9319L17.6025 66.388L18.1807 70.2599L20.5008 70.0108C20.9984 69.4156 20.1262 66.6959 20.5266 66.2704L22.307 65.7152C22.7611 66.6911 22.7698 68.3579 23.1219 69.2682C23.4011 69.9909 25.0976 69.5016 25.7016 69.3778L25.6612 66.1501L26.976 65.7411C27.2489 65.8039 27.5868 67.4022 27.6383 67.7906C27.6947 68.2157 27.4907 68.6388 27.6114 69.0611L30.5542 68.9084C30.7584 68.8244 30.8607 67.7909 30.8421 67.6182L30.5425 64.8277L32.4621 64.6216L32.8707 68.426C32.8757 68.473 33.0775 68.8029 33.1865 68.8253L35.6174 68.3874L35.227 64.7527C35.7255 64.175 36.7401 64.4403 37.4396 64.2587L37.8572 68.1469L40.3368 67.8806C40.4857 67.7364 40.4941 67.7148 40.4738 67.5164C40.4143 66.9531 39.9046 64.6846 40.0596 64.3433L42.2383 63.7434L42.6559 67.6316C43.1065 67.7465 44.8007 67.7548 44.9868 67.3926L44.8888 63.4556L46.8766 63.2463C46.7412 64.4995 46.8697 66.1337 47.6944 67.0905L50.3346 66.8069L50.1194 63.0904L51.8359 62.7137C51.7696 63.5356 51.7906 64.3604 51.9421 65.1786C52.0198 65.6014 52.2088 66.7515 52.6715 66.7328C53.2569 66.7092 54.4277 66.2247 55.1328 66.2141L54.7798 62.9176L56.6718 62.5356L57.0076 65.6633C57.0125 65.7083 57.2145 66.0412 57.3226 66.0637L60.273 65.8358C60.6382 65.5019 59.9774 62.8196 59.8709 62.192L61.4523 61.8506L61.7518 64.64C61.767 64.781 62.0656 65.2297 62.0386 65.5159C62.0524 65.5351 62.4096 65.6819 62.4299 65.6797L64.8302 65.4219L65.0427 65.1416L64.6524 61.5069L66.0923 61.3513L66.9712 65.1175L69.8868 65.0495Z" fill="#F7DA4D"/>
<path d="M73.2012 54.7671C74.6784 54.2313 76.243 54.0524 77.8023 53.9146L78.973 61.7911L74.0347 62.8122L73.2012 54.7671ZM97.9352 64.0003C97.5017 62.8699 97.9557 61.6246 97.2464 60.5564C93.7351 60.3638 89.2102 60.9899 89.4359 56.0241C89.5081 54.4515 91.7721 53.3691 93.0995 53.0884C94.0082 52.897 95.0687 52.946 95.9975 52.7771C96.343 52.74 96.0298 50.4653 95.958 50.081C95.9064 49.8111 95.6938 48.821 95.4157 48.7985C94.7203 48.9413 93.8706 49.233 93.191 49.3297C86.8978 50.2276 80.5909 50.5495 74.2797 50.702C73.4844 50.7212 72.4744 50.7487 71.6941 50.8069C71.1766 50.8457 69.4777 50.8662 69.4359 51.4848C70.3356 54.9583 71.1218 58.448 71.5161 62.0282C71.6723 63.4549 71.3069 65.1953 72.1449 66.5359C72.7342 66.8626 76.2877 65.8619 77.1912 65.7323C82.7706 64.9337 89.1487 64.2952 94.7604 64.0174C95.252 63.9932 97.7554 64.224 97.9352 64.0003Z" fill="#F7DA4D"/>
<path d="M90.1478 56.2556C89.898 58.7863 91.9219 59.2248 93.9635 59.1609C98.4596 59.0213 102.878 58.5567 107.319 57.8859C108.52 57.7045 109.808 57.8016 110.929 57.3033L110.793 52.611L91.5048 54.6823C90.9065 54.7466 90.208 55.6476 90.1478 56.2556Z" fill="#F7DA4D"/>
<path d="M71.6949 109.109L93.6279 164.373L79.4951 163.397L64.3757 182.309L60.9193 137.424L71.6949 109.109Z" fill="#005DB9"/>
</svg>
