<?xml version="1.0" encoding="utf-8"?>
<!-- Generator: Adobe Illustrator 16.0.3, SVG Export Plug-In . SVG Version: 6.00 Build 0)  -->
<!DOCTYPE svg PUBLIC "-//W3C//DTD SVG 1.1//EN" "http://www.w3.org/Graphics/SVG/1.1/DTD/svg11.dtd">
<svg version="1.1" id="Capa_1" xmlns="http://www.w3.org/2000/svg" xmlns:xlink="http://www.w3.org/1999/xlink" x="0px" y="0px"
	 width="139.5px" height="40px" viewBox="0 0 139.5 40" enable-background="new 0 0 139.5 40" xml:space="preserve">
<g>
	<path fill="#004CAC" d="M16.792,34.73c-2.482,0-4.692-0.354-6.627-1.064c-1.936-0.709-3.466-1.67-4.588-2.881
		c-1.124-1.211-1.973-2.549-2.549-4.012c-0.576-1.464-0.865-2.992-0.865-4.589c0-3.546,1.271-6.501,3.813-8.866
		c2.541-2.364,5.836-3.546,9.885-3.546c3.872,0,7.063,1.174,9.576,3.524c2.511,2.349,3.768,5.224,3.768,8.622
		c0,0.739-0.06,1.435-0.178,2.084H11.916c0.266,1.093,1.012,1.95,2.239,2.571c1.226,0.619,2.682,0.931,4.366,0.931
		c1.419,0,2.652-0.163,3.702-0.488c1.048-0.325,2.223-0.856,3.524-1.596l0.798,7.403C24.179,34.095,20.929,34.73,16.792,34.73
		 M11.649,20.855h8.334c-0.03-1.094-0.429-1.979-1.197-2.661c-0.769-0.679-1.759-1.019-2.97-1.019c-1.152,0-2.106,0.332-2.859,0.997
		C12.204,18.838,11.768,19.732,11.649,20.855"/>
	<rect x="31.731" y="3.965" fill="#004CAC" width="9.974" height="30.144"/>
	<path fill="#004CAC" d="M58.86,34.73c-2.482,0-4.692-0.354-6.627-1.064c-1.936-0.709-3.466-1.67-4.588-2.881
		c-1.124-1.211-1.973-2.549-2.549-4.012c-0.576-1.464-0.865-2.992-0.865-4.589c0-3.546,1.271-6.501,3.813-8.866
		c2.541-2.364,5.836-3.546,9.885-3.546c3.872,0,7.063,1.174,9.576,3.524c2.511,2.349,3.768,5.224,3.768,8.622
		c0,0.739-0.061,1.435-0.178,2.084H53.984c0.266,1.093,1.012,1.95,2.239,2.571c1.226,0.619,2.682,0.931,4.366,0.931
		c1.419,0,2.652-0.163,3.702-0.488c1.048-0.325,2.223-0.856,3.524-1.596l0.798,7.403C66.248,34.095,62.998,34.73,58.86,34.73
		 M53.718,20.855h8.334c-0.03-1.094-0.429-1.979-1.197-2.661c-0.769-0.679-1.759-1.019-2.97-1.019c-1.152,0-2.106,0.332-2.859,0.997
		C54.272,18.838,53.836,19.732,53.718,20.855"/>
	<path fill="#004CAC" d="M95.521,34.73c-1.921,0-4.477-0.288-7.669-0.864c-3.192-0.577-5.453-0.864-6.783-0.864
		c-2.481,0-4.714,0.369-6.694,1.107H73.8V3.079h21.943c2.601,0,4.713,0.643,6.339,1.928c1.625,1.286,2.438,3.008,2.438,5.165
		c0,2.01-0.709,3.635-2.128,4.876c-1.418,1.242-3.369,1.951-5.852,2.128v0.443c3.073,0.149,5.452,0.939,7.138,2.372
		c1.684,1.434,2.526,3.332,2.526,5.697c0,2.689-1.005,4.869-3.015,6.537C101.181,33.896,98.624,34.73,95.521,34.73 M85.504,15.402
		h4.609c0.976,0,1.758-0.222,2.35-0.665c0.591-0.443,0.887-1.02,0.887-1.729c0-0.738-0.288-1.322-0.864-1.751
		c-0.577-0.428-1.368-0.643-2.372-0.643h-4.609V15.402z M90.557,25.199c1.241,0,2.193-0.273,2.858-0.82s0.998-1.248,0.998-2.105
		c0-0.799-0.333-1.441-0.998-1.928c-0.665-0.488-1.572-0.732-2.726-0.732h-5.186v4.965c0.027,0,0.687,0.104,1.972,0.311
		C88.762,25.096,89.787,25.199,90.557,25.199"/>
	<polygon fill="#004CAC" points="108.864,34.109 108.864,3.079 133.646,3.079 133.646,12.477 120.567,12.477 120.567,16.023 
		135.285,16.023 135.285,20.855 120.567,20.855 120.567,24.668 136.837,24.668 136.837,34.109 	"/>
</g>
</svg>
