<svg width="331" height="275" viewBox="0 0 331 275" fill="none" xmlns="http://www.w3.org/2000/svg">
<path d="M241.774 97.8303C240.393 95.1143 226.821 81.0863 223.964 78.8583C222.388 77.629 215.077 73.4903 213.356 73.2623C209.31 72.7277 207.269 82.277 206.589 85.3117C204.441 94.901 200.494 114.697 201.54 123.918C202.144 129.25 209.786 135.214 212.377 140.162C215.278 145.704 215.713 155.334 214.832 161.46C214.504 163.744 213.677 165.918 213.258 168.174L211.133 155.957C210.138 152.192 209.673 148.3 208.317 144.626C207.166 141.508 204.785 135.809 201.138 135.437C201.15 138.909 200.518 142.19 199.121 145.345C195.626 153.237 190.217 162.233 184.368 168.586C176.124 177.542 165.309 182.748 160.416 194.754C157.881 200.976 156.214 207.882 153.553 214.164C153.341 214.664 153.334 215.357 152.637 215.468C152.442 212.46 151.241 209.341 151.022 206.366C150.33 196.921 154.64 189.414 159.74 181.953C160.632 180.648 162.326 179.945 161.932 177.878C151.284 176.5 140.012 179.09 131.406 185.553C130.886 185.706 130.609 185.469 130.81 184.957C131.117 184.182 133.73 180.938 134.454 180.112C140.324 173.41 149.952 167.848 159.089 170.814C161.17 171.492 162.892 173.477 165.274 172.949C165.925 172.804 174.885 166.08 176.042 165.112C178.002 163.473 179.17 162.485 178.316 159.669C177.454 156.834 172.17 151.882 170.604 148.79C169.342 146.301 168.749 142.993 167.997 140.286C172.574 144.722 176.653 149.333 179.938 154.816C180.48 155.72 180.985 156.689 182.133 157.681C182.582 157.728 182.133 157.681 182.545 157.466C199.788 148.45 194.308 116.181 195.933 100.121C197.249 87.1157 201.621 73.3117 208.648 62.3103C209.697 60.669 213.746 55.9277 214.002 54.705C214.18 53.853 214.03 53.4503 213.761 52.6837C213.438 51.7597 209.726 44.689 209.162 43.945C207.178 41.3263 203.222 44.0077 200.865 45.2317C184.15 53.9117 161.313 76.5903 151.008 92.381C147.754 97.3663 145.14 102.761 141.414 107.444C141.297 114.116 140.82 120.784 139.694 127.35C139.046 127.286 138.934 125.613 138.894 125.125C138.516 120.521 138.38 116.874 137.682 112.19C137.541 111.242 138.117 109.142 137.014 108.792C128.08 110.889 119.636 115.149 110.192 114.414C110.32 113.669 111.025 113.737 111.553 113.556C117.313 111.58 122.541 111.016 128.466 108.238C139.936 102.864 145.332 94.7957 152.072 84.529L152.044 84.097C136.602 66.841 111.929 63.5023 94.2157 79.6463C66.9917 104.458 75.1491 159.526 89.6357 189.34C101.942 214.666 115.888 234.421 140.788 248.533C159.74 259.276 186.858 262.386 203.972 246.798C212.558 238.977 227.989 216.225 233.542 205.634C236.982 199.072 237.385 193.265 239.334 186.366C241.42 178.984 244.988 172.114 246.684 164.614C251.482 143.406 251.849 117.642 241.774 97.8303Z" fill="#EFB4B3"/>
<path d="M109.696 66.8334C117.333 64.3267 128.387 66.4614 136.065 68.5374C143 70.4121 147.713 74.0161 152.995 78.6894C153.884 79.4761 154.928 82.2561 156.291 80.6894L164.579 70.7867C164.631 62.1387 163.875 53.0934 165.843 44.5654C168.371 33.6147 183.212 15.9294 177.988 4.78807C176.191 0.954737 171.891 -0.457261 167.887 0.126739C152.929 2.30941 144.879 18.4921 140.896 31.3401C138.959 37.5907 138.14 46.3334 135.957 51.8667C134.916 54.5067 132.671 55.7361 130.387 53.6027C127.279 50.7001 123.509 43.4614 120.457 39.6827C118.867 37.7161 117.297 35.9187 115.452 34.1787C114.667 33.4387 109.832 29.2761 109.281 29.0347C108.383 28.6441 107.573 28.4881 106.725 29.1027C105.887 29.7107 101.752 43.6627 98.6695 46.9134C97.3628 48.2894 92.5521 50.4827 92.3975 51.9854L103.495 68.7694C105.361 69.9121 107.759 67.4694 109.696 66.8334Z" fill="#EFB4B3"/>
<path d="M23.2787 240.698H43.7293C43.656 238.017 42.6773 235.841 40.792 234.171C38.9053 232.503 36.476 231.67 33.504 231.67C30.676 231.67 28.336 232.486 26.488 234.117C24.6387 235.749 23.568 237.943 23.2787 240.698ZM35.8973 274.746C29.8053 274.746 24.384 273.877 19.6347 272.135C14.884 270.395 11.1307 268.039 8.376 265.065C5.61867 262.091 3.53467 258.81 2.12133 255.221C0.706666 251.631 0 247.878 0 243.962C0 235.259 3.11733 228.009 9.35467 222.206C15.5907 216.405 23.676 213.503 33.612 213.503C43.112 213.503 50.944 216.386 57.1093 222.151C63.272 227.917 66.356 234.97 66.356 243.309C66.356 245.122 66.2093 246.827 65.92 248.422H23.9307C24.584 251.106 26.4147 253.207 29.424 254.73C32.4333 256.254 36.0053 257.015 40.14 257.015C43.62 257.015 46.648 256.617 49.2227 255.818C51.796 255.022 54.6787 253.717 57.8707 251.902L59.8293 270.069C54.0267 273.187 46.0493 274.746 35.8973 274.746Z" fill="#005DB9"/>
<path d="M72.5552 199.253H97.0298V273.224H72.5552V199.253Z" fill="#005DB9"/>
<path d="M126.509 240.698H146.96C146.887 238.017 145.908 235.841 144.023 234.171C142.136 232.503 139.707 231.67 136.735 231.67C133.907 231.67 131.567 232.486 129.719 234.117C127.869 235.749 126.799 237.943 126.509 240.698ZM139.128 274.746C133.036 274.746 127.615 273.877 122.865 272.135C118.115 270.395 114.361 268.039 111.607 265.065C108.849 262.091 106.765 258.81 105.352 255.221C103.937 251.631 103.231 247.878 103.231 243.962C103.231 235.259 106.348 228.009 112.585 222.206C118.821 216.405 126.907 213.503 136.843 213.503C146.343 213.503 154.175 216.386 160.34 222.151C166.503 227.917 169.587 234.97 169.587 243.309C169.587 245.122 169.44 246.827 169.151 248.422H127.161C127.815 251.106 129.645 253.207 132.655 254.73C135.664 256.254 139.236 257.015 143.371 257.015C146.851 257.015 149.879 256.617 152.453 255.818C155.027 255.022 157.909 253.717 161.101 251.902L163.06 270.069C157.257 273.187 149.28 274.746 139.128 274.746Z" fill="#005DB9"/>
<path d="M216.904 251.359C219.951 251.359 222.29 250.69 223.92 249.347C225.552 248.006 226.368 246.283 226.368 244.179C226.368 242.222 225.552 240.644 223.92 239.447C222.29 238.251 220.059 237.652 217.231 237.652H204.504V249.836C204.575 249.836 206.19 250.091 209.344 250.598C212.499 251.106 215.018 251.359 216.904 251.359ZM204.504 227.319H215.818C218.21 227.319 220.131 226.775 221.582 225.687C223.032 224.599 223.758 223.186 223.758 221.444C223.758 219.632 223.051 218.2 221.636 217.147C220.223 216.098 218.282 215.571 215.818 215.571H204.504V227.319ZM229.088 274.747C224.374 274.747 218.1 274.039 210.268 272.626C202.436 271.211 196.89 270.504 193.626 270.504C187.534 270.504 182.058 271.412 177.2 273.223H175.786V197.078H229.631C236.012 197.078 241.198 198.655 245.187 201.81C249.175 204.964 251.17 209.19 251.17 214.483C251.17 219.415 249.43 223.403 245.948 226.448C242.468 229.495 237.682 231.235 231.59 231.67V232.758C239.131 233.122 244.97 235.06 249.103 238.578C253.238 242.095 255.304 246.754 255.304 252.555C255.304 259.155 252.838 264.504 247.907 268.6C242.975 272.698 236.703 274.747 229.088 274.747Z" fill="#005DB9"/>
<path d="M261.829 273.224V197.078H322.637V220.14H290.547V228.841H326.662V240.698H290.547V250.054H330.47V273.224H261.829Z" fill="#005DB9"/>
</svg>
