<svg width="402" height="386" viewBox="0 0 402 386" fill="none" xmlns="http://www.w3.org/2000/svg">
<g clip-path="url(#clip0_1750_170)">
<path d="M331 7.27299L351.658 25.0006L375.561 16.1368L399.646 45L400 7L331 7.27299Z" fill="#005DB9"/>
<path d="M89.3051 283.967C86.3198 288.09 82.1091 291.655 78.4305 295.068C75.0638 298.192 71.9798 301.643 68.6745 304.832L67.9678 305.067L40.5638 277.671C40.7238 276.756 41.6051 276.454 42.1051 275.914C46.7571 270.896 51.9785 265.663 56.9078 260.86C60.6918 257.175 64.4358 253.004 69.7171 251.568C88.6385 246.428 102.413 267.535 90.4025 283.067C90.0611 283.508 89.4571 283.758 89.3051 283.967Z" fill="#EFB4B3"/>
<path d="M22.0669 323.317C22.8869 324.194 24.2562 323.74 24.2815 322.526C24.2922 322.012 23.0775 319.897 22.8202 319.156C20.7709 313.249 22.2549 307.476 26.2322 302.828C27.7909 301.006 29.7949 299.64 31.5175 297.994C31.6642 294.222 27.8909 297.848 26.6495 298.956C22.0629 303.048 18.8629 309.184 19.4349 315.488C19.5815 317.097 21.0162 322.193 22.0669 323.317ZM20.4922 297.436C25.7349 291.996 31.1322 286.629 36.5802 281.438C37.1069 280.937 38.0029 279.42 38.8109 279.512L66.1682 307.241L42.9029 330.312C22.6495 343.216 1.17355 318.509 17.6402 300.114C18.5122 299.14 19.6309 298.329 20.4922 297.436Z" fill="#176A7B"/>
<path d="M22.0669 323.317C21.0162 322.193 19.5815 317.097 19.4349 315.488C18.8629 309.184 22.0629 303.048 26.6495 298.956C27.8909 297.848 31.6642 294.222 31.5175 297.994C29.7949 299.64 27.7909 301.006 26.2322 302.828C22.2549 307.476 20.7709 313.249 22.8202 319.156C23.0775 319.897 24.2922 322.012 24.2815 322.526C24.2562 323.74 22.8869 324.194 22.0669 323.317Z" fill="#EFB4B3"/>
<path d="M40.8796 221.321C40.3929 224.997 38.9262 228.741 37.7502 232.202C36.6729 235.371 35.8889 238.65 34.8729 241.839L34.5022 242.234L7.4489 234.154C7.23557 233.513 7.69423 233.013 7.8289 232.494C9.07423 227.667 10.6102 222.503 12.1102 217.718C13.2596 214.046 14.2169 210.075 17.1062 207.327C27.4596 197.482 43.5969 206.249 41.2716 220.363C41.2062 220.765 40.9049 221.134 40.8796 221.321Z" fill="#EFB4B3"/>
<path d="M11.3881 269.823C12.2174 270.102 12.9374 269.336 12.5334 268.55C12.3628 268.216 10.8521 267.28 10.4308 266.894C7.07208 263.816 6.02542 259.6 6.96675 255.244C7.33608 253.538 8.14808 251.967 8.68275 250.316C7.47075 247.847 6.30675 251.478 5.89475 252.618C4.37075 256.828 4.44142 261.871 6.99075 265.714C7.64142 266.695 10.3254 269.466 11.3881 269.823ZM1.42009 253.774C2.89875 248.471 4.50275 243.162 6.19875 237.948C6.36275 237.444 6.41208 236.162 6.96275 235.94L34.1001 244.251L27.1681 267.096C18.6494 282.38 -3.67192 273.972 0.518751 256.478C0.741418 255.551 1.17742 254.644 1.42009 253.774Z" fill="#176A7B"/>
<path d="M11.3881 269.823C10.3254 269.466 7.64143 266.695 6.99076 265.714C4.44143 261.871 4.37077 256.829 5.89477 252.618C6.30677 251.478 7.47076 247.847 8.68276 250.317C8.1481 251.967 7.3361 253.538 6.96676 255.245C6.02543 259.601 7.0721 263.817 10.4308 266.894C10.8521 267.281 12.3628 268.217 12.5334 268.55C12.9374 269.337 12.2174 270.102 11.3881 269.823Z" fill="#EFB4B3"/>
<path d="M47.6036 182.188C48.0902 185.864 49.5569 189.608 50.7342 193.069C51.8102 196.238 52.5942 199.517 53.6102 202.706L53.9809 203.101L81.0342 195.021C81.2476 194.38 80.7889 193.88 80.6542 193.361C79.4089 188.534 77.8729 183.37 76.3729 178.585C75.2236 174.913 74.2662 170.942 71.3769 168.194C61.0236 158.349 44.8862 167.116 47.2116 181.23C47.2769 181.632 47.5782 182.001 47.6036 182.188Z" fill="#F7DA4D"/>
<path d="M81.4924 226.581C84.0417 222.737 84.1124 217.696 82.5884 213.485C82.1764 212.345 81.0124 208.713 79.8004 211.184C80.335 212.835 81.147 214.405 81.5164 216.112C82.4577 220.468 81.411 224.684 78.0524 227.761C77.631 228.148 76.1204 229.084 75.9497 229.417C75.5457 230.204 76.2657 230.969 77.095 230.691C78.1577 230.333 80.8417 227.563 81.4924 226.581ZM87.9644 217.345C92.155 234.84 69.835 243.248 61.315 227.964L54.383 205.119L81.5204 196.808C82.071 197.029 82.1204 198.312 82.2844 198.816C83.9804 204.029 85.5844 209.339 87.063 214.641C87.3057 215.512 87.7417 216.419 87.9644 217.345Z" fill="#176A7B"/>
<path d="M77.095 230.691C78.1577 230.333 80.8417 227.563 81.4923 226.581C84.0417 222.739 84.1123 217.696 82.5883 213.485C82.1763 212.345 81.0123 208.715 79.8003 211.184C80.335 212.835 81.147 214.405 81.5163 216.112C82.4577 220.468 81.411 224.684 78.0523 227.761C77.631 228.148 76.1203 229.084 75.9497 229.417C75.5457 230.204 76.2657 230.969 77.095 230.691Z" fill="#F7DA4D"/>
<path d="M285.052 31H153.333L113 177.775L171.515 178.284L144.705 386L297 115.223L237.153 111.155L285.052 31Z" fill="#F7DA4D"/>
<path d="M271.04 75.4551C271.322 76.4203 272.297 75.9731 272.752 76.0136C276.033 76.3111 278.436 74.9631 280.921 75.0567C282.613 75.1191 285.733 76.7147 287.487 76.6138C288.085 76.5794 288.621 76.1988 288.017 75.7058C287.515 75.2949 285.242 74.9049 284.538 74.4722L290.367 72.9411C294.256 74.572 298.454 75.3604 302.568 76.2133C302.72 75.48 302.073 75.323 301.542 75.09C299.213 74.0676 296.091 73.4893 293.604 72.575C293.344 72.4793 292.741 72.4356 292.735 72.1153L298.779 70.1401C301.438 71.4714 304.452 72.8205 307.487 72.7258L307.366 72.0955L300.522 69.4443L303.902 67.6782C305.602 68.479 307.375 69.1572 309.175 69.7074C309.828 69.9071 313.592 71.0648 313.82 70.6581L313.814 69.8811L305.645 66.8825L310.083 64.7762L320.706 68.6226L321.02 68.1108C321.01 67.3443 317.146 65.9131 316.35 65.6031C314.996 65.0758 313.562 64.7201 312.204 64.2114C312.019 64.1418 311.625 64.1646 311.891 63.9088C318.576 60.8082 324.805 56.9681 331.12 53.2112C332.296 52.5122 333.686 51.9423 334.879 51.2308C337.778 49.5032 340.637 47.6008 343.248 45.4561L343.551 45.7588C341.607 48.927 339.554 52.0588 338.125 55.5057C336.483 55.8999 332.985 56.1412 333.555 58.6385C333.799 59.7036 335.136 60.0448 334.698 61.5103C334.365 62.6222 330.955 63.0372 331.506 65.4055C331.651 66.0306 332.312 66.2085 332.251 66.8294C332.171 67.6355 330.121 71.2457 329.578 72.1756C322.14 84.9492 312.374 96.5236 300.176 104.887C299.37 105.44 295.686 107.509 295.422 107.92C294.838 108.829 295.646 109.094 295.453 109.57C291.679 115.632 288.662 122.405 284.583 128.246C279.634 135.332 274.429 142.137 269.583 149.327C266.375 154.086 262.469 158.161 258.828 162.571L258.304 162.678C251.595 159.993 244.698 157.671 237.612 156.191C238.035 155.274 238.696 153.988 238.824 152.997C238.883 152.538 239.01 151.464 238.328 151.467C237.535 151.471 236.573 155.101 235.781 155.675C233.885 155.631 231.52 154.524 229.83 155.68C230.079 156.093 230.415 155.928 230.747 155.987C232.199 156.245 233.702 156.334 235.153 156.605L231.049 161.634C230.678 161.79 225.613 159.736 224.508 159.566C223.746 159.45 222.956 159.23 223.062 160.293L230.03 162.552C230.311 162.825 224.574 167.287 223.813 167.22C222.585 166.735 218.326 164.495 217.255 164.83L216.916 165.316L222.652 167.984L220.326 169.08C219.713 168.467 217.181 166.49 216.407 166.65L216.195 167.062L219.578 169.52C217.905 169.842 216.232 170.321 214.533 170.522C206.636 171.45 198.756 167.971 192.347 163.682C193.253 162.942 193.61 159.821 194.016 159.319C194.132 159.176 196.082 157.985 196.521 157.622C197.162 157.093 199.249 154.933 199.925 155.059C200.475 155.162 201.342 156.028 201.956 156.296C203.434 156.942 205.591 157.061 206.782 155.792C207.357 155.18 207.391 154.377 207.806 153.74C208.376 152.867 209.813 151.847 210.558 150.957C213.388 147.578 215.144 142.916 215.688 138.557C216.423 139.269 216.54 140.13 217.429 140.812C219.256 142.212 227.776 144.832 230.441 145.631C234.14 146.741 238.005 147.498 241.755 148.459C246.781 149.746 250.668 151.579 255.785 148.848C256.726 148.345 256.574 148.159 257.124 147.644C257.171 147.601 257.406 147.755 257.578 147.586C258.536 146.653 260.146 141.665 260.617 140.149C261.495 137.325 261.936 133.723 262.873 131.128C263.048 130.641 263.36 129.79 263.946 129.737C267.162 130.019 268.915 131.491 270.714 128.107C272.348 125.032 273.915 118.736 274.269 115.26C274.467 113.314 274.179 112.763 272.52 111.927C267.387 109.34 262.869 109.298 257.445 108.146C245.646 105.639 233.707 100.747 221.501 99.825C220.93 99.7823 220.288 99.7293 219.729 99.8458C218.241 100.153 216.107 103.092 215.586 104.513C211.464 102.873 207.007 101.152 202.573 100.616C202.741 97.2777 200.738 95.4232 198 94.017C191.793 90.829 184.802 89.246 178.286 86.8818C173.591 85.1791 169.093 82.843 164.256 81.5387C165.182 75.532 168.51 70.475 164.542 64.7492C163.93 63.8651 163.042 63.163 162.415 62.3673C157.424 56.0393 152.248 49.8308 147.98 42.9754L131.674 13.6681C134.386 17.1213 136.539 20.9781 139.259 24.4281C144.822 31.4843 151.608 37.2361 158.924 42.3805L154.095 43.1835C152.705 43.8481 153.542 44.5876 154.746 44.6136C156.929 44.6615 159.62 44.3162 161.851 44.2641L165.481 45.867L158.876 46.5326C158.223 46.6502 157.725 47.2212 158.432 47.6913C159.325 48.2842 164.869 48.2239 166.207 48.1282C167.019 48.0699 168.496 47.5603 169.072 47.5935C169.782 47.6341 171.299 48.8469 172.243 48.7377C172.292 49.0268 171.88 49.0362 171.675 49.0861C169.46 49.6228 166.921 49.4782 164.849 50.3124C163.884 51.7093 167.511 51.4555 168.257 51.4097C170.408 51.2776 173.464 49.9484 175.011 49.9484C176.717 49.9494 179.363 51.6749 181.261 51.6084C181.19 51.9995 180.834 51.9485 180.554 52.0265C178.956 52.4675 177.592 52.2917 176.038 52.429C175.409 52.4842 173.492 52.6048 173.112 52.7827C172.181 53.2195 172.46 54.5394 173.777 54.6861C178.492 55.2134 179.75 54.7516 183.928 53.1478C186.253 52.2553 188.883 53.3339 191.406 53.4494C192.565 53.5035 197.751 53.5617 198.022 52.0879C198.058 51.8871 197.892 51.6282 197.832 51.4243C194.831 51.7384 191.563 51.3879 188.565 50.9614C168.534 48.1157 152.358 37.7041 140.193 21.8538C137.168 17.9108 134.583 13.3166 131.461 9.47024C129.375 6.90115 126.688 4.59108 124.5 2.08025C129.895 2.15097 134.904 3.32005 139.861 5.36907C147.887 8.686 155.308 13.8699 163.232 17.2534C169.167 19.7882 175.753 22.1191 181.825 24.4853C187.219 26.5864 192.299 27.9396 197.381 30.8581C200.463 32.6284 203.309 35.1143 206.67 36.2282C206.236 37.0738 201.202 37.2111 202.182 38.6683C202.215 38.7162 202.762 38.8618 202.9 38.8763C204.601 39.0459 208.49 38.0827 210.463 37.8685C214.574 37.4223 218.638 37.2423 222.765 37.4472C225.764 37.597 228.748 38.1015 231.743 38.3053C232.409 38.4811 231.406 39.3777 231.676 39.9102C232.079 40.4844 234.9 38.8046 235.424 38.4457C236.357 37.8092 237.789 35.9339 238.9 36.2605C239.866 36.5444 239.255 37.7208 239.243 38.3709C239.208 40.087 238.656 44.1778 241.402 42.1725C241.98 41.7491 243.318 39.7927 243.663 39.7147C244.37 39.5545 244.337 41.511 244.516 41.9249C244.666 42.4231 245.371 42.1787 245.718 41.978C246.654 41.4361 246.888 39.6658 248.06 39.7126C248.414 39.9498 247.976 46.2778 250.596 45.6361L250.901 45.3219L250.621 42.5854C257.075 44.6053 264.178 45.8274 270.332 48.6992C272.955 49.9234 275.251 51.8279 277.978 52.8389L276.142 53.3547C274.448 55.3372 278.52 54.6029 279.667 54.4219C291.609 52.5403 303.062 47.3346 314.859 45.142C320.614 44.0717 326.791 43.2916 332.615 42.6083C336.488 42.1538 340.494 41.5921 344.372 41.6597C341.621 43.871 338.771 45.9658 335.748 47.7953C324.219 54.7766 310.415 62.2529 297.994 67.4317C289.626 70.9212 281.89 71.2946 273.503 73.4768C272.737 73.6755 270.722 74.3702 271.04 75.4551ZM294.952 122.494C295.738 124.296 297.138 126.11 297.691 127.956C298.811 131.695 297.238 139.068 296.158 142.906C295.743 144.382 294.677 146.578 294.461 147.984C294.429 148.185 294.478 148.708 294.603 148.786C295.816 149.541 297.436 146.033 297.828 145.192C299.844 140.861 300.555 135.514 300.523 130.765L302.746 134.792C310.539 150.661 295.607 164.574 292.998 179.323C291.647 186.966 291.701 196.357 292.531 204.075C293.696 214.916 297.01 225.046 296.63 236.07C296.484 240.28 296.683 246.42 295.964 250.374C295.579 252.493 293.822 252.103 292.186 252.745C288.496 254.192 286.869 258.586 285.556 262.011C284.125 261.396 284.523 263.697 284.141 263.972C280.924 264.295 277.819 264.093 274.829 265.521C271.957 266.892 269.572 270.954 268.037 273.695C267.137 275.302 266.579 277.412 265.278 278.621C265.385 276.288 265.331 273.872 265.482 271.548C266.18 260.838 267.532 248.543 269.197 237.942C270.467 229.85 272.715 223.899 271.599 215.385C271.163 212.064 270.358 208.704 268.779 205.746C273.483 200.434 277.676 194.304 281.469 188.292C288.039 177.88 293.188 165.177 298.64 154.002C299.224 152.807 300.458 151.781 300.081 150.277L299.561 150.082C298.915 150.104 297.764 151.979 297.411 152.569C290.799 163.635 286.54 176.157 279.499 187.14C274.86 194.376 269.579 201.984 263.742 208.284C259.491 212.871 250.358 217.844 244.374 219.662C233.89 222.846 225.187 224.381 214.201 222.584C205.486 221.159 200.862 216.528 193.864 211.766C193.346 211.485 193.235 210.599 192.852 210.318C189.522 207.88 186.213 204.889 183.515 201.616C183.324 201.385 183.017 201.285 183.106 200.899C186.057 202.032 188.909 203.411 191.865 204.538C197.704 206.763 208.222 209.864 214.125 207.23C219.476 204.842 224.563 201.522 230.037 199.367C238.833 195.903 247.389 194.78 255.467 189.338C257.938 187.673 258.977 187.132 260.328 184.361C260.696 183.607 260.918 182.483 261.294 181.841C261.913 180.784 263.442 179.615 264.042 178.431L264.32 178.36L272.234 183.98C262.267 197.174 252.169 210.826 235.659 216.067C235.142 216.878 236.936 216.676 237.253 216.635C240.905 216.174 246.745 213.04 249.89 211.032C259.826 204.685 266.19 193.927 273.262 184.786C273.639 184.596 276.246 187 277.003 187.218C277.323 187.31 277.289 187.422 277.567 187.056L273.885 183.775C274.524 183.253 277.404 179.244 276.954 178.752C276.569 178.663 276.469 178.97 276.238 179.161C275 180.176 274.005 181.829 272.961 183.055C272.268 182.081 264.76 177.913 264.877 177.434C264.913 177.284 266.537 175.362 266.81 175.056C270.245 171.194 274.651 168.737 278.085 165.013C282.023 160.744 287.054 153.437 288.576 147.828C288.944 146.472 288.764 145.283 287.645 146.896C286.077 149.154 284.748 152.646 283.189 155.151C281.781 157.414 279.897 159.996 278.18 162.032C273.683 167.366 267.174 170.53 263.228 176.401L253.394 171.47L259.892 164.63L267.119 167.264C265.631 165.485 262.953 164.921 261.027 163.827C260.852 163.729 260.678 163.885 260.788 163.497C263.438 160.028 266.575 156.93 269.135 153.39C273.135 147.855 276.714 141.75 280.769 136.118C284.268 131.258 288.493 126.833 290.687 121.126C291.002 121.123 290.976 121.85 291.027 122.116C291.48 124.479 292.46 128.084 291.767 130.309C290.091 135.682 282.316 142.952 281.686 147.699C281.621 148.194 281.657 149.816 282.383 149.012C284.889 142.631 291.283 137.872 293.357 131.285C294.768 126.8 291.248 121.819 292.012 118.863C292.168 118.261 292.803 117.659 292.941 117.025C293.222 116.964 293.161 117.239 293.243 117.434C293.91 119.044 294.224 120.823 294.952 122.494ZM205.847 259.039C208.093 265.208 210.755 271.321 214.751 276.563L214.66 277.39C211.725 276.008 208.077 274.722 205.549 272.667C201.509 269.383 198.837 263.365 193.609 261.443C190.878 260.439 187.24 260.385 185.257 262.826C182.094 257.196 174.274 252.48 168.752 258.002C168.295 258.46 168.029 259.166 167.533 259.547C168.578 252.365 171.587 245.685 173.168 238.633C175.22 229.495 175.651 222.654 174.701 213.307C173.915 205.56 172.303 197.935 171.222 190.236L173.685 193.817L174.908 194.947L174.394 195.146L174.388 195.781C178.591 197.441 180.741 201.102 183.615 204.182C186.38 207.148 189.294 209.992 192.209 212.806C196.179 228.269 200.385 244.04 205.847 259.039ZM244.99 179.158L252.497 172.426L262.406 177.318C261.568 178.711 260.195 179.975 259.369 181.35C258.142 183.393 257.986 185.82 255.334 186.75C252.188 183.913 248.723 181.269 244.99 179.158ZM232.695 162.448C234.216 160.845 235.719 159.18 236.832 157.258L237.098 157.197C244.215 158.704 251.063 161.168 257.899 163.578C255.983 166.058 253.793 168.515 251.45 170.543L232.695 162.448ZM243.457 177.928L225.932 168.191C228.089 166.784 230.018 165.034 231.936 163.409L250.521 171.37C250.715 171.637 249.545 172.67 249.295 172.909C248.616 173.557 243.842 177.918 243.457 177.928ZM242.107 179.25C240.016 181.327 236.246 184.175 233.783 185.89C227.199 190.473 215.793 196.981 207.613 195.545C204.664 195.027 202.723 191.934 200.634 190.02C198.199 187.788 191.047 182.908 190.887 179.676C190.881 179.572 190.892 179.468 190.894 179.366C193.389 180.851 193.038 178.335 194.301 177.14C195.381 177.564 196.087 178.062 197.326 177.914C198.251 177.802 198.703 177.215 199.441 176.95C201.002 176.391 202.649 176.144 204.208 175.568C205.741 175.002 208.36 174.012 208.516 172.187C212.661 172.806 216.97 172.221 220.911 170.835C221.735 170.908 226.108 176.216 226.758 177.206C227.533 178.39 228.008 179.874 229.004 180.801C228.301 176.561 224.688 173.372 221.834 170.445L224.599 168.979C230.705 171.871 236.447 175.445 242.324 178.753C242.399 179.067 242.278 179.081 242.107 179.25ZM190.497 172.685L190.005 172.424L188.025 174.239C187.823 173.47 186.885 171.339 185.912 171.599C185.632 171.675 185.435 172.135 185.23 172.174C184.773 172.261 181.937 168.228 181.502 167.538C180.548 166.028 179.739 164.378 179.006 162.757C179.905 163.13 180.642 163.818 181.53 164.229C183.187 164.994 185.265 165.336 187.092 165.429C188.68 165.51 190.338 165.555 191.785 164.838C195.835 168.613 201.079 170.731 206.464 171.78L203.036 173.37C201.909 173.818 200.689 173.954 199.564 174.407C198.484 174.842 197.117 176.224 196.171 176.045C195.657 175.948 194.917 175.382 194.424 175.3C192.807 175.031 192.186 177.801 192.019 177.724C189.874 176.3 190.982 174.687 190.497 172.685ZM175.642 156.176C174.947 155.013 173.337 151.598 173.264 150.35C173.226 149.687 174.998 150.341 175.216 150.651C176.329 149.164 173.994 148.906 172.878 148.995L172.241 146.045C173.232 145.767 174.14 146.457 175.011 146.762C175.458 146.883 175.382 146.35 175.28 146.08C174.99 145.315 173.014 144.858 172.264 144.689L172.245 142.043L177.678 145.937C178.16 146.041 178.015 145.524 177.94 145.264C177.773 144.685 177.181 144.187 176.755 143.783C175.986 143.053 172.627 140.856 172.341 140.4C172.139 140.077 172.37 139.158 172.561 139.165C173.389 139.45 177.435 141.777 177.983 141.222C177.981 140.999 178.019 140.758 177.944 140.543C177.653 139.708 173.625 138.211 172.754 137.534C172.288 136.775 173.461 134.616 172.754 133.84C171.869 133.589 171.024 136.069 171.013 136.712C170.918 136.798 168.84 135.863 168.667 135.678C168.226 135.205 167.27 132.802 166.964 132.049C166.277 130.358 164.704 126.353 164.457 124.713C164.39 124.266 164.419 124.44 164.665 124.504C170.629 126.045 177.079 129.149 183.106 130.865C184.737 131.33 187.016 131.959 188.635 131.584C187.923 135.683 186.207 139.579 185.948 143.759C184.179 144.581 183.981 145.363 184.123 147.28C184.187 148.142 184.64 148.826 184.704 149.369C184.761 149.853 184.28 150.385 184.743 150.759C186.007 151.631 187.205 150.449 188.323 150.657C190.147 150.999 191.133 157.444 192.434 158.843L190.588 163.169C190.437 163.394 190.206 163.354 189.981 163.381C188.607 163.551 184.685 163.211 183.347 162.819C180.711 162.05 177.041 158.515 175.642 156.176ZM204.337 154.746C203.029 154.615 201.819 152.895 200.193 152.72C197.84 152.466 196.145 155.151 194.271 156.186C193.407 155.202 193.365 153.824 192.891 152.653C191.649 149.579 189.553 146.758 185.974 148.81V145.939C189.445 146.153 191.596 149.682 194.992 150.756C197.408 151.522 203.191 150.605 205.044 152.18C206.164 153.13 206.094 154.922 204.337 154.746ZM196.734 149.218C193.914 148.933 191.852 146.364 189.645 145.034C189.22 144.777 187.695 144.265 187.628 143.969C188.753 139.949 190.305 135.35 189.662 131.18C191.48 130.619 193.066 128.134 193.856 126.45C195.907 122.076 197.141 116.886 200.822 113.326C201.8 112.38 202.955 112.923 204.166 113.275C206.112 113.839 210.16 115.004 211.801 115.887C213.254 116.67 213.414 117.795 213.615 119.404C214.071 123.029 213.98 126.867 214.244 130.446C214.365 132.076 215.22 135.943 215.068 137.204C214.954 138.16 213.018 142.93 212.503 144.087C211.557 146.214 209.204 150.275 207.579 151.872C207.411 152.039 207.399 152.169 207.083 152.09C205.283 148.526 200.034 149.552 196.734 149.218ZM163.842 121.947C163.755 121.859 163.185 122.113 162.949 122.085C162.056 121.985 157.44 119.917 156.764 119.289C153.024 115.82 153.544 106.478 154.236 101.771C154.429 100.464 155.346 98.4843 154.989 97.2767C154.673 96.2116 150.137 95.3951 149.291 94.1158C149.383 92.4974 149.444 90.6397 149.729 89.0567C149.979 87.6629 151.677 83.5118 152.579 82.4759C153.651 81.2423 154.845 81.8008 156.299 82.0213C164.148 83.2112 169.634 86.162 176.852 88.728C182.606 90.7739 188.472 92.1448 194.104 94.6348C196.067 95.5022 199.455 96.6786 200.125 98.8629C200.441 99.8926 200.184 101.641 200.996 102.399C201.557 102.924 204.534 103.087 205.647 103.385C208.16 104.06 214.801 107.208 216.968 105.546C217.744 104.952 219.273 101.594 220.512 101.432C227.641 102.239 234.64 103.725 241.549 105.599C246.872 107.041 252.115 108.982 257.524 110.118C261.698 110.995 265.897 111.355 270.045 112.353C270.846 112.546 271.762 113.365 272.619 113.569C272.741 113.764 272.654 114.182 272.63 114.432C272.476 116.034 271.351 120.418 270.865 122.105C270.637 122.897 268.798 127.778 268.451 128.103C268.139 128.395 266.654 128.065 266.188 127.909C265.851 127.798 265.852 127.542 265.729 127.5C263.857 126.875 263.081 126.503 261.882 128.496C260.407 132.663 259.376 136.994 257.954 141.176C256.796 144.58 255.917 147.502 251.804 148.146C247.887 148.759 236.18 145.264 231.922 143.942C228.295 142.817 223.858 141.327 220.345 139.943C217.473 138.814 217.4 137.859 216.942 134.941C216.08 129.443 216.603 123.613 215.782 118.159C215.747 117.923 215.934 117.583 215.855 117.18C215.398 114.823 212.44 113.94 210.515 113.278C208.726 112.662 204.051 111.036 202.41 110.913C199.838 110.718 198.414 112.095 197.075 114.086C194.407 118.053 193.566 121.451 191.864 125.687C189.766 130.908 187.738 130.544 182.693 129.023C177.835 127.559 172.594 125.596 167.843 123.788C166.822 123.399 164.75 122.992 163.975 122.57C163.706 122.425 163.896 122.002 163.842 121.947ZM344.678 39.5056C334.515 40.3627 324.244 41.3914 314.212 43.2625C302.988 45.3563 292.249 50.0118 280.999 52.1804C277.131 50.3561 273.698 47.658 269.781 45.9699C263.523 43.2719 256.826 41.6628 250.253 39.9238C249.387 36.2917 248.125 34.1615 245.705 38.4811C245.702 37.364 244.933 36.4061 243.762 36.947C243.503 37.0666 241.373 40.087 241.098 39.7116C241.073 38.4832 241.426 37.4046 241.278 36.146C240.732 31.5415 237.033 35.4793 234.857 36.405C227.643 35.5032 219.971 34.5547 212.744 35.4346C211.263 35.6146 209.763 35.8902 208.311 36.2251C208.48 35.6052 208.418 35.1288 207.894 34.692C207.12 34.045 205.227 33.2525 204.228 32.6201C200.777 30.4317 197.406 28.0404 193.628 26.4116C183.939 22.2335 172.93 19.3451 163.295 14.935C154.609 10.9597 146.64 5.14752 137.452 2.24352C132.373 0.637589 127.438 0.426464 122.168 1.69469e-05L121.621 0.269378C121.581 0.788395 121.612 1.22319 121.79 1.71725C122.384 3.37415 125.334 7.15703 126.429 8.96891C133.164 20.1158 138.703 31.9315 145.316 42.9765C149.526 50.0077 154.941 56.6654 160.16 62.982C161.045 64.0523 162.291 65.0113 163.109 66.1835C166.141 70.5333 163.792 73.8918 163.081 78.4257C162.939 79.3285 163.166 80.2531 162.807 81.13C159.208 80.9365 153.699 78.0221 150.937 81.2433C148.969 83.5399 146.778 90.9975 147.031 93.965C147.268 96.7493 150.981 97.3828 153.189 97.9548C152.963 98.8941 152.554 99.7813 152.389 100.742C151.692 104.852 151.377 112.717 152.946 116.548C153.35 117.533 154.975 120.025 155.749 120.715C156.918 121.756 162.656 123.576 162.919 123.998C163.547 127.611 164.862 131.028 166.096 134.453C161.788 133.187 158.369 129.825 154.686 127.315C146.723 121.887 137.664 115.854 128.876 111.926C126.54 110.881 119.438 107.878 117.243 109.418L117.121 110.05C122.586 110.181 127.951 112.97 132.701 115.482C140.844 119.788 148.572 125.02 156.056 130.351C145.433 126.768 134.905 122.536 123.972 119.91C121.751 119.376 115.142 117.816 113.279 118.612C112.987 118.736 112.97 118.662 113.024 119.072C123.015 120.677 132.69 123.793 142.228 127.069C147.967 129.039 157.185 131.851 162.267 134.7C164.862 136.154 167.41 138.716 170 140.291C170.375 140.557 170.415 140.889 170.42 141.321C170.43 142.164 170.062 143.216 170.09 144.096C165.266 143.126 160.397 142.295 155.515 141.661C147.369 140.606 130.551 138.506 123.11 140.959C122.748 141.078 121.702 141.308 121.837 141.836L131.356 141.214C144.448 141.588 157.534 143.105 170.373 145.558L170.794 148.791C165.386 149.606 158.278 149.435 153.32 151.916C152.733 152.209 151.808 152.551 151.754 153.32C157.97 151.17 164.623 150.307 171.193 150.273C171.899 152.736 172.859 155.428 174.208 157.612C174.775 158.529 175.651 159.274 176.109 160.016C177.646 162.514 178.174 165.831 180.189 168.851C180.969 170.019 183.012 172.819 184.023 173.627C184.323 173.868 184.638 174.06 185.045 174.04L186.176 173.214C186.659 174.35 187.196 176.877 188.84 176.085C188.415 180.673 190.167 183.627 193.448 186.549C194.233 187.248 195.261 187.796 196.017 188.488C198.213 190.504 203.116 196.167 205.536 197.009C213.77 199.877 228.216 191.77 235.013 187.121C238.138 184.982 240.983 182.424 243.892 180.012L254.62 187.162C254.743 187.344 252.128 188.98 251.814 189.17C244.951 193.299 235.849 194.804 228.398 197.932C225.247 199.253 221.805 201.055 218.686 202.568C217.021 203.376 213.523 205.62 212.01 205.934C207.093 206.956 198.81 205.202 194.061 203.571C180.881 199.046 169.65 192.455 169.989 176.8C170.127 170.442 171.779 164.975 174.701 159.367C174.893 158.868 173.825 159.041 173.618 159.106C172.818 159.361 171.371 162.545 170.979 163.436C168.674 168.667 167.407 175.17 168.176 180.875C168.57 183.809 169.182 186.739 169.607 189.696C171.279 201.325 174.326 216.53 172.825 228.036C171.239 240.194 166.05 251.179 165.073 263.138C165.023 263.762 164.776 266.419 164.971 266.726C165.086 266.905 165.469 266.957 165.583 267.136C165.935 267.683 165.494 268.643 165.474 269.281C165.241 276.76 165.4 287.544 166.305 294.92C166.42 295.86 166.636 296.791 166.92 297.691L167.326 297.69C166.516 292.991 166.646 288.188 166.516 283.431C166.389 278.813 165.675 271.426 166.314 267.046C166.434 266.232 167.237 264.039 167.579 263.185C168.488 260.92 169.953 258.436 172.448 257.704C171.71 262.507 171.592 267.513 172.041 272.364C172.182 273.889 172.689 278.309 173.696 279.321C173.888 279.513 174.714 280.035 174.907 279.85C174.872 279.232 174.349 278.843 174.132 278.27C172.571 274.152 172.948 263.002 173.475 258.422C173.499 258.214 173.615 257.332 173.806 257.281C176.186 257.048 178.429 258.2 180.202 259.685C179.762 264.388 180.233 269.111 180.885 273.767C181.312 276.817 182.21 283.309 183.54 285.875C183.784 286.347 184.567 287.603 185.15 286.926C184.208 285.874 183.933 284.459 183.616 283.134C182.83 279.854 182.242 275.731 181.878 272.363C181.465 268.541 181.221 264.612 181.362 260.78C182.052 261.404 182.601 262.174 183.065 262.972C183.5 263.72 184.104 265.807 184.859 265.914C186.067 266.083 186.047 264.892 186.494 264.273C187.747 262.539 189.927 262.276 191.869 262.878C193.055 266.768 194.1 270.696 194.926 274.685C196.15 280.59 196.573 287.603 198.124 293.222C198.257 293.703 198.524 294.837 198.989 295.024C199.406 295.192 199.3 294.726 199.292 294.518C197.596 284.048 197.107 273.237 193.353 263.239C198.277 266.014 200.679 271.152 204.933 274.718C205.214 274.954 206.006 275.304 206.041 275.358C206.064 275.394 205.82 275.829 205.882 276.208C206.142 277.76 207.793 281.334 208.364 283.179C208.826 284.674 211.089 293.549 211.673 294.017C212.304 294.523 212.655 294.092 212.571 293.34C212.229 290.313 210.383 283.971 209.389 280.923C208.875 279.352 208.292 277.811 207.49 276.367C210.171 277.467 212.749 279.038 215.648 279.479C217.559 283.075 219.194 286.938 221.112 290.518C221.226 290.733 222.333 292.909 222.652 292.564L216.945 279.919L216.915 279.648C217.272 279.595 217.78 279.464 217.907 279.099C218.401 277.687 215.598 274.583 214.782 273.271C207.801 262.056 203.657 246.206 199.854 233.457C197.965 227.129 196.464 220.696 194.378 214.433C197.856 216.587 200.9 219.411 204.433 221.49C210.894 225.294 224.804 226.201 232.081 224.791C243.968 222.489 257.084 218.603 265.585 209.514C266.19 208.867 266.904 207.698 267.525 207.148C267.741 206.957 267.797 206.709 268.045 207.046C270.097 213.647 270.447 220.173 269.309 226.98C267.909 235.357 266.234 243.08 265.278 251.656C264.075 262.44 262.881 273.631 263.441 284.454C263.46 284.821 263.798 285.102 263.814 285.478C263.885 287.161 263.006 290.535 262.819 292.465C262.509 295.655 261.367 307.358 263.22 309.489C263.524 309.839 264.411 310.436 264.24 309.495C264.061 308.502 263.521 307.656 263.424 306.415C263.097 302.267 263.627 296.862 264.047 292.668C264.535 287.798 265.204 284.736 266.967 280.21C268.727 275.689 271.241 270.573 275.11 267.546C274.792 271.887 274.635 276.22 274.494 280.567C274.399 283.554 273.991 286.804 274.279 289.809C274.349 290.53 274.441 290.981 275.315 290.924L276.537 267.066C276.594 266.829 278.571 266.35 278.902 266.316C280.549 266.144 282.45 266.442 284.128 266.316C284.152 270.983 284.565 275.705 285.182 280.335C285.328 281.435 286.455 289.665 287.304 289.689C287.658 289.447 287.624 289.15 287.627 288.772C287.649 286.379 286.638 282.387 286.382 279.747C285.947 275.247 285.963 270.689 285.538 266.212C286.878 264.823 287.536 262.958 288.228 261.19L289.763 267.341C291.176 271.631 292.71 276.307 295.314 280.037C295.562 280.392 295.933 281.09 296.421 281.08C296.008 278.98 294.595 277.048 293.723 275.068C292.005 271.171 290.459 266.245 289.725 262.047C289.31 259.671 288.95 259.157 290.396 257.107C292.383 254.286 294.378 254.979 297.035 253.397C298.141 258.051 299.97 262.718 301.859 267.129C302.875 269.502 304.037 272.317 305.332 274.523C305.422 274.675 306.158 276.082 306.462 275.748C304.429 270.487 301.99 265.392 300.107 260.065C299.342 257.902 298.104 254.762 297.732 252.58C297.581 251.692 297.996 251.168 297.247 250.203C298.266 241.412 299.684 233.911 298.437 225.029C296.094 208.334 290.589 188.132 297.616 171.845C303.368 158.514 311.949 147.874 303.834 132.882C300.959 127.571 297.512 122.648 294.93 117.177C294.798 116.897 294.232 115.614 294.201 115.434C294.02 114.375 296.536 110.89 296.681 109.49C304.095 105.408 310.8 99.9893 316.405 93.6488C322.731 86.4917 329.04 77.6445 333.227 69.0594C333.996 67.4805 334.976 66.9459 333.905 64.8615C335.817 63.7694 337.434 61.8993 336.523 59.5632C336.319 59.039 335.804 58.728 335.766 58.1694C336.724 57.8044 338.494 57.9063 339.142 57.1376L347.07 42.5147C347.57 41.7731 348.957 41.2385 348.999 40.2275C349.077 38.3116 345.762 39.4141 344.678 39.5056Z" fill="#176A7B"/>
<path d="M218.579 160.09C217.695 160.363 217.726 162.37 219.354 161.94C220.277 161.695 220.368 159.539 218.579 160.09Z" fill="#176A7B"/>
<path d="M215.995 158.071L214.379 158L214.001 158.288C213.946 159.428 216.114 159.083 215.995 158.071Z" fill="#176A7B"/>
<path d="M215.269 163L214.013 163.814C213.79 165.975 216.52 164.777 215.911 163.423L215.269 163Z" fill="#176A7B"/>
<path d="M225.142 156.009C224.195 155.923 223.658 156.507 224.244 156.832C225.356 157.449 227.04 156.181 225.142 156.009Z" fill="#176A7B"/>
<path d="M220.722 155.065C220.177 154.856 219.897 155.161 220.035 155.861C220.553 156.367 221.46 155.348 220.722 155.065Z" fill="#176A7B"/>
<path d="M210.046 162.915C210.289 163.198 211.999 162.696 212 162.547C211.124 161.826 209.73 161.694 210.046 162.915Z" fill="#176A7B"/>
<path d="M221.318 113.186C221.5 112.64 222.904 109.2 223.112 109.006C223.224 108.902 223.312 108.775 223.475 108.737L234.638 110.769C234.739 111.254 234.573 111.101 234.372 111.231C233.602 111.731 232.715 112.065 231.896 112.659C228.109 115.407 225.277 120.032 222.751 123.902L221.274 127.263C221.109 126.144 220.904 124.782 220.852 123.665C220.729 121.017 220.536 115.521 221.318 113.186ZM235.568 122.722C241.202 127.22 245.37 118.3 245.124 113.656L253.141 115.819C251.4 119.425 248.481 124.213 244.462 125.467C240.412 126.731 232.518 126.503 229.737 122.796C229.493 122.47 228.144 120.132 228.093 119.894C228.013 119.525 228.195 119.308 228.377 119.027C229.13 117.872 232.152 115.023 233.306 114.073C233.494 113.919 234.495 113.093 234.636 113.244C233.668 116.125 232.852 120.554 235.568 122.722ZM240.136 112.863C241.918 112.544 241.764 114.585 240.509 115.315C238.634 116.405 238.474 113.16 240.136 112.863ZM259.269 118.337C259.506 119.153 259.57 121.307 259.493 122.188C259.21 125.401 256.024 137.612 254.417 140.192C253.618 141.474 252.397 142.433 250.938 142.889C249.014 143.488 247.998 142.602 246.159 142.207C238.132 140.486 229.969 138.924 222.513 135.401C221.721 134.807 221.271 130.292 221.528 129.273C221.658 128.754 224.112 124.857 224.599 124.106C225.14 123.275 226.19 121.631 226.828 120.98C227.024 120.779 227.094 120.589 227.439 120.666C228.456 126.876 236.166 128.707 241.522 128.086C245.127 127.668 247.704 126.385 250.052 123.65C251.818 121.594 253.819 118.733 253.762 115.923C254.857 116.433 258.936 117.187 259.269 118.337ZM221.61 137.338C227.071 140.726 239.621 143.061 246.159 144.269C247.536 144.523 248.398 145.128 249.934 144.976C251.266 144.843 253.631 143.568 254.59 142.634C256.824 140.457 258.844 131.825 259.665 128.547C260.372 125.719 261.202 123.288 260.956 120.358C260.744 117.838 260.518 116.868 258.073 115.825C254.128 114.142 248.388 112.821 244.14 111.652C238.859 110.198 233.022 108.503 227.654 107.565C226.396 107.345 223.78 106.77 222.651 107.1C221.453 107.449 220.939 110.171 220.533 111.162C219.852 112.816 219.053 113.425 219.01 115.615C218.929 119.882 219.36 124.296 219.636 128.597C219.787 130.977 219.213 135.851 221.61 137.338Z" fill="#176A7B"/>
<path d="M163.508 118.297L162.644 107.792L163.477 92.063L172.109 94.0936C170.883 97.7569 172.626 102.343 174.128 105.789C175.401 108.709 176.058 110.013 178.958 111.57C182.461 113.453 186.557 114.393 190.4 112.954C190.501 113.591 190.527 114.385 190.701 114.991C190.903 115.696 191.495 116.192 191.345 116.808C189.799 119.077 188.836 123.371 186.427 124.751C185.8 125.11 185.112 125.33 184.458 125.626L163.944 118.679L163.508 118.297ZM161.422 112.851C161.458 113.286 162.224 117.823 161.932 117.824C159.517 116.827 157.811 114.131 157.54 111.611C157.384 110.152 157.715 108.904 157.73 107.588C157.771 103.839 157.441 98.4605 158.222 94.8909C158.598 93.1719 160.446 91.6865 162.244 91.8603L161.207 105.948C161.242 108.246 161.239 110.57 161.422 112.851ZM173.137 94.4969L179.713 96.5276C178.048 99.5859 178.174 107.513 181.79 109.181C185.427 110.856 186.716 105.116 187.423 102.811C187.481 102.619 187.46 102.35 187.727 102.409L190.198 111.531C186.573 112.69 182.921 111.875 179.709 110.017C178.418 109.27 177.807 108.9 177.006 107.614C176.05 106.076 173.137 99.0119 173.137 97.438V94.4969ZM194.877 103.771C195.819 107.159 193.169 110.91 192.453 114.17L191.328 107.273L188.963 100.177C190.435 100.649 194.453 102.244 194.877 103.771ZM180.331 125.832C181.677 126.215 185.325 127.419 186.498 126.85C186.789 126.709 186.888 126.23 187.113 126.036C190.517 123.112 192.746 117.476 194.314 113.266C194.954 111.547 196.827 106.655 196.977 105.127C197.289 101.934 194.386 100.649 191.979 99.5324C187.749 97.5696 182.432 95.7982 177.97 94.2911C173.845 92.8972 164.315 89.4181 160.339 90.0837C158.577 90.379 156.871 92.3006 156.746 94.0443C156.355 99.5057 155.807 105.298 156.068 110.833C156.23 114.244 156.667 116.371 159.589 118.514C161.961 120.253 169.239 122.339 172.361 123.353C174.943 124.192 177.729 125.094 180.331 125.832Z" fill="#176A7B"/>
<path d="M266.702 118.616C269.304 120.635 270.073 113.985 267.016 115.135C265.969 115.53 265.522 117.7 266.702 118.616Z" fill="#176A7B"/>
<path d="M267.274 121.129C265.615 120.423 264.333 122.809 265.378 123.732C266.69 124.891 269.257 121.972 267.274 121.129Z" fill="#176A7B"/>
<path d="M178 147.539L177.729 147C177.005 147.411 175.388 148.712 176.244 149.792C176.642 150.295 177.757 149.82 177.743 149.073C177.74 148.928 177.489 148.761 177.534 148.518C177.589 148.223 177.995 147.911 178 147.539Z" fill="#176A7B"/>
<path d="M180.143 143.818C180.703 144.323 182.183 143.673 181.981 143.121C181.16 142.769 179.504 143.241 180.143 143.818Z" fill="#176A7B"/>
<path d="M179.761 157.04C179.196 157.116 178.92 157.317 179.02 157.68C179.217 158.406 181.699 157.763 180.807 157.068C180.471 156.972 180.111 156.992 179.761 157.04Z" fill="#176A7B"/>
<path d="M180.619 149.107C179.237 149.593 180.424 152.179 181.7 150.36C182.496 149.223 181.561 148.775 180.619 149.107Z" fill="#176A7B"/>
<path d="M184.851 154.549C185.505 153.388 183.832 152.55 183.243 153.263C182.342 154.354 184.189 155.724 184.851 154.549Z" fill="#176A7B"/>
<path d="M401.151 77.0001L365.072 184.921L387.744 203.885L343.004 235.988L325.983 290.075L292.616 288.568L317.359 312.344L251 350.897H400.268L401.151 77.0001Z" fill="#F7DA4D"/>
<path d="M400.268 268.828L360.369 303.801L367.946 350.897H400.268V268.828Z" fill="#005DB9"/>
<path d="M221 -11.7762L261.003 -25L280.623 6.99791L257.499 20.5L294 66L221 20.5L241.384 0.739541L221 -11.7762Z" fill="#005DB9"/>
</g>
<defs>
<clipPath id="clip0_1750_170">
<rect width="401.151" height="386" fill="white"/>
</clipPath>
</defs>
</svg>
