<svg width="400" height="335" viewBox="0 0 400 335" fill="none" xmlns="http://www.w3.org/2000/svg">
<g clip-path="url(#clip0_1745_89)">
<path d="M0 104.074L16.8923 84.4505L28.6884 186.578L81.2556 4.00002L164.564 209.582L240.879 127.325L318.077 276.324L363.958 239.728L400 334.711H235.966L204.474 275.602L148.077 334.711H46.3115L0 258.956V104.074Z" fill="#F7DA4D"/>
<path d="M338.071 231.288L327.03 236.505C326.276 236.862 328.553 239.59 328.874 240.083L324.386 242.204C324.254 242.265 324.024 242.833 323.651 242.848L325.603 246.967L330.698 244.559L332.077 247.468L326.336 250.753L328.611 254.611C329.751 254.801 333.618 251.314 334.344 252.228L335.292 254.253L330.352 257.219C329.607 257.906 332.277 261.155 332.734 261.952L338.184 259.113L339.563 262.02C338.458 262.404 333.715 263.773 333.616 264.828L335.337 268.478C335.516 268.586 337.678 268.251 337.87 268.16L341.388 266.497L342.766 269.405L338.763 271.297C338.557 271.394 337.202 272.456 337.266 272.768C337.855 273.3 339.453 276.605 340.215 276.244L344.583 274.181L345.102 274.403L346.083 277.032L340.623 279.612C340.326 280.383 341.956 283.761 342.446 284.092C343.221 284.617 347.461 282.513 348.494 282.119L349.655 283.944L345.894 285.721C345.783 285.773 344.247 286.874 344.228 286.977C344.116 287.704 346.333 291.229 346.631 291.264L352.076 288.434L353.529 290.829C353.644 291.499 348.245 293.866 347.908 294.704C347.771 295.045 349.454 297.556 349.799 297.894C350.965 299.039 353.998 295.892 355.523 295.703L356.756 298.962L351.456 302.204C351.157 302.726 352.72 305.62 353.377 305.914C354.255 306.306 357.544 303.365 358.724 303.089L360.446 306.724L355.387 309.746C355.233 309.977 356.96 313.499 357.721 313.518C357.941 313.539 357.966 313.235 358.023 313.207L362.27 311.2L363.764 314.351L358.294 317.23L360.376 320.991L366.073 318.596L367.451 321.507C366.23 322.519 362.021 323.245 361.438 324.493C361.272 325.039 363.647 328.362 363.879 328.405L369.516 325.868L371.123 329.261C369.093 330.066 367.102 330.739 365.3 332.013L367.08 335.769L367.635 335.905C368.129 335.453 369.336 335.443 369.671 335.285L373.19 333.622L374.451 336.287L368.513 338.796L370.838 343L381.286 337.823L379.422 334.239C380.434 334.024 381.272 333.07 382.081 332.715C382.754 332.42 385.031 332.277 385.142 331.548L383.279 327.965L377.456 330.717L375.606 327.438L381.308 324.744C381.683 324.109 380.21 321.185 379.836 320.972L374.514 323.169L372.047 319.928L377.647 316.997L376.03 313.582L375.663 313.505C374.405 314.589 372.614 314.784 371.114 315.493L369.202 312.67L374.668 309.791L373.003 306.277C371.836 305.798 368.256 308.552 367.396 308.142L365.575 305.629C366.782 304.419 369.268 303.556 370.433 302.54C371.357 301.733 369.681 299.32 369.159 298.435L364.357 300.145L363.013 298.288C362.954 297.828 365.156 296.484 365.708 296.205C366.311 295.899 367.058 296.005 367.622 295.599L365.754 291.058C365.515 290.78 363.913 291.147 363.664 291.264L359.661 293.155L358.283 290.248L363.742 287.668C363.809 287.636 364.19 287.151 364.163 286.969L362.154 283.375L356.938 285.841C355.797 285.353 355.628 283.625 354.966 282.621L360.547 279.984L358.767 276.227C358.469 276.066 358.431 276.065 358.147 276.198C357.337 276.577 354.23 278.533 353.633 278.464L351.522 275.351L357.102 272.713C357.023 271.948 356.091 269.285 355.447 269.177L349.616 271.337L348.194 268.324C350.145 267.897 352.517 266.863 353.486 265.08L351.592 261.082L346.156 263.313L344.635 260.811C345.9 260.497 347.124 260.042 348.262 259.389C348.851 259.051 350.465 258.168 350.18 257.452C349.818 256.545 348.441 254.953 348.032 253.853L343.301 256.086L341.674 253.312L346.163 251.19C346.229 251.16 346.614 250.674 346.587 250.491L344.604 245.977C343.901 245.573 340.258 247.979 339.379 248.466L337.988 246.156L341.992 244.265C342.194 244.168 342.698 243.471 343.141 243.369C343.162 243.337 343.182 242.702 343.167 242.671L341.445 239.036L340.908 238.844L335.692 241.31L334.657 239.128L339.797 235.83L338.071 231.288Z" fill="#EFB4B3"/>
<path d="M319.979 230.587C318.337 228.567 317.204 226.219 316.137 223.856L327.798 217.753L332.086 224.921L319.979 230.587ZM320.904 186.905C319.374 188.195 317.183 188.162 315.901 189.849C317.515 195.445 320.962 202.182 313.085 204.52C310.591 205.261 307.664 202.307 306.503 200.384C305.707 199.066 305.206 197.382 304.436 196.021C304.19 195.501 300.808 197.225 300.248 197.545C299.853 197.771 298.424 198.642 298.541 199.088C299.143 200.099 300.062 201.27 300.583 202.279C305.42 211.632 309.362 221.32 313.043 231.107C313.507 232.339 314.101 233.903 314.617 235.09C314.959 235.88 315.919 238.525 316.907 238.255C321.84 234.966 326.861 231.843 332.237 229.285C334.378 228.266 337.296 227.894 338.931 225.857C339.12 224.759 335.619 219.746 334.925 218.403C330.632 210.112 326.157 200.485 322.662 191.86C322.355 191.105 321.35 187.066 320.904 186.905Z" fill="#EFB4B3"/>
<path d="M313.029 202.421C317.105 201.434 316.7 198.065 315.502 194.941C312.865 188.062 309.763 181.478 306.329 174.971C305.402 173.212 304.857 171.166 303.479 169.702L296.244 172.459L309.848 201.176C310.27 202.067 312.05 202.657 313.029 202.421Z" fill="#EFB4B3"/>
<path d="M295.513 178.438C287.007 181.558 287.575 193.249 294.552 197.731C297.647 196.743 300.208 194.62 303.117 193.236L295.513 178.438Z" fill="#EFB4B3"/>
<path d="M320.601 176.21C318.09 171.655 311.839 170.744 307.402 172.822L314.119 186.998C315.148 189.171 317.325 186.792 318.628 186.174C319.739 185.646 321.18 185.608 322.213 184.754C322.099 181.665 322.155 179.029 320.601 176.21Z" fill="#EFB4B3"/>
<path d="M233.424 147.266C236.293 149.85 233.603 154.769 234.37 158.037C239.451 159.609 242.881 160.31 246.271 164.69C247.778 166.639 248.522 168.99 249.91 170.814C254.018 176.205 259.963 176.36 255.016 184.371C254.511 185.188 249.745 190.757 249.243 190.967C245.967 192.337 242.175 190.348 238.818 190.933C235.767 191.464 224.794 196.338 223.542 199.126C222.897 200.562 223.113 203.626 223.179 205.32C223.593 216.115 224.015 230.532 228.508 240.327C231.189 246.174 235.989 251.855 239.37 257.451C240.804 259.825 241.473 262.594 243.248 265.288C243.879 266.246 249.826 273.561 250.302 273.856C252.285 275.076 257.513 274.492 259.061 276.977C260.109 278.659 260.564 282.928 258.384 284.015C253.602 284.788 246.579 283.978 242.783 280.713C228.135 268.118 215.201 249.661 199.1 238.471C186.669 232.986 178.042 242.11 173.853 252.932C172.533 256.342 166.705 275.651 168.588 277.734C169.047 278.243 171.842 278.075 172.756 281.043C174.252 285.91 172.806 287.273 168.192 287.605C160.441 288.163 156.147 287.095 155.44 278.823C154.351 266.077 156.388 253.125 156.79 240.448C156.851 238.506 157.071 235.467 156.283 233.745C154.908 230.74 143.514 230.796 139.806 230.035C136.9 229.438 126.56 224.988 124.976 225.913C124.095 226.427 117.952 241.665 116.493 244.435C112.885 251.273 106.939 255.913 110.815 264.843C111.245 265.832 116.559 273.97 117.039 274.269C118.449 275.147 120.229 273.573 122.262 274.182C122.674 274.306 126.672 277.354 126.836 277.626C130.983 284.463 120.151 284.662 116.03 284.352C108.111 283.757 108.261 279.993 103.991 274.912C100.166 270.361 92.8654 263.511 92.2479 257.366C91.2786 247.697 96.6263 235.978 90.0137 227.154C87.9033 226.992 64.4154 245.063 60.5697 247.781C57.1293 250.214 51.6058 252.521 48.8714 255.288C47.0293 257.154 41.6322 267.417 41.1124 269.98C40.009 275.43 44.2506 277.894 41.326 282.881C33.2375 284.731 28.2155 285.212 27.7648 275.564C27.4169 268.08 30.9864 263.915 33.3235 257.65C35.3375 252.246 37.156 244.916 39.824 240.072C41.8797 236.342 45.4504 233.462 47.8644 229.888C54.5121 220.04 56.1822 211.088 60.0656 200.44C62.077 194.923 69.2263 182.704 69.1403 177.959C69.0465 172.72 58.7694 153.508 56.1509 147.049C52.4838 138.001 49.2166 129.602 47.5256 119.884C46.3324 113.021 46.4522 97.9275 41.4342 93.4415C37.6328 90.0431 23.5909 86.6643 24.6552 79.878C24.8923 78.3636 27.3531 75.8656 28.846 75.6964C34.9753 75.0043 53.3996 83.625 56.9977 88.9567C61.9702 96.3233 59.7438 107.357 61.1937 115.991C63.0905 127.283 69.5702 133.885 73.9499 143.585C77.5389 151.537 78.6788 160.728 84.2427 167.783C91.7255 168.709 98.9139 165.802 106.291 165.291C129.133 163.71 149.988 169.06 171.893 172.619C183.761 174.548 186.869 179.937 199.3 172.311C203.109 169.976 205.015 166.843 208.279 164.366C211.478 161.938 215.49 160.85 218.587 158.396C221.524 156.068 227.626 146.835 229.064 146.049C229.951 145.564 232.777 146.683 233.424 147.266Z" fill="#EFB4B3"/>
<path d="M60.4977 100.045L126.496 78.3087L158.864 130.904L120.716 153.097L180.934 227.885L60.4977 153.097L94.1273 120.618L60.4977 100.045Z" fill="#176A7B"/>
<path d="M0 258.956L46.3115 334.712H0V258.956Z" fill="#005DB9"/>
</g>
<defs>
<clipPath id="clip0_1745_89">
<rect width="400" height="335" fill="white"/>
</clipPath>
</defs>
</svg>
