<svg width="350" height="459" viewBox="0 0 387 507" fill="none" xmlns="http://www.w3.org/2000/svg">
<path d="M258.671 123.405C259.132 124.984 260.729 124.252 261.474 124.319C266.842 124.805 270.778 122.601 274.844 122.752C277.613 122.856 282.72 125.466 285.589 125.301C286.571 125.243 287.447 124.622 286.459 123.816C285.637 123.145 281.916 122.505 280.765 121.799L290.304 119.294C296.669 121.96 303.54 123.25 310.276 124.646C310.525 123.445 309.463 123.188 308.595 122.808C304.785 121.138 299.674 120.19 295.604 118.695C295.178 118.537 294.188 118.468 294.18 117.944L304.074 114.713C308.424 116.891 313.358 119.097 318.325 118.942L318.126 117.91L306.925 113.576L312.458 110.685C315.241 111.997 318.142 113.104 321.087 114.004C322.158 114.332 328.318 116.226 328.691 115.561L328.681 114.29L315.309 109.387L322.574 105.94L339.962 112.23L340.476 111.394C340.458 110.141 334.134 107.8 332.832 107.292C330.616 106.43 328.269 105.849 326.047 105.016C325.742 104.903 325.097 104.939 325.533 104.523C336.474 99.4514 346.672 93.1698 357.007 87.0275C358.93 85.8826 361.206 84.9508 363.159 83.7881C367.906 80.9628 372.585 77.8509 376.857 74.3427L377.351 74.8365C374.172 80.0191 370.813 85.14 368.473 90.7786C365.785 91.4236 360.059 91.8179 360.993 95.9014C361.391 97.6436 363.581 98.203 362.863 100.598C362.317 102.416 356.738 103.097 357.638 106.97C357.875 107.991 358.958 108.284 358.859 109.299C358.727 110.617 355.37 116.52 354.482 118.042C342.309 138.933 326.323 157.862 306.357 171.54C305.039 172.444 299.011 175.831 298.579 176.502C297.623 177.989 298.945 178.423 298.63 179.2C292.452 189.113 287.514 200.191 280.837 209.744C272.737 221.334 264.218 232.463 256.285 244.222C251.035 252.005 244.642 258.669 238.683 265.883L237.827 266.058C226.844 261.668 215.555 257.869 203.957 255.448C204.65 253.949 205.731 251.844 205.94 250.223C206.038 249.473 206.245 247.717 205.13 247.721C203.832 247.727 202.257 253.664 200.961 254.604C197.859 254.532 193.986 252.72 191.221 254.612C191.629 255.289 192.178 255.018 192.724 255.113C195.099 255.535 197.558 255.683 199.933 256.125L193.216 264.35C192.609 264.604 184.318 261.246 182.51 260.969C181.262 260.776 179.97 260.417 180.143 262.156L191.549 265.851C192.007 266.297 182.62 273.594 181.373 273.484C179.362 272.694 172.392 269.029 170.64 269.576L170.084 270.37L179.474 274.733L175.665 276.527C174.661 275.525 170.518 272.292 169.252 272.555L168.903 273.228L174.442 277.247C171.701 277.775 168.965 278.558 166.184 278.884C153.26 280.403 140.362 274.715 129.872 267.699C131.355 266.49 131.938 261.385 132.603 260.565C132.794 260.33 135.984 258.383 136.703 257.789C137.752 256.923 141.167 253.391 142.274 253.598C143.176 253.765 144.595 255.179 145.599 255.619C148.018 256.674 151.548 256.871 153.497 254.795C154.439 253.793 154.494 252.481 155.173 251.44C156.107 250.01 158.457 248.344 159.677 246.888C164.308 241.361 167.185 233.736 168.075 226.606C169.278 227.773 169.469 229.18 170.924 230.295C173.915 232.585 187.86 236.87 192.22 238.178C198.275 239.992 204.6 241.23 210.739 242.801C218.964 244.907 225.327 247.906 233.703 243.438C235.244 242.618 234.993 242.313 235.893 241.471C235.971 241.397 236.355 241.65 236.638 241.375C238.205 239.848 240.839 231.691 241.612 229.212C243.049 224.593 243.77 218.704 245.303 214.457C245.592 213.662 246.101 212.269 247.061 212.183C252.323 212.645 255.194 215.05 258.137 209.517C260.813 204.488 263.377 194.19 263.957 188.506C264.281 185.322 263.809 184.422 261.094 183.054C252.694 178.823 245.297 178.756 236.421 176.87C217.108 172.771 197.566 164.769 177.588 163.262C176.654 163.192 175.603 163.106 174.687 163.295C172.252 163.799 168.758 168.606 167.908 170.929C161.16 168.245 153.865 165.432 146.608 164.558C146.883 159.096 143.604 156.064 139.124 153.764C128.964 148.55 117.523 145.96 106.857 142.093C99.174 139.31 91.8112 135.489 83.8949 133.355C85.4081 123.531 90.8555 115.26 84.3608 105.896C83.3593 104.451 81.9059 103.302 80.8785 102C72.7113 91.6506 64.2395 81.4984 57.2531 70.287L30.5634 22.3532C35.0034 27.9997 38.5275 34.3093 42.9794 39.9518C52.0844 51.4918 63.1923 60.8993 75.1663 69.3134L67.2619 70.6254C64.9882 71.7125 66.358 72.9231 68.3271 72.9649C71.901 73.0425 76.3051 72.4771 79.9586 72.3915L85.8979 75.0137L75.0866 76.1027C74.0194 76.2959 73.2051 77.2297 74.3619 77.9982C75.8213 78.9678 84.8984 78.8683 87.0865 78.713C88.4145 78.6174 90.8336 77.7832 91.7773 77.8369C92.9381 77.9046 95.4189 79.8877 96.9659 79.7085C97.0456 80.1824 96.3706 80.1963 96.0361 80.2779C92.4105 81.156 88.2552 80.921 84.8625 82.2849C83.2837 84.5686 89.2229 84.1544 90.4414 84.0788C93.9615 83.8637 98.9629 81.6895 101.496 81.6895C104.289 81.6915 108.619 84.5128 111.725 84.4033C111.608 85.0444 111.029 84.9608 110.569 85.0882C107.952 85.811 105.72 85.5223 103.176 85.7453C102.149 85.8368 99.0087 86.034 98.3895 86.3246C96.8644 87.0394 97.3203 89.1977 99.4766 89.4386C107.194 90.2987 109.253 89.5461 116.092 86.922C119.897 85.4625 124.201 87.2266 128.33 87.4157C130.228 87.5033 138.718 87.5989 139.158 85.1878C139.219 84.8593 138.945 84.4371 138.849 84.1046C133.937 84.6183 128.589 84.0429 123.679 83.3461C90.8953 78.6911 64.4187 61.6639 44.5085 35.7408C39.5569 29.2919 35.326 21.7778 30.215 15.4881C26.8024 11.2851 22.4043 7.50813 18.8244 3.40265C27.6546 3.51812 35.8516 5.42951 43.965 8.7804C57.1017 14.2059 69.247 22.6837 82.2165 28.2187C91.9306 32.364 102.712 36.1748 112.649 40.0434C121.477 43.4819 129.794 45.6939 138.112 50.4684C143.156 53.3633 147.813 57.429 153.314 59.2507C152.603 60.6345 144.364 60.8575 145.969 63.2407C146.023 63.3204 146.917 63.5573 147.144 63.5812C149.929 63.86 156.292 62.2831 159.522 61.9327C166.251 61.2019 172.903 60.9093 179.657 61.2457C184.567 61.4887 189.449 62.313 194.353 62.6474C195.442 62.9342 193.801 64.4015 194.241 65.2716C194.902 66.2114 199.517 63.4637 200.377 62.8764C201.903 61.8351 204.248 58.7689 206.066 59.3025C207.649 59.7664 206.647 61.6918 206.627 62.755C206.57 65.5623 205.666 72.2521 210.161 68.9709C211.109 68.28 213.297 65.0804 213.861 64.953C215.019 64.6902 214.964 67.8898 215.258 68.5667C215.503 69.383 216.658 68.9809 217.226 68.6543C218.757 67.7664 219.141 64.8714 221.058 64.949C221.638 65.3373 220.923 75.6866 225.209 74.6373L225.709 74.1237L225.251 69.6479C235.816 72.951 247.441 74.9499 257.512 79.6468C261.804 81.6477 265.563 84.7637 270.027 86.4182L267.021 87.2604C264.247 90.5018 270.913 89.3012 272.791 89.0065C292.337 85.9284 311.082 77.4148 330.393 73.829C339.811 72.0789 349.921 70.8026 359.454 69.6857C365.793 68.943 372.35 68.0232 378.695 68.1327C374.193 71.7504 369.529 75.1749 364.583 78.1674C345.712 89.5859 323.118 101.815 302.79 110.285C289.091 115.991 276.43 116.6 262.7 120.17C261.448 120.496 258.151 121.631 258.671 123.405ZM297.81 200.336C299.096 203.283 301.386 206.252 302.292 209.27C304.126 215.385 301.549 227.444 299.783 233.72C299.104 236.135 297.358 239.727 297.006 242.026C296.954 242.355 297.034 243.211 297.237 243.336C299.224 244.573 301.874 238.835 302.515 237.459C305.816 230.375 306.979 221.63 306.927 213.863L310.564 220.45C323.321 246.403 298.881 269.158 294.612 293.279C292.4 305.779 292.488 321.138 293.846 333.761C295.753 351.491 301.177 368.06 300.554 386.089C300.317 392.974 300.643 403.014 299.467 409.483C298.835 412.949 295.96 412.31 293.28 413.36C287.242 415.727 284.58 422.912 282.429 428.515C280.088 427.51 280.739 431.273 280.114 431.721C274.848 432.25 269.767 431.92 264.873 434.255C260.172 436.497 256.269 443.141 253.757 447.623C252.283 450.251 251.369 453.704 249.239 455.679C249.414 451.864 249.327 447.914 249.576 444.111C250.716 426.596 252.928 406.487 255.654 389.149C257.733 375.914 261.414 366.182 259.586 352.259C258.872 346.826 257.554 341.332 254.969 336.494C262.671 327.807 269.532 317.781 275.742 307.949C286.493 290.92 294.921 270.146 303.845 251.87C304.8 249.913 306.821 248.234 306.204 245.775L305.352 245.457C304.295 245.493 302.411 248.561 301.834 249.523C291.013 267.623 284.04 288.103 272.516 306.065C264.924 317.898 256.279 330.342 246.724 340.644C239.768 348.146 224.821 356.279 215.025 359.254C197.867 364.46 183.621 366.971 165.64 364.034C151.375 361.703 143.807 354.129 132.354 346.34C131.504 345.88 131.325 344.432 130.698 343.973C125.248 339.984 119.831 335.093 115.415 329.741C115.102 329.362 114.6 329.199 114.746 328.568C119.576 330.42 124.243 332.675 129.083 334.519C138.638 338.159 155.856 343.23 165.515 338.921C174.273 335.017 182.6 329.585 191.559 326.061C205.958 320.397 219.959 318.559 233.182 309.659C237.227 306.936 238.928 306.052 241.14 301.518C241.741 300.286 242.103 298.448 242.721 297.399C243.734 295.67 246.235 293.757 247.216 291.82L247.672 291.704L260.626 300.897C244.311 322.475 227.784 344.801 200.762 353.374C199.916 354.7 202.85 354.368 203.37 354.302C209.347 353.549 218.906 348.424 224.053 345.139C240.317 334.758 250.732 317.163 262.306 302.215C262.925 301.904 267.192 305.835 268.433 306.193C268.954 306.342 268.9 306.527 269.352 305.926L263.328 300.56C264.375 299.706 269.09 293.152 268.351 292.345C267.72 292.198 267.556 292.704 267.178 293.014C265.153 294.675 263.525 297.379 261.816 299.384C260.682 297.791 248.393 290.972 248.582 290.189C248.642 289.946 251.302 286.8 251.746 286.301C257.368 279.985 264.582 275.965 270.203 269.877C276.647 262.894 284.882 250.942 287.373 241.77C287.974 239.554 287.682 237.608 285.85 240.246C283.284 243.94 281.109 249.65 278.557 253.747C276.251 257.447 273.167 261.67 270.358 265.001C262.997 273.723 252.343 278.9 245.886 288.503L229.789 280.437L240.425 269.25L252.254 273.558C249.818 270.647 245.434 269.725 242.282 267.935C241.998 267.774 241.711 268.031 241.892 267.396C246.229 261.723 251.362 256.656 255.551 250.866C262.099 241.815 267.959 231.828 274.595 222.618C280.321 214.67 287.238 207.432 290.83 198.1C291.343 198.095 291.299 199.283 291.383 199.719C292.126 203.584 293.73 209.479 292.596 213.117C289.852 221.905 277.127 233.797 276.098 241.56C275.99 242.369 276.05 245.023 277.237 243.707C281.336 233.27 291.805 225.487 295.198 214.714C297.509 207.381 291.747 199.233 292.998 194.399C293.251 193.414 294.292 192.43 294.519 191.393C294.977 191.293 294.879 191.741 295.011 192.062C296.104 194.694 296.615 197.603 297.81 200.336ZM151.966 423.655C155.643 433.744 160 443.741 166.542 452.316L166.391 453.666C161.586 451.406 155.617 449.303 151.48 445.943C144.868 440.573 140.494 430.729 131.936 427.585C127.466 425.945 121.513 425.857 118.266 429.847C113.089 420.641 100.291 412.927 91.2537 421.959C90.5051 422.707 90.0691 423.862 89.2567 424.485C90.967 412.738 95.8908 401.816 98.4811 390.282C101.838 375.335 102.545 364.148 100.99 348.86C99.7016 336.19 97.0635 323.72 95.2955 311.127L99.3253 316.984L101.328 318.832L100.486 319.158L100.476 320.196C107.355 322.911 110.875 328.898 115.578 333.936C120.106 338.788 124.874 343.437 129.645 348.042C136.141 373.328 143.026 399.122 151.966 423.655ZM216.035 293.01L228.321 282L244.54 290C243.168 292.28 240.923 294.346 239.569 296.596C237.56 299.935 237.305 303.905 232.965 305.428C227.816 300.785 222.145 296.463 216.035 293.01ZM195.91 265.682C198.398 263.059 200.859 260.336 202.681 257.192L203.117 257.092C214.767 259.557 225.974 263.587 237.162 267.529C234.028 271.585 230.442 275.603 226.607 278.92L195.91 265.682ZM213.524 290.997L184.842 275.071C188.372 272.772 191.529 269.911 194.667 267.255L225.086 280.274C225.403 280.708 223.487 282.4 223.081 282.788C221.97 283.848 214.155 290.982 213.524 290.997ZM211.316 293.16C207.894 296.558 201.723 301.215 197.692 304.021C186.914 311.517 168.244 322.159 154.859 319.809C150.031 318.963 146.855 313.904 143.436 310.774C139.45 307.125 127.743 299.143 127.48 293.857C127.472 293.685 127.488 293.516 127.492 293.349C131.578 295.778 131.002 291.662 133.069 289.709C134.837 290.404 135.994 291.216 138.021 290.974C139.536 290.794 140.275 289.831 141.481 289.399C144.038 288.485 146.731 288.081 149.284 287.139C151.793 286.213 156.079 284.594 156.336 281.608C163.122 282.621 170.174 281.666 176.625 279.398C177.971 279.519 185.128 288.198 186.191 289.819C187.462 291.754 188.24 294.181 189.869 295.696C188.718 288.764 182.805 283.549 178.134 278.759L182.657 276.361C192.654 281.09 202.05 286.938 211.671 292.347C211.794 292.861 211.595 292.885 211.316 293.16ZM126.841 282.422L126.037 281.996L122.797 284.965C122.465 283.708 120.93 280.222 119.339 280.648C118.879 280.772 118.559 281.522 118.222 281.588C117.475 281.729 112.832 275.133 112.12 274.006C110.559 271.537 109.235 268.837 108.036 266.185C109.507 266.797 110.714 267.922 112.165 268.593C114.879 269.845 118.28 270.404 121.27 270.558C123.869 270.689 126.582 270.763 128.95 269.59C135.58 275.764 144.163 279.227 152.977 280.943L147.367 283.543C145.521 284.276 143.524 284.499 141.682 285.239C139.916 285.95 137.678 288.212 136.129 287.917C135.287 287.76 134.077 286.834 133.27 286.701C130.624 286.261 129.607 290.792 129.336 290.665C125.824 288.335 127.636 285.697 126.841 282.422ZM102.529 255.424C101.39 253.522 98.7559 247.936 98.6364 245.893C98.5747 244.812 101.476 245.879 101.832 246.389C103.654 243.954 99.831 243.534 98.0053 243.679L96.9639 238.853C98.5846 238.399 100.07 239.528 101.497 240.025C102.228 240.224 102.105 239.352 101.938 238.91C101.462 237.662 98.2282 236.911 96.9998 236.637L96.9699 232.31L105.862 238.677C106.65 238.847 106.411 238.003 106.29 237.578C106.017 236.631 105.049 235.816 104.351 235.155C103.092 233.961 97.5931 230.369 97.1272 229.622C96.7967 229.095 97.175 227.589 97.4876 227.601C98.8415 228.069 105.464 231.874 106.36 230.964C106.36 230.602 106.419 230.206 106.298 229.855C105.822 228.489 99.2277 226.042 97.8022 224.935C97.0396 223.693 98.9609 220.161 97.8022 218.893C96.3547 218.483 94.9709 222.538 94.953 223.59C94.7977 223.731 91.3951 222.2 91.1123 221.897C90.3916 221.127 88.8267 217.196 88.3249 215.964C87.2 213.198 84.6276 206.648 84.2234 203.964C84.1119 203.235 84.1617 203.52 84.5619 203.624C94.3258 206.144 104.882 211.221 114.746 214.029C117.416 214.787 121.145 215.817 123.797 215.203C122.63 221.907 119.821 228.278 119.397 235.115C116.502 236.459 116.177 237.74 116.41 240.874C116.516 242.285 117.256 243.402 117.362 244.29C117.454 245.083 116.667 245.953 117.426 246.564C119.494 247.991 121.455 246.056 123.283 246.399C126.27 246.954 127.884 257.497 130.013 259.784L126.992 266.86C126.744 267.227 126.367 267.163 125.999 267.207C123.749 267.484 117.33 266.928 115.142 266.289C110.825 265.029 104.819 259.249 102.529 255.424ZM149.497 253.084C147.355 252.871 145.376 250.056 142.714 249.769C138.861 249.355 136.085 253.747 133.019 255.44C131.606 253.831 131.536 251.575 130.763 249.662C128.729 244.635 125.298 240.021 119.439 243.376V238.681C125.123 239.03 128.643 244.802 134.2 246.56C138.154 247.812 147.619 246.311 150.654 248.887C152.484 250.44 152.372 253.373 149.497 253.084ZM137.051 244.043C132.436 243.577 129.061 239.376 125.449 237.2C124.753 236.78 122.256 235.944 122.148 235.46C123.988 228.884 126.527 221.364 125.475 214.542C128.452 213.624 131.048 209.561 132.34 206.807C135.697 199.653 137.718 191.166 143.743 185.342C145.344 183.795 147.233 184.685 149.216 185.258C152.4 186.182 159.026 188.088 161.712 189.533C164.091 190.811 164.352 192.651 164.682 195.283C165.427 201.212 165.278 207.488 165.712 213.342C165.909 216.008 167.307 222.333 167.06 224.394C166.873 225.959 163.705 233.76 162.861 235.651C161.312 239.129 157.459 245.771 154.801 248.386C154.526 248.656 154.508 248.869 153.991 248.74C151.044 242.912 142.451 244.589 137.051 244.043ZM83.216 199.442C83.0746 199.297 82.1388 199.713 81.7545 199.669C80.2931 199.504 72.7392 196.121 71.6322 195.094C65.5098 189.422 66.36 174.141 67.4929 166.443C67.8095 164.305 69.3087 161.069 68.7253 159.094C68.2076 157.352 60.7851 156.018 59.3994 153.926C59.5487 151.278 59.6503 148.241 60.1162 145.651C60.5263 143.371 63.3058 136.582 64.7811 134.888C66.5352 132.871 68.4904 133.783 70.8696 134.145C83.7177 136.09 92.6952 140.916 104.508 145.111C113.929 148.458 123.528 150.7 132.747 154.774C135.958 156.193 141.505 158.115 142.602 161.689C143.12 163.373 142.7 166.232 144.028 167.473C144.946 168.331 149.818 168.598 151.639 169.085C155.753 170.188 166.622 175.335 170.17 172.617C171.438 171.646 173.943 166.157 175.972 165.89C187.637 167.21 199.093 169.641 210.402 172.705C219.115 175.064 227.696 178.238 236.55 180.096C243.382 181.529 250.253 182.119 257.042 183.751C258.354 184.068 259.851 185.408 261.255 185.74C261.454 186.059 261.313 186.744 261.273 187.152C261.022 189.77 259.182 196.942 258.386 199.701C258.012 200.995 255.001 208.979 254.434 209.511C253.922 209.987 251.493 209.447 250.728 209.194C250.179 209.011 250.181 208.593 249.978 208.525C246.914 207.502 245.643 206.893 243.682 210.152C241.269 216.967 239.581 224.051 237.253 230.891C235.358 236.457 233.918 241.238 227.187 242.289C220.775 243.293 201.614 237.578 194.645 235.416C188.708 233.574 181.447 231.137 175.697 228.876C170.996 227.026 170.877 225.465 170.126 220.695C168.714 211.703 169.572 202.168 168.229 193.246C168.171 192.86 168.477 192.305 168.348 191.646C167.599 187.791 162.757 186.347 159.607 185.264C156.681 184.257 149.027 181.599 146.341 181.396C142.132 181.077 139.803 183.329 137.609 186.586C133.242 193.073 131.867 198.63 129.081 205.559C125.647 214.096 122.326 213.501 114.069 211.014C106.119 208.619 97.5394 205.409 89.7644 202.453C88.094 201.818 84.7032 201.153 83.433 200.462C82.993 200.223 83.3036 199.532 83.216 199.442ZM379.197 64.6106C362.562 66.0123 345.754 67.6947 329.332 70.7549C310.963 74.1794 293.386 81.7931 274.971 85.3411C268.64 82.3565 263.023 77.9444 256.61 75.1829C246.368 70.7708 235.407 68.1386 224.65 65.2955C223.23 59.3543 221.166 55.87 217.204 62.9341C217.2 61.1084 215.941 59.5414 214.024 60.4254C213.6 60.6206 210.114 65.5603 209.664 64.949C209.622 62.9381 210.201 61.1741 209.956 59.1154C209.066 51.5853 203.012 58.0263 199.45 59.5395C187.643 58.0661 175.084 56.5131 163.255 57.9526C160.832 58.2473 158.375 58.6973 156 59.2448C156.276 58.2314 156.175 57.4529 155.317 56.7381C154.05 55.6809 150.952 54.3847 149.318 53.3494C143.669 49.7695 138.152 45.8592 131.968 43.1952C116.11 36.362 98.0909 31.6373 82.32 24.4258C68.1041 17.9232 55.0609 8.41804 40.0228 3.66747C31.7103 1.04331 23.6307 0.696851 15.0076 -6.29386e-06L14.1116 0.440026C14.0459 1.2882 14.0957 1.999 14.3864 2.80934C15.36 5.51713 20.1882 11.7052 21.9802 14.6678C33.0044 32.8976 42.0696 52.2244 52.8927 70.287C59.7837 81.7871 68.6477 92.674 77.1891 103.005C78.6366 104.755 80.6774 106.324 82.0154 108.242C86.979 115.356 83.1343 120.849 81.9696 128.263C81.7386 129.741 82.109 131.252 81.5216 132.688C75.6322 132.371 66.6148 127.602 62.0952 132.873C58.8737 136.628 55.2859 148.825 55.7001 153.677C56.0883 158.232 62.1649 159.268 65.7786 160.203C65.4103 161.74 64.7393 163.19 64.4705 164.763C63.3277 171.483 62.814 184.347 65.3824 190.612C66.0414 192.223 68.7034 196.299 69.9697 197.428C71.8831 199.13 81.2747 202.106 81.7048 202.797C82.7341 208.705 84.8844 214.295 86.9053 219.896C79.8531 217.825 74.2564 212.326 68.2315 208.223C55.1963 199.345 40.3692 189.477 25.9861 183.052C22.1594 181.344 10.5378 176.432 6.94597 178.951L6.74687 179.986C15.6905 180.199 24.4709 184.761 32.2459 188.868C45.5737 195.91 58.2227 204.466 70.4714 213.188C53.0859 207.327 35.8516 200.404 17.9603 196.111C14.3227 195.237 3.50749 192.685 0.457249 193.987C-0.0205961 194.192 -0.0484837 194.071 0.0391211 194.742C16.3934 197.364 32.2279 202.463 47.8395 207.819C57.2332 211.04 72.3191 215.639 80.6376 220.298C84.8864 222.678 89.0536 226.869 93.2945 229.443C93.9077 229.879 93.9754 230.421 93.9834 231.129C93.9993 232.505 93.396 234.228 93.4418 235.667C85.5455 234.08 77.5774 232.72 69.5854 231.685C56.2556 229.959 28.7277 226.524 16.5487 230.536C15.9553 230.731 14.2431 231.106 14.4641 231.972L30.0438 230.952C51.4711 231.564 72.8905 234.046 93.9057 238.056L94.5946 243.346C85.7426 244.678 74.109 244.4 65.9936 248.455C65.032 248.935 63.5188 249.497 63.4312 250.753C73.6053 247.237 84.4942 245.825 95.2477 245.767C96.4025 249.797 97.9734 254.201 100.181 257.771C101.109 259.273 102.545 260.489 103.291 261.704C105.808 265.787 106.672 271.213 109.971 276.152C111.248 278.064 114.592 282.641 116.247 283.963C116.739 284.357 117.254 284.672 117.917 284.638L119.771 283.288C120.56 285.146 121.442 289.277 124.131 287.983C123.437 295.487 126.304 300.319 131.673 305.096C132.958 306.241 134.64 307.137 135.878 308.27C139.47 311.567 147.496 320.827 151.458 322.205C164.935 326.894 188.579 313.635 199.705 306.032C204.819 302.535 209.476 298.35 214.237 294.406L231.796 306.101C231.997 306.398 227.718 309.074 227.202 309.385C215.969 316.136 201.072 318.599 188.875 323.714C183.721 325.874 178.086 328.823 172.983 331.296C170.257 332.618 164.531 336.287 162.054 336.803C154.005 338.471 140.45 335.604 132.675 332.938C111.104 325.536 92.7211 314.758 93.2766 289.154C93.5036 278.757 96.2054 269.813 100.99 260.642C101.302 259.826 99.5543 260.109 99.2178 260.216C97.9077 260.632 95.5404 265.839 94.8973 267.298C91.1243 275.852 89.0516 286.488 90.308 295.818C90.9551 300.616 91.9545 305.408 92.6514 310.245C95.389 329.263 100.375 354.131 97.9196 372.95C95.3233 392.832 86.8297 410.799 85.2309 430.359C85.1492 431.378 84.7431 435.725 85.0636 436.226C85.2508 436.519 85.8779 436.605 86.0671 436.895C86.6405 437.791 85.9198 439.36 85.8859 440.404C85.5036 452.636 85.7665 470.273 87.2458 482.338C87.4349 483.875 87.7893 485.399 88.2532 486.87L88.9182 486.866C87.5902 479.181 87.8053 471.326 87.5922 463.547C87.3832 455.993 86.2164 443.914 87.2617 436.75C87.4568 435.416 88.7729 431.832 89.3324 430.435C90.8216 426.731 93.2169 422.668 97.3024 421.471C96.0939 429.326 95.9007 437.515 96.6354 445.447C96.8664 447.942 97.6946 455.169 99.3452 456.823C99.6578 457.138 101.01 457.994 101.326 457.69C101.269 456.678 100.412 456.043 100.058 455.105C97.5035 448.372 98.1207 430.136 98.9828 422.646C99.0227 422.303 99.2118 420.862 99.5224 420.778C103.419 420.396 107.092 422.281 109.995 424.71C109.272 432.402 110.043 440.127 111.11 447.74C111.809 452.728 113.28 463.348 115.457 467.545C115.855 468.316 117.137 470.37 118.091 469.263C116.55 467.543 116.1 465.228 115.58 463.061C114.294 457.698 113.332 450.954 112.735 445.445C112.06 439.193 111.662 432.77 111.893 426.502C113.022 427.522 113.919 428.782 114.678 430.086C115.391 431.309 116.378 434.723 117.615 434.896C119.592 435.175 119.56 433.228 120.291 432.214C122.341 429.379 125.909 428.949 129.087 429.935C131.028 436.294 132.741 442.719 134.092 449.242C136.095 458.9 136.786 470.37 139.327 479.561C139.544 480.347 139.98 482.201 140.742 482.508C141.425 482.78 141.25 482.018 141.236 481.679C138.465 464.555 137.66 446.874 131.516 430.524C139.576 435.064 143.508 443.464 150.471 449.297C150.931 449.682 152.227 450.255 152.284 450.343C152.322 450.402 151.922 451.113 152.026 451.732C152.448 454.273 155.151 460.119 156.087 463.135C156.844 465.58 160.547 480.095 161.503 480.861C162.536 481.687 163.11 480.983 162.972 479.752C162.413 474.802 159.392 464.429 157.764 459.446C156.923 456.875 155.968 454.357 154.656 451.993C159.044 453.793 163.263 456.362 168.009 457.082C171.135 462.966 173.813 469.283 176.951 475.139C177.14 475.489 178.952 479.047 179.474 478.484L170.132 457.801L170.084 457.361C170.666 457.273 171.498 457.058 171.707 456.463C172.515 454.152 167.928 449.076 166.59 446.93C155.165 428.587 148.382 402.666 142.156 381.814C139.068 371.465 136.609 360.944 133.195 350.702C138.889 354.224 143.87 358.843 149.652 362.244C160.229 368.464 182.994 369.947 194.906 367.642C214.36 363.877 235.828 357.521 249.743 342.656C250.732 341.599 251.901 339.686 252.917 338.788C253.271 338.473 253.363 338.069 253.771 338.621C257.128 349.416 257.701 360.09 255.837 371.222C253.546 384.924 250.804 397.553 249.239 411.578C247.272 429.216 245.317 447.519 246.235 465.218C246.265 465.819 246.818 466.279 246.844 466.894C246.961 469.648 245.522 475.165 245.215 478.321C244.708 483.537 242.838 502.679 245.872 506.165C246.37 506.736 247.82 507.712 247.543 506.175C247.248 504.55 246.366 503.168 246.205 501.136C245.671 494.35 246.537 485.512 247.224 478.655C248.023 470.689 249.118 465.682 252.005 458.279C254.886 450.884 259.001 442.518 265.331 437.568C264.811 444.666 264.554 451.752 264.325 458.862C264.168 463.748 263.501 469.064 263.973 473.978C264.086 475.157 264.237 475.895 265.669 475.8L267.668 436.782C267.762 436.394 270.995 435.611 271.539 435.555C274.236 435.275 277.346 435.763 280.092 435.555C280.132 443.187 280.809 450.912 281.816 458.482C282.057 460.284 283.901 473.741 285.29 473.783C285.872 473.385 285.814 472.899 285.82 472.282C285.856 468.367 284.201 461.839 283.783 457.522C283.071 450.164 283.096 442.707 282.402 435.384C284.594 433.114 285.671 430.062 286.804 427.173L289.316 437.232C291.63 444.248 294.141 451.896 298.401 457.996C298.808 458.576 299.415 459.716 300.213 459.703C299.538 456.268 297.225 453.106 295.795 449.869C292.986 443.496 290.455 435.44 289.253 428.573C288.574 424.688 287.986 423.846 290.352 420.493C293.605 415.882 296.87 417.013 301.219 414.427C303.028 422.038 306.023 429.672 309.113 436.885C310.776 440.766 312.677 445.371 314.799 448.977C314.945 449.226 316.149 451.527 316.647 450.982C313.32 442.377 309.328 434.044 306.246 425.332C304.994 421.793 302.969 416.659 302.36 413.091C302.113 411.639 302.792 410.781 301.565 409.202C303.232 394.825 305.553 382.558 303.514 368.03C299.68 340.727 290.668 307.686 302.17 281.05C311.584 259.247 325.629 241.845 312.346 217.326C307.642 208.639 301.999 200.589 297.772 191.642C297.557 191.184 296.629 189.085 296.58 188.79C296.285 187.058 300.402 181.358 300.637 179.068C312.773 172.392 323.747 163.53 332.922 153.161C343.275 141.456 353.602 126.985 360.453 112.945C361.714 110.362 363.319 109.488 361.564 106.08C364.694 104.294 367.34 101.235 365.849 97.4146C365.515 96.5565 364.672 96.0468 364.611 95.1349C366.178 94.5376 369.077 94.7049 370.136 93.4485L383.111 69.5304C383.93 68.3179 386.201 67.4438 386.269 65.7913C386.396 62.6594 380.971 64.4612 379.197 64.6106Z" fill="#176A7B"/>
<path d="M172.99 261.877C171.601 262.355 171.65 265.873 174.207 265.118C175.656 264.692 175.8 260.911 172.99 261.877Z" fill="#176A7B"/>
<path d="M167.727 257.477L165.053 257.295L164.429 258.036C164.34 260.965 167.924 260.079 167.727 257.477Z" fill="#176A7B"/>
<path d="M167.634 266.25L165.766 267.423C165.434 270.541 169.494 268.815 168.588 266.861L167.634 266.25Z" fill="#176A7B"/>
<path d="M183.254 254.172C181.833 253.941 181.024 255.504 181.904 256.372C183.573 258.017 186.102 254.632 183.254 254.172Z" fill="#176A7B"/>
<path d="M176.218 253.172C174.583 252.674 173.745 253.403 174.155 255.069C175.712 256.274 178.432 253.845 176.218 253.172Z" fill="#176A7B"/>
<path d="M158.374 266.153C158.745 266.774 161.355 265.671 161.357 265.345C160.019 263.764 157.893 263.471 158.374 266.153Z" fill="#176A7B"/>
<path d="M176.867 184.926C177.166 184.038 179.456 178.442 179.792 178.127C179.977 177.958 180.121 177.751 180.386 177.689L198.593 180.996C198.759 181.783 198.488 181.534 198.159 181.747C196.903 182.559 195.458 183.103 194.122 184.068C187.945 188.538 183.324 196.062 179.205 202.356L176.796 207.823C176.527 206.003 176.192 203.787 176.107 201.97C175.908 197.661 175.591 188.723 176.867 184.926ZM200.111 200.436C209.301 207.753 216.098 193.245 215.698 185.691L228.775 189.207C225.934 195.073 221.174 202.861 214.617 204.9C208.011 206.957 195.135 206.587 190.601 200.556C190.201 200.026 188.001 196.223 187.918 195.837C187.788 195.236 188.085 194.883 188.383 194.428C189.61 192.548 194.538 187.913 196.421 186.37C196.728 186.117 198.36 184.775 198.591 185.02C197.011 189.707 195.681 196.91 200.111 200.436ZM207.561 184.401C210.468 183.883 210.217 187.2 208.17 188.389C205.112 190.163 204.849 184.885 207.561 184.401ZM238.77 193.305C239.156 194.631 239.26 198.135 239.135 199.566C238.673 204.793 233.476 224.655 230.854 228.852C229.552 230.939 227.561 232.498 225.18 233.238C222.044 234.214 220.385 232.771 217.387 232.129C204.292 229.33 190.978 226.79 178.817 221.059C177.524 220.094 176.792 212.749 177.21 211.092C177.423 210.248 181.425 203.909 182.219 202.688C183.101 201.334 184.814 198.662 185.855 197.603C186.173 197.277 186.287 196.966 186.85 197.094C188.509 207.194 201.086 210.171 209.823 209.161C215.702 208.482 219.905 206.396 223.736 201.946C226.615 198.603 229.88 193.948 229.787 189.378C231.573 190.207 238.225 191.433 238.77 193.305ZM177.343 224.211C186.251 229.722 206.721 233.517 217.387 235.482C219.631 235.896 221.038 236.88 223.543 236.633C225.717 236.416 229.574 234.343 231.137 232.824C234.782 229.282 238.077 215.244 239.415 209.91C240.568 205.31 241.924 201.356 241.522 196.592C241.175 192.492 240.807 190.915 236.819 189.219C230.384 186.481 221.02 184.333 214.094 182.432C205.478 180.066 195.957 177.309 187.201 175.784C185.15 175.425 180.883 174.489 179.042 175.025C177.086 175.594 176.25 180.023 175.585 181.633C174.476 184.323 173.172 185.315 173.104 188.877C172.969 195.815 173.674 202.997 174.122 209.991C174.371 213.864 173.435 221.79 177.343 224.211Z" fill="#176A7B"/>
<path d="M82.2644 193.182L80.8548 175.811L82.2126 149.802L96.2991 153.159C94.2981 159.216 97.1413 166.799 99.5942 172.5C101.671 177.326 102.742 179.482 107.475 182.058C113.193 185.172 119.875 186.725 126.146 184.348C126.312 185.399 126.354 186.713 126.636 187.715C126.967 188.88 127.934 189.702 127.69 190.717C125.165 194.47 123.594 201.572 119.664 203.856C118.64 204.449 117.517 204.812 116.45 205.302L82.9752 193.813L82.2644 193.182ZM78.8618 184.177C78.9175 184.896 80.1679 192.398 79.694 192.4C75.7498 190.751 72.9683 186.293 72.5263 182.126C72.2715 179.713 72.811 177.65 72.8349 175.474C72.9026 169.274 72.3631 160.38 73.6393 154.477C74.2525 151.636 77.2669 149.179 80.1997 149.465L78.5093 172.762C78.5671 176.561 78.5611 180.406 78.8618 184.177ZM97.9755 153.826L108.707 157.185C105.989 162.242 106.194 175.351 112.096 178.106C118.031 180.88 120.134 171.387 121.286 167.574C121.384 167.255 121.348 166.811 121.784 166.909L125.816 181.995C119.901 183.91 113.942 182.562 108.701 179.49C106.593 178.254 105.595 177.642 104.291 175.516C102.73 172.973 97.9755 161.292 97.9755 158.69V153.826ZM133.452 169.161C134.989 174.765 130.664 180.967 129.497 186.357L127.66 174.953L123.801 163.219C126.204 164 132.761 166.638 133.452 169.161ZM109.715 205.644C111.913 206.275 117.866 208.266 119.779 207.325C120.253 207.092 120.416 206.299 120.783 205.981C126.338 201.144 129.975 191.824 132.534 184.864C133.579 182.019 136.633 173.931 136.878 171.405C137.388 166.126 132.649 163.998 128.723 162.152C121.82 158.907 113.145 155.978 105.864 153.485C99.1323 151.18 83.5805 145.428 77.0937 146.529C74.2187 147.017 71.4333 150.194 71.2302 153.077C70.5911 162.108 69.6971 171.687 70.1232 180.84C70.386 186.481 71.1008 189.997 75.8693 193.541C79.7398 196.418 91.6142 199.866 96.7092 201.543C100.924 202.93 105.47 204.422 109.715 205.644Z" fill="#176A7B"/>
<path d="M251.274 193.207C255.809 195.971 257.149 186.866 251.821 188.441C249.996 188.98 249.217 191.953 251.274 193.207Z" fill="#176A7B"/>
<path d="M70.8195 140.25C70.6304 139.244 68.6672 138.51 67.6976 138.79C66.071 139.262 65.5115 142.336 66.9251 143.453C68.7947 144.875 71.1361 141.934 70.8195 140.25Z" fill="#176A7B"/>
<path d="M65.6924 146.499C63.6914 146.879 62.7537 151.192 65.9552 151.106C68.894 151.027 68.4719 145.971 65.6924 146.499Z" fill="#176A7B"/>
<path d="M251.921 197.258C249.643 196.143 247.881 199.912 249.317 201.369C251.119 203.201 254.643 198.59 251.921 197.258Z" fill="#176A7B"/>
<path d="M106.365 240.52L105.859 239.695C104.509 240.325 101.495 242.316 103.09 243.966C103.834 244.735 105.911 244.01 105.885 242.865C105.879 242.644 105.413 242.389 105.497 242.017C105.598 241.565 106.357 241.089 106.365 240.52Z" fill="#176A7B"/>
<path d="M110.021 235.427C111.047 236.946 113.761 234.991 113.392 233.329C111.887 232.273 108.849 233.691 110.021 235.427Z" fill="#176A7B"/>
<path d="M108.616 256.194C107.651 256.405 107.181 256.959 107.35 257.958C107.688 259.957 111.925 258.183 110.402 256.272C109.827 256.009 109.213 256.063 108.616 256.194Z" fill="#176A7B"/>
<path d="M110.621 244.114C108.534 244.747 110.326 248.114 112.252 245.745C113.454 244.265 112.045 243.682 110.621 244.114Z" fill="#176A7B"/>
<path d="M116.607 252.449C117.602 250.996 115.058 249.945 114.162 250.839C112.79 252.204 115.599 253.921 116.607 252.449Z" fill="#176A7B"/>
<path d="M258.671 123.405C259.132 124.984 260.729 124.252 261.474 124.319C266.842 124.805 270.778 122.601 274.844 122.752C277.613 122.856 282.72 125.466 285.589 125.301C286.571 125.243 287.447 124.622 286.459 123.816C285.637 123.145 281.916 122.505 280.765 121.799L290.304 119.294C296.669 121.96 303.54 123.25 310.276 124.646C310.525 123.445 309.463 123.188 308.595 122.808C304.785 121.138 299.674 120.19 295.604 118.695C295.178 118.537 294.188 118.468 294.18 117.944L304.074 114.713C308.424 116.891 313.358 119.097 318.325 118.942L318.126 117.91L306.925 113.576L312.458 110.685C315.241 111.997 318.142 113.104 321.087 114.004C322.158 114.332 328.318 116.226 328.691 115.561L328.681 114.29L315.309 109.387L322.574 105.94L339.962 112.23L340.476 111.394C340.458 110.141 334.134 107.8 332.832 107.292C330.616 106.43 328.269 105.849 326.047 105.016C325.742 104.903 325.097 104.939 325.533 104.523C336.474 99.4514 346.672 93.1698 357.007 87.0275C358.93 85.8826 361.206 84.9508 363.159 83.7881C367.906 80.9628 372.585 77.8509 376.857 74.3427L377.351 74.8365C374.172 80.0191 370.813 85.14 368.473 90.7786C365.785 91.4236 360.059 91.8179 360.993 95.9014C361.391 97.6436 363.581 98.203 362.863 100.598C362.317 102.416 356.738 103.097 357.638 106.97C357.875 107.991 358.958 108.284 358.859 109.299C358.727 110.617 355.37 116.52 354.482 118.042C342.309 138.933 326.323 157.862 306.357 171.54C305.039 172.444 299.011 175.831 298.579 176.502C297.623 177.989 298.945 178.423 298.63 179.2C292.452 189.113 287.514 200.191 280.837 209.744C272.737 221.334 264.218 232.463 256.285 244.222C251.035 252.005 244.642 258.669 238.683 265.883L237.827 266.058C226.844 261.668 215.555 257.869 203.957 255.448C204.65 253.949 205.731 251.844 205.94 250.223C206.038 249.473 206.245 247.717 205.13 247.721C203.832 247.727 202.257 253.664 200.961 254.604C197.859 254.532 193.986 252.72 191.221 254.612C191.629 255.289 192.178 255.018 192.724 255.113C195.099 255.535 197.558 255.683 199.933 256.125L193.216 264.35C192.609 264.604 184.318 261.246 182.51 260.969C181.262 260.776 179.97 260.417 180.143 262.156L191.549 265.851C192.007 266.297 182.62 273.594 181.373 273.484C179.362 272.694 172.392 269.029 170.64 269.576L170.084 270.37L179.474 274.733L175.665 276.527C174.661 275.525 170.518 272.292 169.252 272.555L168.903 273.228L174.442 277.247C171.701 277.775 168.965 278.558 166.184 278.884C153.26 280.403 140.362 274.715 129.872 267.699C131.355 266.49 131.938 261.385 132.603 260.565C132.794 260.33 135.984 258.383 136.703 257.789C137.752 256.923 141.167 253.391 142.274 253.598C143.176 253.765 144.595 255.179 145.599 255.619C148.018 256.674 151.548 256.871 153.497 254.795C154.439 253.793 154.494 252.481 155.173 251.44C156.107 250.01 158.457 248.344 159.677 246.888C164.308 241.361 167.185 233.736 168.075 226.606C169.278 227.773 169.469 229.18 170.924 230.295C173.915 232.585 187.86 236.87 192.22 238.178C198.275 239.992 204.6 241.23 210.739 242.801C218.964 244.907 225.327 247.906 233.703 243.438C235.244 242.618 234.993 242.313 235.893 241.471C235.971 241.397 236.355 241.65 236.638 241.375C238.205 239.848 240.839 231.691 241.612 229.212C243.049 224.593 243.77 218.704 245.303 214.457C245.592 213.662 246.101 212.269 247.061 212.183C252.323 212.645 255.194 215.05 258.137 209.517C260.813 204.488 263.377 194.19 263.957 188.506C264.281 185.322 263.809 184.422 261.094 183.054C252.694 178.823 245.297 178.756 236.421 176.87C217.108 172.771 197.566 164.769 177.588 163.262C176.654 163.192 175.603 163.106 174.687 163.295C172.252 163.799 168.758 168.606 167.908 170.929C161.16 168.245 153.865 165.432 146.608 164.558C146.883 159.096 143.604 156.064 139.124 153.764C128.964 148.55 117.523 145.96 106.857 142.093C99.174 139.31 91.8112 135.489 83.8949 133.355C85.4081 123.531 90.8555 115.26 84.3608 105.896C83.3593 104.451 81.9059 103.302 80.8785 102C72.7113 91.6506 64.2395 81.4984 57.2531 70.287L30.5634 22.3532C35.0034 27.9997 38.5275 34.3093 42.9794 39.9518C52.0844 51.4918 63.1923 60.8993 75.1663 69.3134L67.2619 70.6254C64.9882 71.7125 66.358 72.9231 68.3271 72.9649C71.901 73.0425 76.3051 72.4771 79.9586 72.3915L85.8979 75.0137L75.0866 76.1027C74.0194 76.2959 73.2051 77.2297 74.3619 77.9982C75.8213 78.9678 84.8984 78.8683 87.0865 78.713C88.4145 78.6174 90.8336 77.7832 91.7773 77.8369C92.9381 77.9046 95.4189 79.8877 96.9659 79.7085C97.0456 80.1824 96.3706 80.1963 96.0361 80.2779C92.4105 81.156 88.2552 80.921 84.8625 82.2849C83.2837 84.5686 89.2229 84.1544 90.4414 84.0788C93.9615 83.8637 98.9629 81.6895 101.496 81.6895C104.289 81.6915 108.619 84.5128 111.725 84.4033C111.608 85.0444 111.029 84.9608 110.569 85.0882C107.952 85.811 105.72 85.5223 103.176 85.7453C102.149 85.8368 99.0087 86.034 98.3895 86.3246C96.8644 87.0394 97.3203 89.1977 99.4766 89.4386C107.194 90.2987 109.253 89.5461 116.092 86.922C119.897 85.4625 124.201 87.2266 128.33 87.4157C130.228 87.5033 138.718 87.5989 139.158 85.1878C139.219 84.8593 138.945 84.4371 138.849 84.1046C133.937 84.6183 128.589 84.0429 123.679 83.3461C90.8953 78.6911 64.4187 61.6639 44.5085 35.7408C39.5569 29.2919 35.326 21.7778 30.215 15.4881C26.8024 11.2851 22.4043 7.50813 18.8244 3.40265C27.6546 3.51812 35.8516 5.42951 43.965 8.7804C57.1017 14.2059 69.247 22.6837 82.2165 28.2187C91.9306 32.364 102.712 36.1748 112.649 40.0434C121.477 43.4819 129.794 45.6939 138.112 50.4684C143.156 53.3633 147.813 57.429 153.314 59.2507C152.603 60.6345 144.364 60.8575 145.969 63.2407C146.023 63.3204 146.917 63.5573 147.144 63.5812C149.929 63.86 156.292 62.2831 159.522 61.9327C166.251 61.2019 172.903 60.9093 179.657 61.2457C184.567 61.4887 189.449 62.313 194.353 62.6474C195.442 62.9342 193.801 64.4015 194.241 65.2716C194.902 66.2114 199.517 63.4637 200.377 62.8764C201.903 61.8351 204.248 58.7689 206.066 59.3025C207.649 59.7664 206.647 61.6918 206.627 62.755C206.57 65.5623 205.666 72.2521 210.161 68.9709C211.109 68.28 213.297 65.0804 213.861 64.953C215.019 64.6902 214.964 67.8898 215.258 68.5667C215.503 69.383 216.658 68.9809 217.226 68.6543C218.757 67.7664 219.141 64.8714 221.058 64.949C221.638 65.3373 220.923 75.6866 225.209 74.6373L225.709 74.1237L225.251 69.6479C235.816 72.951 247.441 74.9499 257.512 79.6468C261.804 81.6477 265.563 84.7637 270.027 86.4182L267.021 87.2604C264.247 90.5018 270.913 89.3012 272.791 89.0065C292.337 85.9284 311.082 77.4148 330.393 73.829C339.811 72.0789 349.921 70.8026 359.454 69.6857C365.793 68.943 372.35 68.0232 378.695 68.1327C374.193 71.7504 369.529 75.1749 364.583 78.1674C345.712 89.5859 323.118 101.815 302.79 110.285C289.091 115.991 276.43 116.6 262.7 120.17C261.448 120.496 258.151 121.631 258.671 123.405ZM297.81 200.336C299.096 203.283 301.386 206.252 302.292 209.27C304.126 215.385 301.549 227.444 299.783 233.72C299.104 236.135 297.358 239.727 297.006 242.026C296.954 242.355 297.034 243.211 297.237 243.336C299.224 244.573 301.874 238.835 302.515 237.459C305.816 230.375 306.979 221.63 306.927 213.863L310.564 220.45C323.321 246.403 298.881 269.158 294.612 293.279C292.4 305.779 292.488 321.138 293.846 333.761C295.753 351.491 301.177 368.06 300.554 386.089C300.317 392.974 300.643 403.014 299.467 409.483C298.835 412.949 295.96 412.31 293.28 413.36C287.242 415.727 284.58 422.912 282.429 428.515C280.088 427.51 280.739 431.273 280.114 431.721C274.848 432.25 269.767 431.92 264.873 434.255C260.172 436.497 256.269 443.141 253.757 447.623C252.283 450.251 251.369 453.704 249.239 455.679C249.414 451.864 249.327 447.914 249.576 444.111C250.716 426.596 252.928 406.487 255.654 389.149C257.733 375.914 261.414 366.182 259.586 352.259C258.872 346.826 257.554 341.332 254.969 336.494C262.671 327.807 269.532 317.781 275.742 307.949C286.493 290.92 294.921 270.146 303.845 251.87C304.8 249.913 306.821 248.234 306.204 245.775L305.352 245.457C304.295 245.493 302.411 248.561 301.834 249.523C291.013 267.623 284.04 288.103 272.516 306.065C264.924 317.898 256.279 330.342 246.724 340.644C239.768 348.146 224.821 356.279 215.025 359.254C197.867 364.46 183.621 366.971 165.64 364.034C151.375 361.703 143.807 354.129 132.354 346.34C131.504 345.88 131.325 344.432 130.698 343.973C125.248 339.984 119.831 335.093 115.415 329.741C115.102 329.362 114.6 329.199 114.746 328.568C119.576 330.42 124.243 332.675 129.083 334.519C138.638 338.159 155.856 343.23 165.515 338.921C174.273 335.017 182.6 329.585 191.559 326.061C205.958 320.397 219.959 318.559 233.182 309.659C237.227 306.936 238.928 306.052 241.14 301.518C241.741 300.286 242.103 298.448 242.721 297.399C243.734 295.67 246.235 293.757 247.216 291.82L247.672 291.704L260.626 300.897C244.311 322.475 227.784 344.801 200.762 353.374C199.916 354.7 202.85 354.368 203.37 354.302C209.347 353.549 218.906 348.424 224.053 345.139C240.317 334.758 250.732 317.163 262.306 302.215C262.925 301.904 267.192 305.835 268.433 306.193C268.954 306.342 268.9 306.527 269.352 305.926L263.328 300.56C264.375 299.706 269.09 293.152 268.351 292.345C267.72 292.198 267.556 292.704 267.178 293.014C265.153 294.675 263.525 297.379 261.816 299.384C260.682 297.791 248.393 290.972 248.582 290.189C248.642 289.946 251.302 286.8 251.746 286.301C257.368 279.985 264.582 275.965 270.203 269.877C276.647 262.894 284.882 250.942 287.373 241.77C287.974 239.554 287.682 237.608 285.85 240.246C283.284 243.94 281.109 249.65 278.557 253.747C276.251 257.447 273.167 261.67 270.358 265.001C262.997 273.723 252.343 278.9 245.886 288.503L229.789 280.437L240.425 269.25L252.254 273.558C249.818 270.647 245.434 269.725 242.282 267.935C241.998 267.774 241.711 268.031 241.892 267.396C246.229 261.723 251.362 256.656 255.551 250.866C262.099 241.815 267.959 231.828 274.595 222.618C280.321 214.67 287.238 207.432 290.83 198.1C291.343 198.095 291.299 199.283 291.383 199.719C292.126 203.584 293.73 209.479 292.596 213.117C289.852 221.905 277.127 233.797 276.098 241.56C275.99 242.369 276.05 245.023 277.237 243.707C281.336 233.27 291.805 225.487 295.198 214.714C297.509 207.381 291.747 199.233 292.998 194.399C293.251 193.414 294.292 192.43 294.519 191.393C294.977 191.293 294.879 191.741 295.011 192.062C296.104 194.694 296.615 197.603 297.81 200.336ZM151.966 423.655C155.643 433.744 160 443.741 166.542 452.316L166.391 453.666C161.586 451.406 155.617 449.303 151.48 445.943C144.868 440.573 140.494 430.729 131.936 427.585C127.466 425.945 121.513 425.857 118.266 429.847C113.089 420.641 100.291 412.927 91.2537 421.959C90.5051 422.707 90.0691 423.862 89.2567 424.485C90.967 412.738 95.8908 401.816 98.4811 390.282C101.838 375.335 102.545 364.148 100.99 348.86C99.7016 336.19 97.0635 323.72 95.2955 311.127L99.3253 316.984L101.328 318.832L100.486 319.158L100.476 320.196C107.355 322.911 110.875 328.898 115.578 333.936C120.106 338.788 124.874 343.437 129.645 348.042C136.141 373.328 143.026 399.122 151.966 423.655ZM216.035 293.01L228.321 282L244.54 290C243.168 292.28 240.923 294.346 239.569 296.596C237.56 299.935 237.305 303.905 232.965 305.428C227.816 300.785 222.145 296.463 216.035 293.01ZM195.91 265.682C198.398 263.059 200.859 260.336 202.681 257.192L203.117 257.092C214.767 259.557 225.974 263.587 237.162 267.529C234.028 271.585 230.442 275.603 226.607 278.92L195.91 265.682ZM213.524 290.997L184.842 275.071C188.372 272.772 191.529 269.911 194.667 267.255L225.086 280.274C225.403 280.708 223.487 282.4 223.081 282.788C221.97 283.848 214.155 290.982 213.524 290.997ZM211.316 293.16C207.894 296.558 201.723 301.215 197.692 304.021C186.914 311.517 168.244 322.159 154.859 319.809C150.031 318.963 146.855 313.904 143.436 310.774C139.45 307.125 127.743 299.143 127.48 293.857C127.472 293.685 127.488 293.516 127.492 293.349C131.578 295.778 131.002 291.662 133.069 289.709C134.837 290.404 135.994 291.216 138.021 290.974C139.536 290.794 140.275 289.831 141.481 289.399C144.038 288.485 146.731 288.081 149.284 287.139C151.793 286.213 156.079 284.594 156.336 281.608C163.122 282.621 170.174 281.666 176.625 279.398C177.971 279.519 185.128 288.198 186.191 289.819C187.462 291.754 188.24 294.181 189.869 295.696C188.718 288.764 182.805 283.549 178.134 278.759L182.657 276.361C192.654 281.09 202.05 286.938 211.671 292.347C211.794 292.861 211.595 292.885 211.316 293.16ZM126.841 282.422L126.037 281.996L122.797 284.965C122.465 283.708 120.93 280.222 119.339 280.648C118.879 280.772 118.559 281.522 118.222 281.588C117.475 281.729 112.832 275.133 112.12 274.006C110.559 271.537 109.235 268.837 108.036 266.185C109.507 266.797 110.714 267.922 112.165 268.593C114.879 269.845 118.28 270.404 121.27 270.558C123.869 270.689 126.582 270.763 128.95 269.59C135.58 275.764 144.163 279.227 152.977 280.943L147.367 283.543C145.521 284.276 143.524 284.499 141.682 285.239C139.916 285.95 137.678 288.212 136.129 287.917C135.287 287.76 134.077 286.834 133.27 286.701C130.624 286.261 129.607 290.792 129.336 290.665C125.824 288.335 127.636 285.697 126.841 282.422ZM102.529 255.424C101.39 253.522 98.7559 247.936 98.6364 245.893C98.5747 244.812 101.476 245.879 101.832 246.389C103.654 243.954 99.831 243.534 98.0053 243.679L96.9639 238.853C98.5846 238.399 100.07 239.528 101.497 240.025C102.228 240.224 102.105 239.352 101.938 238.91C101.462 237.662 98.2282 236.911 96.9998 236.637L96.9699 232.31L105.862 238.677C106.65 238.847 106.411 238.003 106.29 237.578C106.017 236.631 105.049 235.816 104.351 235.155C103.092 233.961 97.5931 230.369 97.1272 229.622C96.7967 229.095 97.175 227.589 97.4876 227.601C98.8415 228.069 105.464 231.874 106.36 230.964C106.36 230.602 106.419 230.206 106.298 229.855C105.822 228.489 99.2277 226.042 97.8022 224.935C97.0396 223.693 98.9609 220.161 97.8022 218.893C96.3547 218.483 94.9709 222.538 94.953 223.59C94.7977 223.731 91.3951 222.2 91.1123 221.897C90.3916 221.127 88.8267 217.196 88.3249 215.964C87.2 213.198 84.6276 206.648 84.2234 203.964C84.1119 203.235 84.1617 203.52 84.5619 203.624C94.3258 206.144 104.882 211.221 114.746 214.029C117.416 214.787 121.145 215.817 123.797 215.203C122.63 221.907 119.821 228.278 119.397 235.115C116.502 236.459 116.177 237.74 116.41 240.874C116.516 242.285 117.256 243.402 117.362 244.29C117.454 245.083 116.667 245.953 117.426 246.564C119.494 247.991 121.455 246.056 123.283 246.399C126.27 246.954 127.884 257.497 130.013 259.784L126.992 266.86C126.744 267.227 126.367 267.163 125.999 267.207C123.749 267.484 117.33 266.928 115.142 266.289C110.825 265.029 104.819 259.249 102.529 255.424ZM149.497 253.084C147.355 252.871 145.376 250.056 142.714 249.769C138.861 249.355 136.085 253.747 133.019 255.44C131.606 253.831 131.536 251.575 130.763 249.662C128.729 244.635 125.298 240.021 119.439 243.376V238.681C125.123 239.03 128.643 244.802 134.2 246.56C138.154 247.812 147.619 246.311 150.654 248.887C152.484 250.44 152.372 253.373 149.497 253.084ZM137.051 244.043C132.436 243.577 129.061 239.376 125.449 237.2C124.753 236.78 122.256 235.944 122.148 235.46C123.988 228.884 126.527 221.364 125.475 214.542C128.452 213.624 131.048 209.561 132.34 206.807C135.697 199.653 137.718 191.166 143.743 185.342C145.344 183.795 147.233 184.685 149.216 185.258C152.4 186.182 159.026 188.088 161.712 189.533C164.091 190.811 164.352 192.651 164.682 195.283C165.427 201.212 165.278 207.488 165.712 213.342C165.909 216.008 167.307 222.333 167.06 224.394C166.873 225.959 163.705 233.76 162.861 235.651C161.312 239.129 157.459 245.771 154.801 248.386C154.526 248.656 154.508 248.869 153.991 248.74C151.044 242.912 142.451 244.589 137.051 244.043ZM83.216 199.442C83.0746 199.297 82.1388 199.713 81.7545 199.669C80.2931 199.504 72.7392 196.121 71.6322 195.094C65.5098 189.422 66.36 174.141 67.4929 166.443C67.8095 164.305 69.3087 161.069 68.7253 159.094C68.2076 157.352 60.7851 156.018 59.3994 153.926C59.5487 151.278 59.6503 148.241 60.1162 145.651C60.5263 143.371 63.3058 136.582 64.7811 134.888C66.5352 132.871 68.4904 133.783 70.8696 134.145C83.7177 136.09 92.6952 140.916 104.508 145.111C113.929 148.458 123.528 150.7 132.747 154.774C135.958 156.193 141.505 158.115 142.602 161.689C143.12 163.373 142.7 166.232 144.028 167.473C144.946 168.331 149.818 168.598 151.639 169.085C155.753 170.188 166.622 175.335 170.17 172.617C171.438 171.646 173.943 166.157 175.972 165.89C187.637 167.21 199.093 169.641 210.402 172.705C219.115 175.064 227.696 178.238 236.55 180.096C243.382 181.529 250.253 182.119 257.042 183.751C258.354 184.068 259.851 185.408 261.255 185.74C261.454 186.059 261.313 186.744 261.273 187.152C261.022 189.77 259.182 196.942 258.386 199.701C258.012 200.995 255.001 208.979 254.434 209.511C253.922 209.987 251.493 209.447 250.728 209.194C250.179 209.011 250.181 208.593 249.978 208.525C246.914 207.502 245.643 206.893 243.682 210.152C241.269 216.967 239.581 224.051 237.253 230.891C235.358 236.457 233.918 241.238 227.187 242.289C220.775 243.293 201.614 237.578 194.645 235.416C188.708 233.574 181.447 231.137 175.697 228.876C170.996 227.026 170.877 225.465 170.126 220.695C168.714 211.703 169.572 202.168 168.229 193.246C168.171 192.86 168.477 192.305 168.348 191.646C167.599 187.791 162.757 186.347 159.607 185.264C156.681 184.257 149.027 181.599 146.341 181.396C142.132 181.077 139.803 183.329 137.609 186.586C133.242 193.073 131.867 198.63 129.081 205.559C125.647 214.096 122.326 213.501 114.069 211.014C106.119 208.619 97.5394 205.409 89.7644 202.453C88.094 201.818 84.7032 201.153 83.433 200.462C82.993 200.223 83.3036 199.532 83.216 199.442ZM379.197 64.6106C362.562 66.0123 345.754 67.6947 329.332 70.7549C310.963 74.1794 293.386 81.7931 274.971 85.3411C268.64 82.3565 263.023 77.9444 256.61 75.1829C246.368 70.7708 235.407 68.1386 224.65 65.2955C223.23 59.3543 221.166 55.87 217.204 62.9341C217.2 61.1084 215.941 59.5414 214.024 60.4254C213.6 60.6206 210.114 65.5603 209.664 64.949C209.622 62.9381 210.201 61.1741 209.956 59.1154C209.066 51.5853 203.012 58.0263 199.45 59.5395C187.643 58.0661 175.084 56.5131 163.255 57.9526C160.832 58.2473 158.375 58.6973 156 59.2448C156.276 58.2314 156.175 57.4529 155.317 56.7381C154.05 55.6809 150.952 54.3847 149.318 53.3494C143.669 49.7695 138.152 45.8592 131.968 43.1952C116.11 36.362 98.0909 31.6373 82.32 24.4258C68.1041 17.9232 55.0609 8.41804 40.0228 3.66747C31.7103 1.04331 23.6307 0.696851 15.0076 -6.29386e-06L14.1116 0.440026C14.0459 1.2882 14.0957 1.999 14.3864 2.80934C15.36 5.51713 20.1882 11.7052 21.9802 14.6678C33.0044 32.8976 42.0696 52.2244 52.8927 70.287C59.7837 81.7871 68.6477 92.674 77.1891 103.005C78.6366 104.755 80.6774 106.324 82.0154 108.242C86.979 115.356 83.1343 120.849 81.9696 128.263C81.7386 129.741 82.109 131.252 81.5216 132.688C75.6322 132.371 66.6148 127.602 62.0952 132.873C58.8737 136.628 55.2859 148.825 55.7001 153.677C56.0883 158.232 62.1649 159.268 65.7786 160.203C65.4103 161.74 64.7393 163.19 64.4705 164.763C63.3277 171.483 62.814 184.347 65.3824 190.612C66.0414 192.223 68.7034 196.299 69.9697 197.428C71.8831 199.13 81.2747 202.106 81.7048 202.797C82.7341 208.705 84.8844 214.295 86.9053 219.896C79.8531 217.825 74.2564 212.326 68.2315 208.223C55.1963 199.345 40.3692 189.477 25.9861 183.052C22.1594 181.344 10.5378 176.432 6.94597 178.951L6.74687 179.986C15.6905 180.199 24.4709 184.761 32.2459 188.868C45.5737 195.91 58.2227 204.466 70.4714 213.188C53.0859 207.327 35.8516 200.404 17.9603 196.111C14.3227 195.237 3.50749 192.685 0.457249 193.987C-0.0205961 194.192 -0.0484837 194.071 0.0391211 194.742C16.3934 197.364 32.2279 202.463 47.8395 207.819C57.2332 211.04 72.3191 215.639 80.6376 220.298C84.8864 222.678 89.0536 226.869 93.2945 229.443C93.9077 229.879 93.9754 230.421 93.9834 231.129C93.9993 232.505 93.396 234.228 93.4418 235.667C85.5455 234.08 77.5774 232.72 69.5854 231.685C56.2556 229.959 28.7277 226.524 16.5487 230.536C15.9553 230.731 14.2431 231.106 14.4641 231.972L30.0438 230.952C51.4711 231.564 72.8905 234.046 93.9057 238.056L94.5946 243.346C85.7426 244.678 74.109 244.4 65.9936 248.455C65.032 248.935 63.5188 249.497 63.4312 250.753C73.6053 247.237 84.4942 245.825 95.2477 245.767C96.4025 249.797 97.9734 254.201 100.181 257.771C101.109 259.273 102.545 260.489 103.291 261.704C105.808 265.787 106.672 271.213 109.971 276.152C111.248 278.064 114.592 282.641 116.247 283.963C116.739 284.357 117.254 284.672 117.917 284.638L119.771 283.288C120.56 285.146 121.442 289.277 124.131 287.983C123.437 295.487 126.304 300.319 131.673 305.096C132.958 306.241 134.64 307.137 135.878 308.27C139.47 311.567 147.496 320.827 151.458 322.205C164.935 326.894 188.579 313.635 199.705 306.032C204.819 302.535 209.476 298.35 214.237 294.406L231.796 306.101C231.997 306.398 227.718 309.074 227.202 309.385C215.969 316.136 201.072 318.599 188.875 323.714C183.721 325.874 178.086 328.823 172.983 331.296C170.257 332.618 164.531 336.287 162.054 336.803C154.005 338.471 140.45 335.604 132.675 332.938C111.104 325.536 92.7211 314.758 93.2766 289.154C93.5036 278.757 96.2054 269.813 100.99 260.642C101.302 259.826 99.5543 260.109 99.2178 260.216C97.9077 260.632 95.5404 265.839 94.8973 267.298C91.1243 275.852 89.0516 286.488 90.308 295.818C90.9551 300.616 91.9545 305.408 92.6514 310.245C95.389 329.263 100.375 354.131 97.9196 372.95C95.3233 392.832 86.8297 410.799 85.2309 430.359C85.1492 431.378 84.7431 435.725 85.0636 436.226C85.2508 436.519 85.8779 436.605 86.0671 436.895C86.6405 437.791 85.9198 439.36 85.8859 440.404C85.5036 452.636 85.7665 470.273 87.2458 482.338C87.4349 483.875 87.7893 485.399 88.2532 486.87L88.9182 486.866C87.5902 479.181 87.8053 471.326 87.5922 463.547C87.3832 455.993 86.2164 443.914 87.2617 436.75C87.4568 435.416 88.7729 431.832 89.3324 430.435C90.8216 426.731 93.2169 422.668 97.3024 421.471C96.0939 429.326 95.9007 437.515 96.6354 445.447C96.8664 447.942 97.6946 455.169 99.3452 456.823C99.6578 457.138 101.01 457.994 101.326 457.69C101.269 456.678 100.412 456.043 100.058 455.105C97.5035 448.372 98.1207 430.136 98.9828 422.646C99.0227 422.303 99.2118 420.862 99.5224 420.778C103.419 420.396 107.092 422.281 109.995 424.71C109.272 432.402 110.043 440.127 111.11 447.74C111.809 452.728 113.28 463.348 115.457 467.545C115.855 468.316 117.137 470.37 118.091 469.263C116.55 467.543 116.1 465.228 115.58 463.061C114.294 457.698 113.332 450.954 112.735 445.445C112.06 439.193 111.662 432.77 111.893 426.502C113.022 427.522 113.919 428.782 114.678 430.086C115.391 431.309 116.378 434.723 117.615 434.896C119.592 435.175 119.56 433.228 120.291 432.214C122.341 429.379 125.909 428.949 129.087 429.935C131.028 436.294 132.741 442.719 134.092 449.242C136.095 458.9 136.786 470.37 139.327 479.561C139.544 480.347 139.98 482.201 140.742 482.508C141.425 482.78 141.25 482.018 141.236 481.679C138.465 464.555 137.66 446.874 131.516 430.524C139.576 435.064 143.508 443.464 150.471 449.297C150.931 449.682 152.227 450.255 152.284 450.343C152.322 450.402 151.922 451.113 152.026 451.732C152.448 454.273 155.151 460.119 156.087 463.135C156.844 465.58 160.547 480.095 161.503 480.861C162.536 481.687 163.11 480.983 162.972 479.752C162.413 474.802 159.392 464.429 157.764 459.446C156.923 456.875 155.968 454.357 154.656 451.993C159.044 453.793 163.263 456.362 168.009 457.082C171.135 462.966 173.813 469.283 176.951 475.139C177.14 475.489 178.952 479.047 179.474 478.484L170.132 457.801L170.084 457.361C170.666 457.273 171.498 457.058 171.707 456.463C172.515 454.152 167.928 449.076 166.59 446.93C155.165 428.587 148.382 402.666 142.156 381.814C139.068 371.465 136.609 360.944 133.195 350.702C138.889 354.224 143.87 358.843 149.652 362.244C160.229 368.464 182.994 369.947 194.906 367.642C214.36 363.877 235.828 357.521 249.743 342.656C250.732 341.599 251.901 339.686 252.917 338.788C253.271 338.473 253.363 338.069 253.771 338.621C257.128 349.416 257.701 360.09 255.837 371.222C253.546 384.924 250.804 397.553 249.239 411.578C247.272 429.216 245.317 447.519 246.235 465.218C246.265 465.819 246.818 466.279 246.844 466.894C246.961 469.648 245.522 475.165 245.215 478.321C244.708 483.537 242.838 502.679 245.872 506.165C246.37 506.736 247.82 507.712 247.543 506.175C247.248 504.55 246.366 503.168 246.205 501.136C245.671 494.35 246.537 485.512 247.224 478.655C248.023 470.689 249.118 465.682 252.005 458.279C254.886 450.884 259.001 442.518 265.331 437.568C264.811 444.666 264.554 451.752 264.325 458.862C264.168 463.748 263.501 469.064 263.973 473.978C264.086 475.157 264.237 475.895 265.669 475.8L267.668 436.782C267.762 436.394 270.995 435.611 271.539 435.555C274.236 435.275 277.346 435.763 280.092 435.555C280.132 443.187 280.809 450.912 281.816 458.482C282.057 460.284 283.901 473.741 285.29 473.783C285.872 473.385 285.814 472.899 285.82 472.282C285.856 468.367 284.201 461.839 283.783 457.522C283.071 450.164 283.096 442.707 282.402 435.384C284.594 433.114 285.671 430.062 286.804 427.173L289.316 437.232C291.63 444.248 294.141 451.896 298.401 457.996C298.808 458.576 299.415 459.716 300.213 459.703C299.538 456.268 297.225 453.106 295.795 449.869C292.986 443.496 290.455 435.44 289.253 428.573C288.574 424.688 287.986 423.846 290.352 420.493C293.605 415.882 296.87 417.013 301.219 414.427C303.028 422.038 306.023 429.672 309.113 436.885C310.776 440.766 312.677 445.371 314.799 448.977C314.945 449.226 316.149 451.527 316.647 450.982C313.32 442.377 309.328 434.044 306.246 425.332C304.994 421.793 302.969 416.659 302.36 413.091C302.113 411.639 302.792 410.781 301.565 409.202C303.232 394.825 305.553 382.558 303.514 368.03C299.68 340.727 290.668 307.686 302.17 281.05C311.584 259.247 325.629 241.845 312.346 217.326C307.642 208.639 301.999 200.589 297.772 191.642C297.557 191.184 296.629 189.085 296.58 188.79C296.285 187.058 300.402 181.358 300.637 179.068C312.773 172.392 323.747 163.53 332.922 153.161C343.275 141.456 353.602 126.985 360.453 112.945C361.714 110.362 363.319 109.488 361.564 106.08C364.694 104.294 367.34 101.235 365.849 97.4146C365.515 96.5565 364.672 96.0468 364.611 95.1349C366.178 94.5376 369.077 94.7049 370.136 93.4485L383.111 69.5304C383.93 68.3179 386.201 67.4438 386.269 65.7913C386.396 62.6594 380.971 64.4612 379.197 64.6106Z" fill="#176A7B"/>
<path d="M172.99 261.877C171.601 262.355 171.65 265.873 174.207 265.118C175.656 264.692 175.8 260.911 172.99 261.877Z" fill="#176A7B"/>
<path d="M167.727 257.477L165.053 257.295L164.429 258.036C164.34 260.965 167.924 260.079 167.727 257.477Z" fill="#176A7B"/>
<path d="M167.634 266.25L165.766 267.423C165.434 270.541 169.494 268.815 168.588 266.861L167.634 266.25Z" fill="#176A7B"/>
<path d="M183.254 254.172C181.833 253.941 181.024 255.504 181.904 256.372C183.573 258.017 186.102 254.632 183.254 254.172Z" fill="#176A7B"/>
<path d="M176.218 253.172C174.583 252.674 173.745 253.403 174.155 255.069C175.712 256.274 178.432 253.845 176.218 253.172Z" fill="#176A7B"/>
<path d="M158.374 266.153C158.745 266.774 161.355 265.671 161.357 265.345C160.019 263.764 157.893 263.471 158.374 266.153Z" fill="#176A7B"/>
<path d="M176.867 184.926C177.166 184.038 179.456 178.442 179.792 178.127C179.977 177.958 180.121 177.751 180.386 177.689L198.593 180.996C198.759 181.783 198.488 181.534 198.159 181.747C196.903 182.559 195.458 183.103 194.122 184.068C187.945 188.538 183.324 196.062 179.205 202.356L176.796 207.823C176.527 206.003 176.192 203.787 176.107 201.97C175.908 197.661 175.591 188.723 176.867 184.926ZM200.111 200.436C209.301 207.753 216.098 193.245 215.698 185.691L228.775 189.207C225.934 195.073 221.174 202.861 214.617 204.9C208.011 206.957 195.135 206.587 190.601 200.556C190.201 200.026 188.001 196.223 187.918 195.837C187.788 195.236 188.085 194.883 188.383 194.428C189.61 192.548 194.538 187.913 196.421 186.37C196.728 186.117 198.36 184.775 198.591 185.02C197.011 189.707 195.681 196.91 200.111 200.436ZM207.561 184.401C210.468 183.883 210.217 187.2 208.17 188.389C205.112 190.163 204.849 184.885 207.561 184.401ZM238.77 193.305C239.156 194.631 239.26 198.135 239.135 199.566C238.673 204.793 233.476 224.655 230.854 228.852C229.552 230.939 227.561 232.498 225.18 233.238C222.044 234.214 220.385 232.771 217.387 232.129C204.292 229.33 190.978 226.79 178.817 221.059C177.524 220.094 176.792 212.749 177.21 211.092C177.423 210.248 181.425 203.909 182.219 202.688C183.101 201.334 184.814 198.662 185.855 197.603C186.173 197.277 186.287 196.966 186.85 197.094C188.509 207.194 201.086 210.171 209.823 209.161C215.702 208.482 219.905 206.396 223.736 201.946C226.615 198.603 229.88 193.948 229.787 189.378C231.573 190.207 238.225 191.433 238.77 193.305ZM177.343 224.211C186.251 229.722 206.721 233.517 217.387 235.482C219.631 235.896 221.038 236.88 223.543 236.633C225.717 236.416 229.574 234.343 231.137 232.824C234.782 229.282 238.077 215.244 239.415 209.91C240.568 205.31 241.924 201.356 241.522 196.592C241.175 192.492 240.807 190.915 236.819 189.219C230.384 186.481 221.02 184.333 214.094 182.432C205.478 180.066 195.957 177.309 187.201 175.784C185.15 175.425 180.883 174.489 179.042 175.025C177.086 175.594 176.25 180.023 175.585 181.633C174.476 184.323 173.172 185.315 173.104 188.877C172.969 195.815 173.674 202.997 174.122 209.991C174.371 213.864 173.435 221.79 177.343 224.211Z" fill="#176A7B"/>
<path d="M82.2644 193.182L80.8548 175.811L82.2126 149.802L96.2991 153.159C94.2981 159.216 97.1413 166.799 99.5942 172.5C101.671 177.326 102.742 179.482 107.475 182.058C113.193 185.172 119.875 186.725 126.146 184.348C126.312 185.399 126.354 186.713 126.636 187.715C126.967 188.88 127.934 189.702 127.69 190.717C125.165 194.47 123.594 201.572 119.664 203.856C118.64 204.449 117.517 204.812 116.45 205.302L82.9752 193.813L82.2644 193.182ZM78.8618 184.177C78.9175 184.896 80.1679 192.398 79.694 192.4C75.7498 190.751 72.9683 186.293 72.5263 182.126C72.2715 179.713 72.811 177.65 72.8349 175.474C72.9026 169.274 72.3631 160.38 73.6393 154.477C74.2525 151.636 77.2669 149.179 80.1997 149.465L78.5093 172.762C78.5671 176.561 78.5611 180.406 78.8618 184.177ZM97.9755 153.826L108.707 157.185C105.989 162.242 106.194 175.351 112.096 178.106C118.031 180.88 120.134 171.387 121.286 167.574C121.384 167.255 121.348 166.811 121.784 166.909L125.816 181.995C119.901 183.91 113.942 182.562 108.701 179.49C106.593 178.254 105.595 177.642 104.291 175.516C102.73 172.973 97.9755 161.292 97.9755 158.69V153.826ZM133.452 169.161C134.989 174.765 130.664 180.967 129.497 186.357L127.66 174.953L123.801 163.219C126.204 164 132.761 166.638 133.452 169.161ZM109.715 205.644C111.913 206.275 117.866 208.266 119.779 207.325C120.253 207.092 120.416 206.299 120.783 205.981C126.338 201.144 129.975 191.824 132.534 184.864C133.579 182.019 136.633 173.931 136.878 171.405C137.388 166.126 132.649 163.998 128.723 162.152C121.82 158.907 113.145 155.978 105.864 153.485C99.1323 151.18 83.5805 145.428 77.0937 146.529C74.2187 147.017 71.4333 150.194 71.2302 153.077C70.5911 162.108 69.6971 171.687 70.1232 180.84C70.386 186.481 71.1008 189.997 75.8693 193.541C79.7398 196.418 91.6142 199.866 96.7092 201.543C100.924 202.93 105.47 204.422 109.715 205.644Z" fill="#176A7B"/>
<path d="M251.274 193.207C255.809 195.971 257.149 186.866 251.821 188.441C249.996 188.98 249.217 191.953 251.274 193.207Z" fill="#176A7B"/>
<path d="M70.8195 140.25C70.6304 139.244 68.6672 138.51 67.6976 138.79C66.071 139.262 65.5115 142.336 66.9251 143.453C68.7947 144.875 71.1361 141.934 70.8195 140.25Z" fill="#176A7B"/>
<path d="M65.6924 146.499C63.6914 146.879 62.7537 151.192 65.9552 151.106C68.894 151.027 68.4719 145.971 65.6924 146.499Z" fill="#176A7B"/>
<path d="M251.921 197.258C249.643 196.143 247.881 199.912 249.317 201.369C251.119 203.201 254.643 198.59 251.921 197.258Z" fill="#176A7B"/>
<path d="M106.365 240.52L105.859 239.695C104.509 240.325 101.495 242.316 103.09 243.966C103.834 244.735 105.911 244.01 105.885 242.865C105.879 242.644 105.413 242.389 105.497 242.017C105.598 241.565 106.357 241.089 106.365 240.52Z" fill="#176A7B"/>
<path d="M110.021 235.427C111.047 236.946 113.761 234.991 113.392 233.329C111.887 232.273 108.849 233.691 110.021 235.427Z" fill="#176A7B"/>
<path d="M108.616 256.194C107.651 256.405 107.181 256.959 107.35 257.958C107.688 259.957 111.925 258.183 110.402 256.272C109.827 256.009 109.213 256.063 108.616 256.194Z" fill="#176A7B"/>
<path d="M110.621 244.114C108.534 244.747 110.326 248.114 112.252 245.745C113.454 244.265 112.045 243.682 110.621 244.114Z" fill="#176A7B"/>
<path d="M116.607 252.449C117.602 250.996 115.058 249.945 114.162 250.839C112.79 252.204 115.599 253.921 116.607 252.449Z" fill="#176A7B"/>
</svg>
