<svg width="400" height="331" viewBox="0 0 400 331" fill="none" xmlns="http://www.w3.org/2000/svg">
<g clip-path="url(#clip0_1716_93)">
<path d="M0 115.46L15.8136 97.0526L26.8536 192.847L76.0564 21.5869L154.032 214.423L225.464 137.271L297.719 277.029L340.668 242.702L374.4 331.799H220.868L191.389 276.352L138.6 331.799H43.3488L0 260.737V115.46Z" fill="#F7DA4D"/>
<path d="M264.818 207.667C267.501 210.086 264.984 214.684 265.702 217.739C270.451 219.207 273.656 219.863 276.83 223.958C278.237 225.782 278.931 227.976 280.231 229.683C284.069 234.723 289.626 234.87 285.002 242.358C284.531 243.123 280.074 248.33 279.607 248.524C276.543 249.807 273 247.949 269.86 248.496C267.005 248.99 256.75 253.546 255.58 256.154C254.976 257.499 255.18 260.363 255.241 261.945C255.627 272.036 256.022 285.519 260.222 294.674C262.73 300.142 267.215 305.454 270.374 310.684C271.716 312.909 272.343 315.492 274.004 318.015C274.589 318.908 280.149 325.749 280.597 326.025C282.447 327.165 287.338 326.619 288.784 328.942C289.764 330.515 290.188 334.505 288.152 335.522C283.68 336.244 277.114 335.489 273.566 332.434C259.875 320.661 247.782 303.401 232.731 292.941C221.11 287.814 213.046 296.341 209.126 306.461C207.894 309.649 202.448 327.703 204.208 329.65C204.636 330.125 207.247 329.968 208.103 332.743C209.503 337.294 208.151 338.567 203.836 338.881C196.591 339.399 192.576 338.4 191.915 330.667C190.897 318.751 192.805 306.641 193.175 294.788C193.233 292.973 193.442 290.132 192.705 288.522C191.421 285.714 180.765 285.766 177.301 285.053C174.585 284.493 164.918 280.336 163.439 281.201C162.617 281.681 156.87 295.929 155.51 298.517C152.136 304.912 146.576 309.25 150.2 317.597C150.599 318.524 155.572 326.13 156.019 326.41C157.336 327.232 159.001 325.759 160.9 326.329C161.285 326.443 165.023 329.293 165.175 329.55C169.053 335.94 158.924 336.125 155.076 335.835C147.669 335.28 147.812 331.76 143.821 327.013C140.244 322.756 133.417 316.353 132.841 310.609C131.938 301.567 136.938 290.608 130.754 282.36C128.78 282.208 106.825 299.102 103.229 301.644C100.013 303.919 94.8467 306.076 92.2929 308.665C90.5709 310.409 85.5231 320.005 85.0384 322.4C84.0106 327.498 87.9733 329.797 85.2381 334.462C77.6791 336.192 72.9832 336.643 72.5594 327.621C72.2367 320.623 75.5711 316.732 77.7595 310.87C79.6386 305.819 81.3411 298.969 83.834 294.437C85.7557 290.95 89.0961 288.256 91.3503 284.916C97.5685 275.709 99.1285 267.338 102.758 257.385C104.637 252.225 111.321 240.799 111.24 236.362C111.154 231.464 101.545 213.506 99.0993 207.462C95.6699 199.006 92.6156 191.153 91.0361 182.064C89.9182 175.651 90.0326 161.537 85.3428 157.346C81.7893 154.168 68.6588 151.008 69.6537 144.662C69.8766 143.246 72.1746 140.913 73.5727 140.752C79.3013 140.104 96.526 148.167 99.8896 153.151C104.537 160.04 102.458 170.354 103.815 178.425C105.584 188.987 111.644 195.158 115.736 204.227C119.093 211.662 120.159 220.252 125.359 226.851C132.352 227.716 139.074 224.998 145.972 224.519C167.321 223.041 186.821 228.043 207.295 231.373C218.393 233.174 221.295 238.214 232.916 231.084C236.48 228.898 238.259 225.972 241.313 223.654C244.3 221.388 248.054 220.366 250.946 218.076C253.696 215.896 259.399 207.263 260.741 206.532C261.574 206.076 264.213 207.121 264.818 207.667Z" fill="#E6BAA6"/>
</g>
<defs>
<clipPath id="clip0_1716_93">
<rect width="400" height="331" fill="white"/>
</clipPath>
</defs>
</svg>
